SplineFontDB: 2.0
FontName: THK2DJuly8-Bold
FullName: THK2DJuly8-Bold
FamilyName: TH K2D July8
Weight: Bold
Copyright: Copyright (c) 2006 by Department of Intellectual Property (DIP), Ministry of Commerce and Software Industry Promotion Agency (Public Organization) (SIPA). All rights reserved.
Version: 1.1
ItalicAngle: 0
UnderlinePosition: -55
UnderlineWidth: 50
Ascent: 800
Descent: 200
Order2: 1
XUID: [1021 375 425136265 10138363]
FSType: 0
OS2Version: 3
OS2_WeightWidthSlopeOnly: 0
OS2_UseTypoMetrics: 1
CreationTime: 1158666300
ModificationTime: 1196170825
PfmFamily: 17
TTFWeight: 700
TTFWidth: 5
LineGap: 60
VLineGap: 0
Panose: 2 0 5 6 0 0 0 2 0 4
OS2TypoAscent: 0
OS2TypoAOffset: 1
OS2TypoDescent: 0
OS2TypoDOffset: 1
OS2TypoLinegap: 0
OS2WinAscent: -26
OS2WinAOffset: 1
OS2WinDescent: -176
OS2WinDOffset: 1
HheadAscent: -26
HheadAOffset: 1
HheadDescent: 176
HheadDOffset: 1
OS2SubXSize: 700
OS2SubYSize: 650
OS2SubXOff: 0
OS2SubYOff: 140
OS2SupXSize: 700
OS2SupYSize: 650
OS2SupXOff: 0
OS2SupYOff: 477
OS2StrikeYSize: 50
OS2StrikeYPos: 250
OS2FamilyClass: 773
OS2Vendor: 'K2D '
Lookup: 4 0 0 "'frac' Diagonal Fractions in Latin lookup 0"  {"'frac' Diagonal Fractions in Latin lookup 0 subtable"  } ['frac' ('latn' <'dflt' > ) ]
Lookup: 6 0 0 "'liga' Standard Ligatures in Latin lookup 1"  {"'liga' Standard Ligatures in Latin lookup 1 subtable"  } ['liga' ('latn' <'dflt' > ) ]
Lookup: 6 0 0 "'liga' Standard Ligatures in Latin lookup 2"  {"'liga' Standard Ligatures in Latin lookup 2 subtable"  } ['liga' ('latn' <'dflt' > ) ]
Lookup: 6 0 0 "'liga' Standard Ligatures in Latin lookup 3"  {"'liga' Standard Ligatures in Latin lookup 3 subtable"  } ['liga' ('latn' <'dflt' > ) ]
Lookup: 6 0 0 "'liga' Standard Ligatures in Latin lookup 4"  {"'liga' Standard Ligatures in Latin lookup 4 subtable"  } ['liga' ('latn' <'dflt' > ) ]
Lookup: 6 0 0 "'liga' Standard Ligatures in Latin lookup 5"  {"'liga' Standard Ligatures in Latin lookup 5 subtable"  } ['liga' ('latn' <'dflt' > ) ]

StartChar: .notdef
Encoding: 65536 -1 0
Width: 783
VWidth: 1507
Flags: W
HStem: 0 59<179 600> 989 59<179 600>
VStem: 92 87<59 989> 600 87<59 989>
Fore
600 59 m 1,0,-1
 600 989 l 1,1,-1
 179 989 l 1,2,-1
 179 59 l 1,3,-1
 600 59 l 1,0,-1
687 0 m 1,4,-1
 92 0 l 1,5,-1
 92 1048 l 1,6,-1
 687 1048 l 1,7,-1
 687 0 l 1,4,-1
EndSplineSet
EndChar
StartChar: numbersign
Encoding: 35 35 4
Width: 652
VWidth: 1507
Flags: W
HStem: 220 54<54.1406 178 270 351 445 572.578> 434 53<77.3948 203 295 377 469 597.476>
Fore
405 677 m 2,0,1
 411 734 411 734 497 724 c 1,2,-1
 469 487 l 1,3,-1
 606 487 l 1,4,5
 606 434 606 434 540 434 c 2,6,-1
 463 434 l 1,7,-1
 445 274 l 1,8,-1
 582 274 l 1,9,10
 582 220 582 220 515 220 c 2,11,-1
 439 220 l 1,12,13
 434 173 434 173 428 127 c 128,-1,14
 422 81 422 81 418 38 c 0,15,16
 410 -20 410 -20 324 -8 c 1,17,-1
 351 220 l 1,18,-1
 264 220 l 1,19,20
 261 173 261 173 255 127 c 128,-1,21
 249 81 249 81 244 38 c 0,22,23
 237 -20 237 -20 151 -8 c 1,24,-1
 178 220 l 1,25,-1
 45 220 l 1,26,27
 45 274 45 274 110 274 c 2,28,-1
 184 274 l 1,29,-1
 203 434 l 1,30,-1
 69 434 l 1,31,32
 69 487 69 487 134 487 c 2,33,-1
 210 487 l 1,34,-1
 232 677 l 2,35,36
 238 734 238 734 324 724 c 1,37,-1
 295 487 l 1,38,-1
 383 487 l 1,39,-1
 405 677 l 2,0,1
270 274 m 1,40,-1
 357 274 l 1,41,-1
 377 434 l 1,42,-1
 289 434 l 1,43,-1
 270 274 l 1,40,-1
EndSplineSet
EndChar
StartChar: dollar
Encoding: 36 36 5
Width: 712
VWidth: 1507
Flags: W
HStem: -6 62<247.423 311 398 459.657> 660 62<255.752 311 398 450.925>
VStem: 89 95<459.969 559.394> 311 87<-70.5 -6 56 329 410 660 722 786.5> 556 97<187.368 225 225 273.727>
Fore
151 228 m 2,0,1
 151 196 151 196 163 168 c 128,-1,2
 175 140 175 140 196 116.5 c 128,-1,3
 217 93 217 93 246.5 77.5 c 128,-1,4
 276 62 276 62 311 56 c 1,5,-1
 311 345 l 1,6,7
 258 356 258 356 217 369.5 c 128,-1,8
 176 383 176 383 149 402 c 128,-1,9
 122 421 122 421 107 446.5 c 128,-1,10
 92 472 92 472 89 509 c 0,11,12
 84 547 84 547 98.5 583.5 c 128,-1,13
 113 620 113 620 141.5 648.5 c 128,-1,14
 170 677 170 677 213 696.5 c 128,-1,15
 256 716 256 716 311 722 c 1,16,-1
 311 746 l 2,17,18
 311 800 311 800 398 800 c 1,19,-1
 398 722 l 1,20,21
 493 710 493 710 548.5 658 c 128,-1,22
 604 606 604 606 616 531 c 0,23,24
 620 511 620 511 611.5 497.5 c 128,-1,25
 603 484 603 484 588.5 475 c 128,-1,26
 574 466 574 466 556 462 c 128,-1,27
 538 458 538 458 522 458 c 1,28,29
 523 466 523 466 523 474 c 128,-1,30
 523 490 l 0,31,32
 523 553 523 553 490.5 600.5 c 128,-1,33
 458 648 458 648 398 660 c 1,34,-1
 398 393 l 1,35,36
 452 383 452 383 497.5 371.5 c 128,-1,37
 543 360 543 360 576 342 c 128,-1,38
 609 324 609 324 629.5 297 c 128,-1,39
 650 270 650 270 653 229 c 0,40,41
 654 185 654 185 635 145.5 c 128,-1,42
 616 106 616 106 581 74 c 128,-1,43
 546 42 546 42 499 21 c 128,-1,44
 452 0 452 0 398 -6 c 1,45,-1
 398 -30 l 2,46,47
 398 -84 398 -84 311 -84 c 1,48,-1
 311 -6 l 1,49,50
 262 0 262 0 220.5 16.5 c 128,-1,51
 179 33 179 33 146 58 c 128,-1,52
 113 83 113 83 90.5 115.5 c 128,-1,53
 68 148 68 148 60 185 c 0,54,55
 56 205 56 205 63.5 219.5 c 128,-1,56
 71 234 71 234 84.5 243 c 128,-1,57
 98 252 98 252 116 256.5 c 128,-1,58
 134 261 134 261 152 261 c 1,59,60
 151 258 151 258 151 252.5 c 128,-1,61
 151 247 151 247 151 243 c 2,62,-1
 151 228 l 2,0,1
556 225 m 0,63,64
 552 270 552 270 509.5 291 c 128,-1,65
 467 312 467 312 398 329 c 1,66,-1
 398 56 l 1,67,68
 431 62 431 62 461 78.5 c 128,-1,69
 491 95 491 95 512.5 117.5 c 128,-1,70
 534 140 534 140 546 168 c 128,-1,71
 558 196 558 196 556 225 c 0,63,64
184 515 m 0,72,73
 187 472 187 472 218 448.5 c 128,-1,74
 249 425 249 425 311 410 c 1,75,-1
 311 660 l 1,76,77
 279 654 279 654 255 640 c 128,-1,78
 231 626 231 626 213.5 606 c 128,-1,79
 196 586 196 586 188.5 563 c 128,-1,80
 181 540 181 540 184 515 c 0,72,73
EndSplineSet
EndChar
StartChar: percent
Encoding: 37 37 6
Width: 884
VWidth: 1507
Flags: W
HStem: -5 50<604.31 699.453> 306 50<182.31 277.695> 360 50<594.014 709.991> 671 49<181.8 278.195>
VStem: 63 85<379.688 646.827> 312 84<379.688 646.827> 485 85<69.1727 337.972> 733 85<69.1727 337.972>
Fore
396 427 m 2,0,1
 396 401 396 401 383.5 379 c 128,-1,2
 371 357 371 357 348.5 341.5 c 128,-1,3
 326 326 326 326 295.5 316 c 128,-1,4
 265 306 265 306 231 306 c 256,5,6
 196 306 196 306 165 316 c 128,-1,7
 134 326 134 326 111.5 341.5 c 128,-1,8
 89 357 89 357 76 379 c 128,-1,9
 63 401 63 401 63 427 c 2,10,-1
 63 601 l 2,11,12
 63 626 63 626 76 647.5 c 128,-1,13
 89 669 89 669 111.5 685.5 c 128,-1,14
 134 702 134 702 165 711 c 128,-1,15
 196 720 196 720 231 720 c 256,16,17
 265 720 265 720 295.5 711 c 128,-1,18
 326 702 326 702 348.5 685.5 c 128,-1,19
 371 669 371 669 383.5 647.5 c 128,-1,20
 396 626 396 626 396 601 c 2,21,-1
 396 427 l 2,0,1
148 427 m 2,22,23
 148 396 148 396 172 376 c 128,-1,24
 196 356 196 356 231 356 c 0,25,26
 264 356 264 356 288 376 c 128,-1,27
 312 396 312 396 312 427 c 2,28,-1
 312 601 l 2,29,30
 312 632 312 632 288 651.5 c 128,-1,31
 264 671 264 671 231 671 c 0,32,33
 196 671 196 671 172 651.5 c 128,-1,34
 148 632 148 632 148 601 c 2,35,-1
 148 427 l 2,22,23
818 115 m 2,36,37
 818 90 818 90 805.5 68.5 c 128,-1,38
 793 47 793 47 770.5 31 c 128,-1,39
 748 15 748 15 717.5 5 c 128,-1,40
 687 -5 687 -5 653 -5 c 256,41,42
 618 -5 618 -5 587 5 c 128,-1,43
 556 15 556 15 533.5 31 c 128,-1,44
 511 47 511 47 498 68.5 c 128,-1,45
 485 90 485 90 485 115 c 2,46,-1
 485 289 l 2,47,48
 485 341 485 341 533.5 375.5 c 128,-1,49
 582 410 582 410 653 410 c 0,50,51
 722 410 722 410 770 375.5 c 128,-1,52
 818 341 818 341 818 289 c 2,53,-1
 818 115 l 2,36,37
570 115 m 2,54,55
 570 86 570 86 594 65.5 c 128,-1,56
 618 45 618 45 653 45 c 0,57,58
 686 45 686 45 709.5 65.5 c 128,-1,59
 733 86 733 86 733 115 c 2,60,-1
 733 289 l 2,61,62
 733 320 733 320 709.5 340 c 128,-1,63
 686 360 686 360 653 360 c 0,64,65
 618 360 618 360 594 340 c 128,-1,66
 570 320 570 320 570 289 c 2,67,-1
 570 115 l 2,54,55
577 724 m 2,68,69
 592 751 592 751 618 757.5 c 128,-1,70
 644 764 644 764 681 745 c 1,71,-1
 306 -2 l 2,72,73
 277 -62 277 -62 202 -23 c 1,74,-1
 577 724 l 2,68,69
EndSplineSet
EndChar
StartChar: ampersand
Encoding: 38 38 7
Width: 678
VWidth: 1507
Flags: W
HStem: -9 60<193.713 374.378> 666 59<247.969 363.602>
VStem: 33 95<114.521 256.315> 118 96<486.002 608.64> 387 94<508.2 639.937> 549 87<234.585 313.498>
Fore
502 68 m 1,0,1
 451 32 451 32 387.5 11.5 c 128,-1,2
 324 -9 324 -9 267 -9 c 0,3,4
 219 -9 219 -9 176 6 c 128,-1,5
 133 21 133 21 101 47.5 c 128,-1,6
 69 74 69 74 51 111 c 128,-1,7
 33 148 33 148 33 191 c 0,8,9
 33 265 33 265 76 318.5 c 128,-1,10
 119 372 119 372 182 405 c 1,11,12
 152 445 152 445 135 482 c 128,-1,13
 118 519 118 519 118 553 c 0,14,15
 118 586 118 586 130.5 618 c 128,-1,16
 143 650 143 650 168 673 c 128,-1,17
 193 696 193 696 229 710.5 c 128,-1,18
 265 725 265 725 314 725 c 0,19,20
 387 725 387 725 434 686.5 c 128,-1,21
 481 648 481 648 481 582 c 0,22,23
 481 525 481 525 433.5 474.5 c 128,-1,24
 386 424 386 424 300 384 c 1,25,26
 357 320 357 320 410 261.5 c 128,-1,27
 463 203 463 203 497 170 c 1,28,29
 522 199 522 199 535.5 233.5 c 128,-1,30
 549 268 549 268 549 330 c 1,31,32
 595 330 595 330 615.5 314 c 128,-1,33
 636 298 636 298 636 273 c 0,34,35
 636 237 636 237 611 197.5 c 128,-1,36
 586 158 586 158 553 121 c 1,37,-1
 564 112 l 2,38,39
 586 89 586 89 612 62.5 c 128,-1,40
 638 36 638 36 665 14 c 1,41,42
 644 -9 644 -9 615 -12 c 128,-1,43
 586 -15 586 -15 561 9 c 2,44,-1
 502 68 l 1,0,1
387 576 m 0,45,46
 387 610 387 610 369 638 c 128,-1,47
 351 666 351 666 307 666 c 256,48,49
 264 666 264 666 239 634.5 c 128,-1,50
 214 603 214 603 214 559 c 256,51,52
 214 515 214 515 230.5 488 c 128,-1,53
 247 461 247 461 265 436 c 1,54,55
 318 463 318 463 352.5 494.5 c 128,-1,56
 387 526 387 526 387 576 c 0,45,46
277 51 m 0,57,58
 329 51 329 51 372.5 70 c 128,-1,59
 416 89 416 89 451 118 c 1,60,61
 434 134 434 134 407.5 161 c 128,-1,62
 381 188 381 188 351 220 c 128,-1,63
 321 252 321 252 288.5 286.5 c 128,-1,64
 256 321 256 321 228 354 c 1,65,66
 211 344 211 344 193.5 330.5 c 128,-1,67
 176 317 176 317 161 297 c 128,-1,68
 146 277 146 277 137 253 c 128,-1,69
 128 229 128 229 128 199 c 0,70,71
 128 127 128 127 171 89 c 128,-1,72
 214 51 214 51 277 51 c 0,57,58
EndSplineSet
EndChar
StartChar: quotesingle
Encoding: 39 39 8
Width: 250
VWidth: 1507
Flags: W
HStem: 503 222<99.4271 143.277>
VStem: 72 107<621.113 707.148>
Fore
72 651 m 2,0,1
 69 689 69 689 98.5 707 c 128,-1,2
 128 725 128 725 179 725 c 1,3,-1
 170 564 l 2,4,5
 167 543 167 543 144 523 c 128,-1,6
 121 503 121 503 81 503 c 1,7,-1
 72 651 l 2,0,1
EndSplineSet
EndChar
StartChar: parenleft
Encoding: 40 40 9
Width: 318
VWidth: 1507
Flags: W
VStem: 68 96<157.371 457.94>
Fore
68 307 m 256,0,1
 68 378 68 378 80.5 439 c 128,-1,2
 93 500 93 500 113.5 551.5 c 128,-1,3
 134 603 134 603 161 646.5 c 128,-1,4
 188 690 188 690 217 727 c 0,5,6
 235 751 235 751 261.5 749.5 c 128,-1,7
 288 748 288 748 304 725 c 1,8,9
 238 645 238 645 201 545 c 128,-1,10
 164 445 164 445 164 307 c 256,11,12
 164 170 164 170 201 70.5 c 128,-1,13
 238 -29 238 -29 304 -109 c 1,14,15
 288 -131 288 -131 261.5 -132.5 c 128,-1,16
 235 -134 235 -134 217 -110 c 0,17,18
 188 -74 188 -74 161 -30 c 128,-1,19
 134 14 134 14 113.5 65 c 128,-1,20
 93 116 93 116 80.5 176.5 c 128,-1,21
 68 237 68 237 68 307 c 256,0,1
EndSplineSet
EndChar
StartChar: asterisk
Encoding: 42 42 11
Width: 464
VWidth: 1507
Flags: W
HStem: 375 382<172 285 172 172>
VStem: 29 402<543 585 531 598 531 531>
Fore
277 540 m 1,0,1
 288 525 288 525 299.5 511 c 128,-1,2
 311 497 311 497 321 482 c 1,3,-1
 320 482 l 1,4,5
 332 467 332 467 344.5 451.5 c 128,-1,6
 357 436 357 436 369 421 c 1,7,-1
 285 375 l 1,8,-1
 225 496 l 1,9,10
 222 488 222 488 217.5 479 c 128,-1,11
 213 470 213 470 210 463 c 2,12,-1
 161 375 l 1,13,-1
 89 422 l 1,14,-1
 179 543 l 1,15,-1
 124 538 l 2,16,17
 104 535 104 535 74.5 533.5 c 128,-1,18
 45 532 45 532 29 531 c 1,19,-1
 29 597 l 1,20,-1
 182 585 l 1,21,22
 175 597 175 597 164.5 608.5 c 128,-1,23
 154 620 154 620 146 632 c 2,24,-1
 89 707 l 1,25,-1
 172 757 l 1,26,-1
 231 641 l 1,27,-1
 247 674 l 2,28,29
 255 690 255 690 267.5 715 c 128,-1,30
 280 740 280 740 288 757 c 1,31,-1
 369 708 l 1,32,-1
 276 585 l 1,33,-1
 335 589 l 2,34,35
 354 591 354 591 382.5 593 c 128,-1,36
 411 595 411 595 431 598 c 1,37,-1
 431 531 l 1,38,-1
 277 540 l 1,0,1
EndSplineSet
EndChar
StartChar: plus
Encoding: 43 43 12
Width: 633
VWidth: 1507
Flags: W
HStem: 271 56<53.5625 268 362 578.297>
VStem: 268 94<58.6514 271 327 539.066>
Fore
268 271 m 1,0,-1
 44 271 l 1,1,2
 44 327 44 327 112 327 c 2,3,-1
 268 327 l 1,4,-1
 268 496 l 2,5,6
 268 556 268 556 362 556 c 1,7,-1
 362 327 l 1,8,-1
 588 327 l 1,9,10
 588 271 588 271 519 271 c 2,11,-1
 362 271 l 1,12,-1
 362 101 l 2,13,14
 362 42 362 42 268 42 c 1,15,-1
 268 271 l 1,0,-1
EndSplineSet
EndChar
StartChar: comma
Encoding: 44 44 13
Width: 223
VWidth: 1507
Flags: W
HStem: -9 118<60.6589 113>
VStem: 39 148<8.01794 91.4668>
Fore
39 50 m 256,0,1
 39 75 39 75 60 92 c 128,-1,2
 81 109 81 109 113 109 c 256,3,4
 145 109 145 109 166 92 c 128,-1,5
 187 75 187 75 187 50 c 0,6,7
 187 6 187 6 179.5 -25.5 c 128,-1,8
 172 -57 172 -57 160 -79 c 128,-1,9
 148 -101 148 -101 133 -116 c 128,-1,10
 118 -131 118 -131 104 -143 c 0,11,12
 93 -151 93 -151 77.5 -150 c 128,-1,13
 62 -149 62 -149 53 -140 c 1,14,15
 112 -89 112 -89 113 -9 c 1,16,17
 81 -9 81 -9 60 7.5 c 128,-1,18
 39 24 39 24 39 50 c 256,0,1
EndSplineSet
EndChar
StartChar: hyphen
Encoding: 45 45 14
Width: 384
VWidth: 1507
Flags: W
HStem: 270 59<52.6812 330.319 42 341 112 112>
Fore
42 270 m 1,0,1
 42 329 42 329 112 329 c 2,2,-1
 341 329 l 1,3,4
 341 270 341 270 271 270 c 2,5,-1
 42 270 l 1,0,1
EndSplineSet
EndChar
StartChar: period
Encoding: 46 46 15
Width: 227
VWidth: 1507
Flags: W
HStem: -9 118<60.6589 165.341>
VStem: 39 148<8.01794 91.4668>
Fore
39 50 m 256,0,1
 39 75 39 75 60 92 c 128,-1,2
 81 109 81 109 113 109 c 256,3,4
 145 109 145 109 166 92 c 128,-1,5
 187 75 187 75 187 50 c 256,6,7
 187 24 187 24 166 7.5 c 128,-1,8
 145 -9 145 -9 113 -9 c 256,9,10
 81 -9 81 -9 60 7.5 c 128,-1,11
 39 24 39 24 39 50 c 256,0,1
EndSplineSet
EndChar
StartChar: slash
Encoding: 47 47 16
Width: 450
VWidth: 1507
Flags: W
VStem: -15 479<-26 742 -26 -26>
Fore
360 720 m 2,0,1
 375 748 375 748 401 754.5 c 128,-1,2
 427 761 427 761 464 742 c 1,3,-1
 89 -5 l 2,4,5
 60 -65 60 -65 -15 -26 c 1,6,-1
 360 720 l 2,0,1
EndSplineSet
EndChar
StartChar: zero
Encoding: 48 48 17
Width: 723
VWidth: 1507
Flags: W
HStem: -9 60<292.902 428.104> 665 60<292.902 428.104>
VStem: 83 95<140.329 575.671> 543 96<140.329 575.671>
Fore
639 196 m 2,0,1
 639 154 639 154 617 116 c 128,-1,2
 595 78 595 78 557.5 50.5 c 128,-1,3
 520 23 520 23 469 7 c 128,-1,4
 418 -9 418 -9 360 -9 c 256,5,6
 303 -9 303 -9 252.5 7 c 128,-1,7
 202 23 202 23 164.5 50.5 c 128,-1,8
 127 78 127 78 105 116 c 128,-1,9
 83 154 83 154 83 196 c 2,10,-1
 83 520 l 2,11,12
 83 562 83 562 105 600 c 128,-1,13
 127 638 127 638 164.5 665.5 c 128,-1,14
 202 693 202 693 252.5 709 c 128,-1,15
 303 725 303 725 360 725 c 256,16,17
 418 725 418 725 469 709 c 128,-1,18
 520 693 520 693 557.5 665.5 c 128,-1,19
 595 638 595 638 617 600 c 128,-1,20
 639 562 639 562 639 520 c 2,21,-1
 639 196 l 2,0,1
178 196 m 2,22,23
 178 166 178 166 192 139.5 c 128,-1,24
 206 113 206 113 231 93.5 c 128,-1,25
 256 74 256 74 289.5 62.5 c 128,-1,26
 323 51 323 51 360 51 c 256,27,28
 398 51 398 51 431 62.5 c 128,-1,29
 464 74 464 74 489 93.5 c 128,-1,30
 514 113 514 113 528.5 139.5 c 128,-1,31
 543 166 543 166 543 196 c 2,32,-1
 543 520 l 2,33,34
 543 550 543 550 528.5 576.5 c 128,-1,35
 514 603 514 603 489 622.5 c 128,-1,36
 464 642 464 642 431 653.5 c 128,-1,37
 398 665 398 665 360 665 c 256,38,39
 323 665 323 665 289.5 653.5 c 128,-1,40
 256 642 256 642 231 622.5 c 128,-1,41
 206 603 206 603 192 576.5 c 128,-1,42
 178 550 178 550 178 520 c 2,43,-1
 178 196 l 2,22,23
EndSplineSet
EndChar
StartChar: one
Encoding: 49 49 18
Width: 723
VWidth: 1507
Flags: W
HStem: -9 21G<342 390.5> 657 59<233.834 342>
VStem: 223 216<669.114 684 684 705.687> 342 97<8.78027 657>
Fore
392 716 m 1,0,1
 413 716 413 716 426 706 c 128,-1,2
 439 696 439 696 439 684 c 2,3,-1
 439 54 l 2,4,5
 439 -9 439 -9 342 -9 c 1,6,-1
 342 657 l 1,7,-1
 294 657 l 2,8,9
 223 657 223 657 223 716 c 1,10,-1
 392 716 l 1,0,1
EndSplineSet
EndChar
StartChar: two
Encoding: 50 50 19
Width: 723
VWidth: 1507
Flags: W
HStem: 0 60<182 617.34> 665 60<303.68 425.819>
VStem: 544 95<443.783 573.35>
Fore
562 60 m 2,0,1
 597 60 597 60 618 45 c 128,-1,2
 639 30 639 30 639 0 c 1,3,-1
 130 0 l 2,4,5
 113 0 113 0 99.5 7.5 c 128,-1,6
 86 15 86 15 86 27 c 0,7,8
 86 113 86 113 148.5 190 c 128,-1,9
 211 267 211 267 332 323 c 2,10,-1
 366 338 l 2,11,12
 393 350 393 350 425 365 c 128,-1,13
 457 380 457 380 483 400.5 c 128,-1,14
 509 421 509 421 526.5 446.5 c 128,-1,15
 544 472 544 472 544 506 c 0,16,17
 544 538 544 538 529.5 567.5 c 128,-1,18
 515 597 515 597 490.5 618 c 128,-1,19
 466 639 466 639 432.5 652 c 128,-1,20
 399 665 399 665 362 665 c 256,21,22
 324 665 324 665 291 652 c 128,-1,23
 258 639 258 639 233 618 c 128,-1,24
 208 597 208 597 193 567.5 c 128,-1,25
 178 538 178 538 178 506 c 0,26,27
 178 497 178 497 178 490.5 c 128,-1,28
 178 484 178 484 181 473 c 1,29,30
 145 473 145 473 117 493.5 c 128,-1,31
 89 514 89 514 87 537 c 1,32,33
 95 580 95 580 122 615 c 128,-1,34
 149 650 149 650 187 674.5 c 128,-1,35
 225 699 225 699 271 712 c 128,-1,36
 317 725 317 725 362 725 c 0,37,38
 408 725 408 725 457 710.5 c 128,-1,39
 506 696 506 696 547 668.5 c 128,-1,40
 588 641 588 641 613.5 600 c 128,-1,41
 639 559 639 559 639 506 c 0,42,43
 639 463 639 463 615 428 c 128,-1,44
 591 393 591 393 552.5 364.5 c 128,-1,45
 514 336 514 336 466 312.5 c 128,-1,46
 418 289 418 289 371 268 c 0,47,48
 289 229 289 229 241 175.5 c 128,-1,49
 193 122 193 122 182 60 c 1,50,-1
 562 60 l 2,0,1
EndSplineSet
EndChar
StartChar: three
Encoding: 51 51 20
Width: 723
VWidth: 1507
Flags: W
HStem: -9 60<294.025 425.928> 359 62<337.191 398.964> 665 60<304.807 441.137>
VStem: 502 96<476.849 608.275> 543 96<138.61 270.372>
Fore
125 573 m 0,0,1
 130 600 130 600 148.5 628 c 128,-1,2
 167 656 167 656 197.5 677 c 128,-1,3
 228 698 228 698 269.5 711.5 c 128,-1,4
 311 725 311 725 360 725 c 256,5,6
 410 725 410 725 453 710.5 c 128,-1,7
 496 696 496 696 528.5 671.5 c 128,-1,8
 561 647 561 647 579.5 613.5 c 128,-1,9
 598 580 598 580 598 543 c 0,10,11
 598 497 598 497 569.5 458 c 128,-1,12
 541 419 541 419 493 392 c 1,13,14
 561 365 561 365 600 314.5 c 128,-1,15
 639 264 639 264 639 205 c 0,16,17
 639 161 639 161 617 122 c 128,-1,18
 595 83 595 83 557.5 53.5 c 128,-1,19
 520 24 520 24 469 7.5 c 128,-1,20
 418 -9 418 -9 360 -9 c 256,21,22
 303 -9 303 -9 254 7.5 c 128,-1,23
 205 24 205 24 169 50.5 c 128,-1,24
 133 77 133 77 111.5 109.5 c 128,-1,25
 90 142 90 142 87 175 c 0,26,27
 84 205 84 205 105.5 222.5 c 128,-1,28
 127 240 127 240 181 238 c 1,29,30
 179 231 179 231 178.5 223.5 c 128,-1,31
 178 216 178 216 178 205 c 0,32,33
 178 173 178 173 192 144.5 c 128,-1,34
 206 116 206 116 231 95.5 c 128,-1,35
 256 75 256 75 289.5 63 c 128,-1,36
 323 51 323 51 360 51 c 256,37,38
 398 51 398 51 431 63 c 128,-1,39
 464 75 464 75 489 95.5 c 128,-1,40
 514 116 514 116 528.5 144.5 c 128,-1,41
 543 173 543 173 543 205 c 256,42,43
 543 237 543 237 528.5 264.5 c 128,-1,44
 514 292 514 292 489 313.5 c 128,-1,45
 464 335 464 335 431 347 c 128,-1,46
 398 359 398 359 360 359 c 0,47,48
 339 359 339 359 325.5 368 c 128,-1,49
 312 377 312 377 312 390 c 256,50,51
 312 404 312 404 325.5 412.5 c 128,-1,52
 339 421 339 421 360 421 c 0,53,54
 419 421 419 421 460.5 456 c 128,-1,55
 502 491 502 491 502 543 c 256,56,57
 502 594 502 594 460.5 629.5 c 128,-1,58
 419 665 419 665 360 665 c 0,59,60
 332 665 332 665 306 655 c 128,-1,61
 280 645 280 645 260.5 628.5 c 128,-1,62
 241 612 241 612 230 590 c 128,-1,63
 219 568 219 568 219 543 c 0,64,65
 219 538 219 538 219 528.5 c 128,-1,66
 219 519 219 519 222 511 c 1,67,68
 202 509 202 509 183 512 c 128,-1,69
 164 515 164 515 150 523.5 c 128,-1,70
 136 532 136 532 129 544 c 128,-1,71
 122 556 122 556 125 573 c 0,0,1
EndSplineSet
EndChar
StartChar: four
Encoding: 52 52 21
Width: 723
VWidth: 1507
Flags: W
HStem: -9 21G<463 510.5> 178 60<170 463 558 666.282>
VStem: 463 95<8.78027 178 238 580>
Fore
678 238 m 1,0,1
 678 178 678 178 607 178 c 2,2,-1
 558 178 l 1,3,-1
 558 54 l 2,4,5
 558 -9 558 -9 463 -9 c 1,6,-1
 463 178 l 1,7,-1
 96 178 l 2,8,9
 74 178 74 178 61 194.5 c 128,-1,10
 48 211 48 211 62 228 c 2,11,-1
 475 714 l 2,12,13
 485 727 485 727 499.5 730.5 c 128,-1,14
 514 734 514 734 526 730.5 c 128,-1,15
 538 727 538 727 547 717.5 c 128,-1,16
 556 708 556 708 558 693 c 2,17,-1
 558 238 l 1,18,-1
 678 238 l 1,0,1
463 238 m 1,19,-1
 463 580 l 1,20,-1
 170 238 l 1,21,-1
 463 238 l 1,19,-1
EndSplineSet
EndChar
StartChar: five
Encoding: 53 53 22
Width: 723
VWidth: 1507
Flags: W
HStem: -9 60<284.774 435.69> 458 59<281.626 436.515> 657 59<309 580.014>
VStem: 543 96<168.35 341.69>
Fore
259 499 m 1,0,1
 301 517 301 517 360 517 c 0,2,3
 418 517 418 517 469 496.5 c 128,-1,4
 520 476 520 476 557.5 440 c 128,-1,5
 595 404 595 404 617 356.5 c 128,-1,6
 639 309 639 309 639 255 c 256,7,8
 639 200 639 200 617 152 c 128,-1,9
 595 104 595 104 557.5 68 c 128,-1,10
 520 32 520 32 469 11.5 c 128,-1,11
 418 -9 418 -9 360 -9 c 256,12,13
 303 -9 303 -9 254 10 c 128,-1,14
 205 29 205 29 169.5 61 c 128,-1,15
 134 93 134 93 112 135.5 c 128,-1,16
 90 178 90 178 87 225 c 0,17,18
 84 255 84 255 105.5 271.5 c 128,-1,19
 127 288 127 288 181 286 c 1,20,21
 178 271 178 271 178 255 c 0,22,23
 178 213 178 213 192 176 c 128,-1,24
 206 139 206 139 231 111 c 128,-1,25
 256 83 256 83 289.5 67 c 128,-1,26
 323 51 323 51 360 51 c 256,27,28
 398 51 398 51 431 67 c 128,-1,29
 464 83 464 83 489 111 c 128,-1,30
 514 139 514 139 528.5 176 c 128,-1,31
 543 213 543 213 543 255 c 256,32,33
 543 297 543 297 528.5 334 c 128,-1,34
 514 371 514 371 489 399 c 128,-1,35
 464 427 464 427 431 442.5 c 128,-1,36
 398 458 398 458 360 458 c 0,37,38
 318 458 318 458 284 439.5 c 128,-1,39
 250 421 250 421 225 390 c 0,40,41
 211 377 211 377 193.5 372.5 c 128,-1,42
 176 368 176 368 162 371.5 c 128,-1,43
 148 375 148 375 139.5 386.5 c 128,-1,44
 131 398 131 398 137 416 c 2,45,-1
 231 692 l 1,46,-1
 229 690 l 1,47,48
 232 702 232 702 245.5 709 c 128,-1,49
 259 716 259 716 276 716 c 2,50,-1
 591 716 l 1,51,52
 591 657 591 657 519 657 c 2,53,-1
 309 657 l 1,54,-1
 259 499 l 1,0,1
EndSplineSet
EndChar
StartChar: six
Encoding: 54 54 23
Width: 723
VWidth: 1507
Flags: W
HStem: -9 60<284.352 435.69> 458 59<338.28 436.515>
VStem: 83 95<167.592 341.622> 543 96<168.35 341.69>
Fore
338 515 m 1,0,1
 345 517 345 517 360 517 c 0,2,3
 418 517 418 517 469 496.5 c 128,-1,4
 520 476 520 476 557.5 440 c 128,-1,5
 595 404 595 404 617 356.5 c 128,-1,6
 639 309 639 309 639 255 c 256,7,8
 639 200 639 200 617 152 c 128,-1,9
 595 104 595 104 557.5 68 c 128,-1,10
 520 32 520 32 469 11.5 c 128,-1,11
 418 -9 418 -9 360 -9 c 256,12,13
 303 -9 303 -9 252.5 11.5 c 128,-1,14
 202 32 202 32 164.5 68 c 128,-1,15
 127 104 127 104 105 152 c 128,-1,16
 83 200 83 200 83 255 c 0,17,18
 83 306 83 306 106.5 355 c 128,-1,19
 130 404 130 404 166 443 c 2,20,-1
 410 704 l 2,21,22
 458 755 458 755 514 705 c 1,23,-1
 338 515 l 1,0,1
543 255 m 256,24,25
 543 297 543 297 528.5 334 c 128,-1,26
 514 371 514 371 489 399 c 128,-1,27
 464 427 464 427 431 442.5 c 128,-1,28
 398 458 398 458 360 458 c 256,29,30
 323 458 323 458 289.5 442.5 c 128,-1,31
 256 427 256 427 231 399 c 128,-1,32
 206 371 206 371 192 334 c 128,-1,33
 178 297 178 297 178 255 c 256,34,35
 178 213 178 213 192 176 c 128,-1,36
 206 139 206 139 231 111 c 128,-1,37
 256 83 256 83 289.5 67 c 128,-1,38
 323 51 323 51 360 51 c 256,39,40
 398 51 398 51 431 67 c 128,-1,41
 464 83 464 83 489 111 c 128,-1,42
 514 139 514 139 528.5 176 c 128,-1,43
 543 213 543 213 543 255 c 256,24,25
EndSplineSet
EndChar
StartChar: seven
Encoding: 55 55 24
Width: 723
VWidth: 1507
Flags: W
HStem: 657 59<103.834 538>
Fore
538 657 m 1,0,-1
 164 657 l 2,1,2
 93 657 93 657 93 716 c 1,3,-1
 600 716 l 2,4,5
 621 716 621 716 636 701 c 128,-1,6
 651 686 651 686 644 668 c 2,7,-1
 311 23 l 2,8,9
 280 -33 280 -33 205 5 c 1,10,-1
 538 657 l 1,0,-1
EndSplineSet
EndChar
StartChar: eight
Encoding: 56 56 25
Width: 723
VWidth: 1507
Flags: W
HStem: -9 60<294.253 425.928> 359 62<321.675 398.964> 665 60<278.821 441.137>
VStem: 83 95<137.991 270.326> 122 97<476.862 608.802> 502 96<476.849 608.275> 543 96<138.61 270.372>
Fore
122 543 m 0,0,1
 122 580 122 580 141 613.5 c 128,-1,2
 160 647 160 647 192.5 671.5 c 128,-1,3
 225 696 225 696 268 710.5 c 128,-1,4
 311 725 311 725 360 725 c 256,5,6
 410 725 410 725 453 710.5 c 128,-1,7
 496 696 496 696 528.5 671.5 c 128,-1,8
 561 647 561 647 579.5 613.5 c 128,-1,9
 598 580 598 580 598 543 c 0,10,11
 598 497 598 497 569.5 458 c 128,-1,12
 541 419 541 419 493 392 c 1,13,14
 561 365 561 365 600 314.5 c 128,-1,15
 639 264 639 264 639 205 c 0,16,17
 639 161 639 161 617 122 c 128,-1,18
 595 83 595 83 557.5 53.5 c 128,-1,19
 520 24 520 24 469 7.5 c 128,-1,20
 418 -9 418 -9 360 -9 c 256,21,22
 303 -9 303 -9 252.5 7.5 c 128,-1,23
 202 24 202 24 164.5 53.5 c 128,-1,24
 127 83 127 83 105 122 c 128,-1,25
 83 161 83 161 83 205 c 0,26,27
 83 262 83 262 123 312.5 c 128,-1,28
 163 363 163 363 226 392 c 1,29,30
 178 419 178 419 150 459 c 128,-1,31
 122 499 122 499 122 543 c 0,0,1
178 205 m 256,32,33
 178 173 178 173 192 144.5 c 128,-1,34
 206 116 206 116 231 95.5 c 128,-1,35
 256 75 256 75 289.5 63 c 128,-1,36
 323 51 323 51 360 51 c 256,37,38
 398 51 398 51 431 63 c 128,-1,39
 464 75 464 75 489 95.5 c 128,-1,40
 514 116 514 116 528.5 144.5 c 128,-1,41
 543 173 543 173 543 205 c 256,42,43
 543 237 543 237 528.5 264.5 c 128,-1,44
 514 292 514 292 489 313.5 c 128,-1,45
 464 335 464 335 431 347 c 128,-1,46
 398 359 398 359 360 359 c 256,47,48
 323 359 323 359 289.5 347 c 128,-1,49
 256 335 256 335 231 313.5 c 128,-1,50
 206 292 206 292 192 264.5 c 128,-1,51
 178 237 178 237 178 205 c 256,32,33
219 543 m 256,52,53
 219 491 219 491 260 456 c 128,-1,54
 301 421 301 421 360 421 c 256,55,56
 419 421 419 421 460.5 456 c 128,-1,57
 502 491 502 491 502 543 c 256,58,59
 502 594 502 594 460.5 629.5 c 128,-1,60
 419 665 419 665 360 665 c 256,61,62
 301 665 301 665 260 629.5 c 128,-1,63
 219 594 219 594 219 543 c 256,52,53
EndSplineSet
EndChar
StartChar: nine
Encoding: 57 57 26
Width: 723
VWidth: 1507
Flags: W
HStem: 199 60<290.548 380.979> 665 60<284.352 435.69>
VStem: 83 95<375.592 550.438> 543 96<376.589 549.69>
Fore
311 12 m 2,0,1
 264 -39 264 -39 206 11 c 1,2,-1
 381 199 l 1,3,-1
 360 199 l 2,4,5
 303 199 303 199 252.5 219.5 c 128,-1,6
 202 240 202 240 164.5 276 c 128,-1,7
 127 312 127 312 105 360 c 128,-1,8
 83 408 83 408 83 463 c 256,9,10
 83 517 83 517 105 564.5 c 128,-1,11
 127 612 127 612 164.5 648 c 128,-1,12
 202 684 202 684 252.5 704.5 c 128,-1,13
 303 725 303 725 360 725 c 256,14,15
 418 725 418 725 469 704.5 c 128,-1,16
 520 684 520 684 557.5 648 c 128,-1,17
 595 612 595 612 617 564.5 c 128,-1,18
 639 517 639 517 639 463 c 0,19,20
 639 410 639 410 615 362 c 128,-1,21
 591 314 591 314 555 274 c 2,22,-1
 311 12 l 2,0,1
178 463 m 256,23,24
 178 421 178 421 192 384 c 128,-1,25
 206 347 206 347 231 319 c 128,-1,26
 256 291 256 291 289.5 275 c 128,-1,27
 323 259 323 259 360 259 c 256,28,29
 398 259 398 259 431 275 c 128,-1,30
 464 291 464 291 489 319 c 128,-1,31
 514 347 514 347 528.5 384 c 128,-1,32
 543 421 543 421 543 463 c 256,33,34
 543 505 543 505 528.5 542 c 128,-1,35
 514 579 514 579 489 606 c 128,-1,36
 464 633 464 633 431 649 c 128,-1,37
 398 665 398 665 360 665 c 256,38,39
 323 665 323 665 289.5 649 c 128,-1,40
 256 633 256 633 231 606 c 128,-1,41
 206 579 206 579 192 542 c 128,-1,42
 178 505 178 505 178 463 c 256,23,24
EndSplineSet
EndChar
StartChar: less
Encoding: 60 60 29
Width: 633
VWidth: 1507
Flags: W
HStem: -3 21G<539.714 582>
Fore
576 601 m 1,0,1
 588 574 588 574 582.5 551.5 c 128,-1,2
 577 529 577 529 556 517 c 2,3,-1
 158 298 l 1,4,5
 257.5 244 l 0,6,-1
 556 81 l 0,7,8
 577 69 577 69 582.5 46.5 c 128,-1,9
 588 24 588 24 576 -3 c 1,10,-1
 68 277 l 2,11,12
 47 286 47 286 47 298 c 0,13,14
 47 309 47 309 68 321 c 2,15,-1
 576 601 l 1,0,1
EndSplineSet
EndChar
StartChar: equal
Encoding: 61 61 30
Width: 633
VWidth: 1507
Flags: W
HStem: 181 57<54.376 577.471> 360 58<54.376 112 112 577.471>
Fore
44 360 m 1,0,1
 44 418 44 418 112 418 c 2,2,-1
 588 418 l 1,3,4
 588 360 588 360 519 360 c 2,5,-1
 44 360 l 1,0,1
44 181 m 1,6,7
 44 238 44 238 112 238 c 2,8,-1
 588 238 l 1,9,10
 588 181 588 181 519 181 c 2,11,-1
 44 181 l 1,6,7
EndSplineSet
EndChar
StartChar: question
Encoding: 63 63 32
Width: 533
VWidth: 1507
Flags: W
HStem: -9 118<208.658 312.31> 668 57<185.631 334.835>
VStem: 35 90<517.403 606.809> 187 148<8.01794 91.4668> 214 92<158.952 296.762> 395 92<467.684 606.702>
Fore
306 203 m 2,0,1
 306 143 306 143 214 143 c 1,2,-1
 214 235 l 2,3,4
 216 286 216 286 245 320 c 128,-1,5
 274 354 274 354 311 384 c 0,6,7
 342 410 342 410 368.5 441 c 128,-1,8
 395 472 395 472 395 525 c 0,9,10
 395 588 395 588 356.5 628 c 128,-1,11
 318 668 318 668 259 668 c 0,12,13
 205 668 205 668 165 629.5 c 128,-1,14
 125 591 125 591 125 525 c 0,15,16
 125 514 125 514 125 508 c 128,-1,17
 125 502 125 502 127 493 c 1,18,19
 92 493 92 493 64 512 c 128,-1,20
 36 531 36 531 35 553 c 1,21,22
 42 589 42 589 62.5 621 c 128,-1,23
 83 653 83 653 112.5 675.5 c 128,-1,24
 142 698 142 698 179.5 711.5 c 128,-1,25
 217 725 217 725 259 725 c 0,26,27
 304 725 304 725 345.5 711.5 c 128,-1,28
 387 698 387 698 419 671.5 c 128,-1,29
 451 645 451 645 469 608 c 128,-1,30
 487 571 487 571 487 525 c 0,31,32
 487 491 487 491 477 465 c 128,-1,33
 467 439 467 439 451.5 417.5 c 128,-1,34
 436 396 436 396 416 378 c 128,-1,35
 396 360 396 360 377 344 c 0,36,37
 348 321 348 321 327 297.5 c 128,-1,38
 306 274 306 274 306 235 c 2,39,-1
 306 203 l 2,0,1
187 50 m 256,40,41
 187 75 187 75 208 92 c 128,-1,42
 229 109 229 109 259 109 c 0,43,44
 291 109 291 109 313 92 c 128,-1,45
 335 75 335 75 335 50 c 256,46,47
 335 24 335 24 313 7.5 c 128,-1,48
 291 -9 291 -9 259 -9 c 0,49,50
 229 -9 229 -9 208 7.5 c 128,-1,51
 187 24 187 24 187 50 c 256,40,41
EndSplineSet
EndChar
StartChar: at
Encoding: 64 64 33
Width: 877
VWidth: 1507
Flags: W
HStem: -9 51<346.28 561.165> 136 54<329.742 427.598 531.511 622.607> 522 55<402.67 502.014> 675 50<345.314 555.792>
VStem: 74 86<237.376 475.506> 210 97<234.007 358.424> 713 87<345.325 527.26>
Fore
375 190 m 256,0,1
 407 190 407 190 433.5 215 c 128,-1,2
 460 240 460 240 480 277 c 128,-1,3
 500 314 500 314 511.5 356 c 128,-1,4
 523 398 523 398 523 431 c 0,5,6
 523 466 523 466 506.5 494 c 128,-1,7
 490 522 490 522 464 522 c 0,8,9
 430 522 430 522 400.5 499 c 128,-1,10
 371 476 371 476 350.5 441.5 c 128,-1,11
 330 407 330 407 318.5 365.5 c 128,-1,12
 307 324 307 324 307 288 c 0,13,14
 307 244 307 244 325.5 217 c 128,-1,15
 344 190 344 190 375 190 c 256,0,1
583 558 m 1,16,-1
 669 558 l 1,17,-1
 574 265 l 1,18,-1
 570 252 l 2,19,20
 567 243 567 243 564 233 c 128,-1,21
 561 223 561 223 561 211 c 0,22,23
 561 187 561 187 571 187 c 0,24,25
 595 187 595 187 621 208 c 128,-1,26
 647 229 647 229 667 262 c 128,-1,27
 687 295 687 295 700 337.5 c 128,-1,28
 713 380 713 380 713 424 c 0,29,30
 713 481 713 481 692 527.5 c 128,-1,31
 671 574 671 574 635.5 606.5 c 128,-1,32
 600 639 600 639 552.5 657 c 128,-1,33
 505 675 505 675 454 675 c 0,34,35
 390 675 390 675 336.5 649.5 c 128,-1,36
 283 624 283 624 244 580.5 c 128,-1,37
 205 537 205 537 182.5 478 c 128,-1,38
 160 419 160 419 160 354 c 0,39,40
 160 291 160 291 182.5 233.5 c 128,-1,41
 205 176 205 176 245 134 c 128,-1,42
 285 92 285 92 339 67 c 128,-1,43
 393 42 393 42 455 42 c 0,44,45
 525 42 525 42 590.5 77.5 c 128,-1,46
 656 113 656 113 699 176 c 0,47,48
 719 203 719 203 739.5 201 c 128,-1,49
 760 199 760 199 781 173 c 1,50,51
 733 90 733 90 646 40.5 c 128,-1,52
 559 -9 559 -9 455 -9 c 0,53,54
 374 -9 374 -9 304.5 20.5 c 128,-1,55
 235 50 235 50 184 100.5 c 128,-1,56
 133 151 133 151 103.5 218.5 c 128,-1,57
 74 286 74 286 74 362 c 0,58,59
 74 436 74 436 104 502 c 128,-1,60
 134 568 134 568 186 618 c 128,-1,61
 238 668 238 668 306.5 696.5 c 128,-1,62
 375 725 375 725 452 725 c 0,63,64
 525 725 525 725 589 702.5 c 128,-1,65
 653 680 653 680 699.5 639 c 128,-1,66
 746 598 746 598 773 542.5 c 128,-1,67
 800 487 800 487 800 422 c 0,68,69
 800 362 800 362 777.5 310 c 128,-1,70
 755 258 755 258 720.5 219.5 c 128,-1,71
 686 181 686 181 643.5 158.5 c 128,-1,72
 601 136 601 136 561 136 c 0,73,74
 502 136 502 136 481 181 c 1,75,76
 457 163 457 163 426 149.5 c 128,-1,77
 395 136 395 136 362 136 c 0,78,79
 326 136 326 136 297 148 c 128,-1,80
 268 160 268 160 249.5 180 c 128,-1,81
 231 200 231 200 220.5 226.5 c 128,-1,82
 210 253 210 253 210 282 c 0,83,84
 210 336 210 336 228.5 389.5 c 128,-1,85
 247 443 247 443 281 484.5 c 128,-1,86
 315 526 315 526 362.5 551.5 c 128,-1,87
 410 577 410 577 469 577 c 0,88,89
 499 577 499 577 526 567.5 c 128,-1,90
 553 558 553 558 573 529 c 1,91,-1
 583 558 l 1,16,-1
EndSplineSet
EndChar
StartChar: A
Encoding: 65 65 34
Width: 663
VWidth: 1507
Flags: W
HStem: -17 21G<79 110 556.209 581> 232 60<219 445> 707 20G<312 337.5>
Fore
627 74 m 2,0,1
 636 50 636 50 617 23.5 c 128,-1,2
 598 -3 598 -3 564 -17 c 1,3,-1
 467 232 l 1,4,-1
 194 232 l 1,5,6
 170 172 170 172 146 107 c 128,-1,7
 122 42 122 42 98 -17 c 1,8,9
 60 -3 60 -3 43 23.5 c 128,-1,10
 26 50 26 50 35 74 c 2,11,-1
 286 707 l 2,12,13
 294 727 294 727 330 727 c 0,14,15
 345 727 345 727 358 721.5 c 128,-1,16
 371 716 371 716 375 707 c 2,17,-1
 627 74 l 2,0,1
330 586 m 1,18,-1
 219 292 l 1,19,-1
 445 292 l 1,20,-1
 330 586 l 1,18,-1
EndSplineSet
EndChar
StartChar: B
Encoding: 66 66 35
Width: 731
VWidth: 1507
Flags: W
HStem: 0 60<184 546.642> 330 60<184 449.125> 659 58<184 449.748>
VStem: 87 97<60 330 390 659> 531 95<470.156 575.623> 591 95<114.95 282.961>
Fore
626 525 m 0,0,1
 626 485 626 485 604.5 443 c 128,-1,2
 583 401 583 401 541 378 c 1,3,4
 609 359 609 359 647.5 309 c 128,-1,5
 686 259 686 259 686 196 c 0,6,7
 686 157 686 157 672.5 121.5 c 128,-1,8
 659 86 659 86 634 59 c 128,-1,9
 609 32 609 32 572 16 c 128,-1,10
 535 0 535 0 488 0 c 2,11,-1
 136 0 l 2,12,13
 115 0 115 0 101 10 c 128,-1,14
 87 20 87 20 87 33 c 2,15,-1
 87 684 l 2,16,17
 87 699 87 699 101 708 c 128,-1,18
 115 717 115 717 136 717 c 2,19,-1
 428 717 l 2,20,21
 470 717 470 717 506.5 701.5 c 128,-1,22
 543 686 543 686 569 659 c 128,-1,23
 595 632 595 632 610.5 597 c 128,-1,24
 626 562 626 562 626 525 c 0,0,1
184 390 m 1,25,-1
 428 390 l 2,26,27
 449 390 449 390 468 402.5 c 128,-1,28
 487 415 487 415 500.5 433.5 c 128,-1,29
 514 452 514 452 522.5 476 c 128,-1,30
 531 500 531 500 531 525 c 256,31,32
 531 549 531 549 522.5 572 c 128,-1,33
 514 595 514 595 500.5 615 c 128,-1,34
 487 635 487 635 468 647 c 128,-1,35
 449 659 449 659 428 659 c 2,36,-1
 184 659 l 1,37,-1
 184 390 l 1,25,-1
488 60 m 2,38,39
 532 60 532 60 561.5 96.5 c 128,-1,40
 591 133 591 133 591 196 c 256,41,42
 591 259 591 259 561.5 294.5 c 128,-1,43
 532 330 532 330 488 330 c 2,44,-1
 184 330 l 1,45,-1
 184 60 l 1,46,-1
 488 60 l 2,38,39
EndSplineSet
EndChar
StartChar: C
Encoding: 67 67 36
Width: 729
VWidth: 1507
Flags: W
HStem: -9 60<284.253 458.413> 666 61<282.722 434.847>
VStem: 72 97<160.001 228 228 558.514> 576 90<160.001 185 185 216.262>
Fore
169 228 m 2,0,1
 169 191 169 191 184.5 159 c 128,-1,2
 200 127 200 127 227.5 103.5 c 128,-1,3
 255 80 255 80 292 65.5 c 128,-1,4
 329 51 329 51 371 51 c 256,5,6
 413 51 413 51 450.5 65.5 c 128,-1,7
 488 80 488 80 516 103.5 c 128,-1,8
 544 127 544 127 560 159 c 128,-1,9
 576 191 576 191 576 228 c 0,10,11
 576 235 576 235 576 244 c 128,-1,12
 576 253 576 253 574 261 c 1,13,14
 591 261 591 261 608.5 256.5 c 128,-1,15
 626 252 626 252 639.5 243 c 128,-1,16
 653 234 653 234 661 219.5 c 128,-1,17
 669 205 669 205 666 185 c 0,18,19
 657 142 657 142 627.5 105.5 c 128,-1,20
 598 69 598 69 557.5 43.5 c 128,-1,21
 517 18 517 18 469 4.5 c 128,-1,22
 421 -9 421 -9 371 -9 c 0,23,24
 318 -9 318 -9 265.5 7 c 128,-1,25
 213 23 213 23 170 53.5 c 128,-1,26
 127 84 127 84 99.5 128 c 128,-1,27
 72 172 72 172 72 228 c 2,28,-1
 72 491 l 2,29,30
 72 546 72 546 98.5 589.5 c 128,-1,31
 125 633 125 633 168 663 c 128,-1,32
 211 693 211 693 264 710 c 128,-1,33
 317 727 317 727 371 727 c 0,34,35
 419 727 419 727 466.5 714.5 c 128,-1,36
 514 702 514 702 554.5 679 c 128,-1,37
 595 656 595 656 624.5 619.5 c 128,-1,38
 654 583 654 583 666 535 c 0,39,40
 671 514 671 514 663.5 499.5 c 128,-1,41
 656 485 656 485 641.5 476 c 128,-1,42
 627 467 627 467 609 462.5 c 128,-1,43
 591 458 591 458 574 458 c 1,44,45
 576 466 576 466 576 475 c 128,-1,46
 576 484 576 484 576 491 c 0,47,48
 576 528 576 528 560 559.5 c 128,-1,49
 544 591 544 591 516 615 c 128,-1,50
 488 639 488 639 450.5 652.5 c 128,-1,51
 413 666 413 666 371 666 c 256,52,53
 329 666 329 666 292 652.5 c 128,-1,54
 255 639 255 639 227.5 615 c 128,-1,55
 200 591 200 591 184.5 559.5 c 128,-1,56
 169 528 169 528 169 491 c 2,57,-1
 169 228 l 2,0,1
EndSplineSet
EndChar
StartChar: D
Encoding: 68 68 37
Width: 759
VWidth: 1507
Flags: W
HStem: 0 60<184 463.843> 659 58<184 463.843>
VStem: 87 97<60 659> 591 93<169.001 482 482 549.999>
Fore
386 717 m 2,0,1
 439 717 439 717 491.5 701.5 c 128,-1,2
 544 686 544 686 587 656.5 c 128,-1,3
 630 627 630 627 657 582.5 c 128,-1,4
 684 538 684 538 684 482 c 2,5,-1
 684 237 l 2,6,7
 684 182 684 182 658 138.5 c 128,-1,8
 632 95 632 95 589.5 64 c 128,-1,9
 547 33 547 33 493.5 16.5 c 128,-1,10
 440 0 440 0 386 0 c 2,11,-1
 136 0 l 2,12,13
 115 0 115 0 101 10 c 128,-1,14
 87 20 87 20 87 33 c 2,15,-1
 87 684 l 2,16,17
 87 699 87 699 101 708 c 128,-1,18
 115 717 115 717 136 717 c 2,19,-1
 386 717 l 2,0,1
184 659 m 1,20,-1
 184 60 l 1,21,-1
 386 60 l 2,22,23
 428 60 428 60 465 74.5 c 128,-1,24
 502 89 502 89 530 112.5 c 128,-1,25
 558 136 558 136 574.5 168 c 128,-1,26
 591 200 591 200 591 237 c 2,27,-1
 591 482 l 2,28,29
 591 519 591 519 574.5 551 c 128,-1,30
 558 583 558 583 530 606.5 c 128,-1,31
 502 630 502 630 465 644.5 c 128,-1,32
 428 659 428 659 386 659 c 2,33,-1
 184 659 l 1,20,-1
EndSplineSet
EndChar
StartChar: E
Encoding: 69 69 38
Width: 729
VWidth: 1507
Flags: W
HStem: -9 60<284.253 458.413> 330 60<169 453.952> 666 61<282.722 434.847>
VStem: 72 97<160.001 330 390 558.514> 576 90<160.001 185 185 216.262>
Fore
169 390 m 1,0,-1
 466 390 l 1,1,2
 466 330 466 330 393 330 c 2,3,-1
 169 330 l 1,4,-1
 169 228 l 2,5,6
 169 191 169 191 184.5 159 c 128,-1,7
 200 127 200 127 227.5 103.5 c 128,-1,8
 255 80 255 80 292 65.5 c 128,-1,9
 329 51 329 51 371 51 c 256,10,11
 413 51 413 51 450.5 65.5 c 128,-1,12
 488 80 488 80 516 103.5 c 128,-1,13
 544 127 544 127 560 159 c 128,-1,14
 576 191 576 191 576 228 c 0,15,16
 576 235 576 235 576 244 c 128,-1,17
 576 253 576 253 574 261 c 1,18,19
 591 261 591 261 608.5 256.5 c 128,-1,20
 626 252 626 252 639.5 243 c 128,-1,21
 653 234 653 234 661 219.5 c 128,-1,22
 669 205 669 205 666 185 c 0,23,24
 657 142 657 142 627.5 105.5 c 128,-1,25
 598 69 598 69 557.5 43.5 c 128,-1,26
 517 18 517 18 469 4.5 c 128,-1,27
 421 -9 421 -9 371 -9 c 0,28,29
 318 -9 318 -9 265.5 7 c 128,-1,30
 213 23 213 23 170 53.5 c 128,-1,31
 127 84 127 84 99.5 128 c 128,-1,32
 72 172 72 172 72 228 c 2,33,-1
 72 491 l 2,34,35
 72 546 72 546 98.5 589.5 c 128,-1,36
 125 633 125 633 168 663 c 128,-1,37
 211 693 211 693 264 710 c 128,-1,38
 317 727 317 727 371 727 c 0,39,40
 419 727 419 727 466.5 714.5 c 128,-1,41
 514 702 514 702 554.5 679 c 128,-1,42
 595 656 595 656 624.5 619.5 c 128,-1,43
 654 583 654 583 666 535 c 0,44,45
 671 514 671 514 663.5 499.5 c 128,-1,46
 656 485 656 485 641.5 476 c 128,-1,47
 627 467 627 467 609 462.5 c 128,-1,48
 591 458 591 458 574 458 c 1,49,50
 576 466 576 466 576 475 c 128,-1,51
 576 484 576 484 576 491 c 0,52,53
 576 528 576 528 560 559.5 c 128,-1,54
 544 591 544 591 516 615 c 128,-1,55
 488 639 488 639 450.5 652.5 c 128,-1,56
 413 666 413 666 371 666 c 256,57,58
 329 666 329 666 292 652.5 c 128,-1,59
 255 639 255 639 227.5 615 c 128,-1,60
 200 591 200 591 184.5 559.5 c 128,-1,61
 169 528 169 528 169 491 c 2,62,-1
 169 390 l 1,0,-1
EndSplineSet
EndChar
StartChar: F
Encoding: 70 70 39
Width: 729
VWidth: 1507
Flags: W
HStem: -9 21G<72 120.5> 330 60<169 453.952> 666 61<282.722 434.714>
VStem: 72 97<8.78027 330 390 558.514>
Fore
72 491 m 2,0,1
 72 546 72 546 98.5 589.5 c 128,-1,2
 125 633 125 633 168 663 c 128,-1,3
 211 693 211 693 264 710 c 128,-1,4
 317 727 317 727 371 727 c 0,5,6
 419 727 419 727 465.5 714.5 c 128,-1,7
 512 702 512 702 552 679 c 128,-1,8
 592 656 592 656 622.5 619.5 c 128,-1,9
 653 583 653 583 666 535 c 0,10,11
 671 514 671 514 663.5 499.5 c 128,-1,12
 656 485 656 485 641.5 476 c 128,-1,13
 627 467 627 467 609 462.5 c 128,-1,14
 591 458 591 458 574 458 c 1,15,16
 576 466 576 466 576 475 c 128,-1,17
 576 484 576 484 576 491 c 0,18,19
 576 528 576 528 560 559.5 c 128,-1,20
 544 591 544 591 516 615 c 128,-1,21
 488 639 488 639 450.5 652.5 c 128,-1,22
 413 666 413 666 371 666 c 256,23,24
 329 666 329 666 292 652.5 c 128,-1,25
 255 639 255 639 227.5 615 c 128,-1,26
 200 591 200 591 184.5 559.5 c 128,-1,27
 169 528 169 528 169 491 c 2,28,-1
 169 390 l 1,29,-1
 466 390 l 1,30,31
 466 330 466 330 393 330 c 2,32,-1
 169 330 l 1,33,-1
 169 54 l 2,34,35
 169 -9 169 -9 72 -9 c 1,36,-1
 72 491 l 2,0,1
EndSplineSet
EndChar
StartChar: G
Encoding: 71 71 40
Width: 744
VWidth: 1507
Flags: W
HStem: -9 60<284.253 457.747> 330 60<366.048 574> 666 61<282.722 434.847>
VStem: 72 97<160.001 558.514> 574 95<160.001 330>
Fore
669 228 m 1,0,1
 669 172 669 172 642 128 c 128,-1,2
 615 84 615 84 572 53.5 c 128,-1,3
 529 23 529 23 476.5 7 c 128,-1,4
 424 -9 424 -9 371 -9 c 256,5,6
 318 -9 318 -9 265.5 7 c 128,-1,7
 213 23 213 23 170 53.5 c 128,-1,8
 127 84 127 84 99.5 128 c 128,-1,9
 72 172 72 172 72 228 c 2,10,-1
 72 491 l 2,11,12
 72 546 72 546 98.5 589.5 c 128,-1,13
 125 633 125 633 168 663 c 128,-1,14
 211 693 211 693 264 710 c 128,-1,15
 317 727 317 727 371 727 c 0,16,17
 419 727 419 727 466.5 714.5 c 128,-1,18
 514 702 514 702 554.5 679 c 128,-1,19
 595 656 595 656 624.5 619.5 c 128,-1,20
 654 583 654 583 666 535 c 0,21,22
 671 514 671 514 663.5 499.5 c 128,-1,23
 656 485 656 485 641.5 476 c 128,-1,24
 627 467 627 467 609 462.5 c 128,-1,25
 591 458 591 458 574 458 c 1,26,27
 576 466 576 466 576 475 c 128,-1,28
 576 484 576 484 576 491 c 0,29,30
 576 528 576 528 560 559.5 c 128,-1,31
 544 591 544 591 516 615 c 128,-1,32
 488 639 488 639 450.5 652.5 c 128,-1,33
 413 666 413 666 371 666 c 256,34,35
 329 666 329 666 292 652.5 c 128,-1,36
 255 639 255 639 227.5 615 c 128,-1,37
 200 591 200 591 184.5 559.5 c 128,-1,38
 169 528 169 528 169 491 c 2,39,-1
 169 228 l 2,40,41
 169 191 169 191 184.5 159 c 128,-1,42
 200 127 200 127 227.5 103.5 c 128,-1,43
 255 80 255 80 292 65.5 c 128,-1,44
 329 51 329 51 371 51 c 256,45,46
 413 51 413 51 450 65.5 c 128,-1,47
 487 80 487 80 515 103.5 c 128,-1,48
 543 127 543 127 558.5 159 c 128,-1,49
 574 191 574 191 574 228 c 2,50,-1
 574 330 l 1,51,-1
 354 330 l 1,52,53
 354 390 354 390 427 390 c 2,54,-1
 621 390 l 2,55,56
 642 390 642 390 655.5 380.5 c 128,-1,57
 669 371 669 371 669 357 c 2,58,-1
 669 228 l 1,0,1
EndSplineSet
EndChar
StartChar: H
Encoding: 72 72 41
Width: 774
VWidth: 1507
Flags: W
HStem: -9 21G<87 135.5 589 636.5> 330 60<184 589> 707 20G<135.5 184 636.5 684>
VStem: 87 97<8.78027 330 390 708.938> 589 95<8.78027 330 390 708.938>
Fore
684 54 m 2,0,1
 684 -9 684 -9 589 -9 c 1,2,-1
 589 330 l 1,3,-1
 184 330 l 1,4,-1
 184 54 l 2,5,6
 184 -9 184 -9 87 -9 c 1,7,-1
 87 663 l 2,8,9
 87 727 87 727 184 727 c 1,10,-1
 184 390 l 1,11,-1
 589 390 l 1,12,-1
 589 663 l 2,13,14
 589 727 589 727 684 727 c 1,15,-1
 684 54 l 2,0,1
EndSplineSet
EndChar
StartChar: I
Encoding: 73 73 42
Width: 271
VWidth: 1507
Flags: W
HStem: -9 21G<87 135.5> 707 20G<135.5 184>
VStem: 87 97<8.78027 708.938>
Fore
184 54 m 2,0,1
 184 -9 184 -9 87 -9 c 1,2,-1
 87 663 l 2,3,4
 87 727 87 727 184 727 c 1,5,-1
 184 54 l 2,0,1
EndSplineSet
EndChar
StartChar: J
Encoding: 74 74 43
Width: 670
VWidth: 1507
Flags: W
HStem: -9 60<253.577 400.046> 659 58<315.139 500>
VStem: 500 95<160.001 659>
Fore
154 228 m 0,0,1
 154 191 154 191 167.5 159 c 128,-1,2
 181 127 181 127 205 103.5 c 128,-1,3
 229 80 229 80 260 65.5 c 128,-1,4
 291 51 291 51 327 51 c 256,5,6
 363 51 363 51 394 65.5 c 128,-1,7
 425 80 425 80 449 103.5 c 128,-1,8
 473 127 473 127 486.5 159 c 128,-1,9
 500 191 500 191 500 228 c 2,10,-1
 500 659 l 1,11,-1
 377 659 l 2,12,13
 304 659 304 659 304 717 c 1,14,-1
 550 717 l 2,15,16
 570 717 570 717 582.5 708 c 128,-1,17
 595 699 595 699 595 684 c 2,18,-1
 595 228 l 2,19,20
 595 179 595 179 574 136 c 128,-1,21
 553 93 553 93 517 61 c 128,-1,22
 481 29 481 29 432 10 c 128,-1,23
 383 -9 383 -9 327 -9 c 0,24,25
 277 -9 277 -9 232 6 c 128,-1,26
 187 21 187 21 152.5 46.5 c 128,-1,27
 118 72 118 72 94.5 108.5 c 128,-1,28
 71 145 71 145 62 185 c 0,29,30
 54 226 54 226 86.5 243.5 c 128,-1,31
 119 261 119 261 157 261 c 1,32,33
 155 253 155 253 154.5 245 c 128,-1,34
 154 237 154 237 154 228 c 0,0,1
EndSplineSet
EndChar
StartChar: K
Encoding: 75 75 44
Width: 714
VWidth: 1507
Flags: W
HStem: -9 21G<87 135.5 529 576.5> 366 59<336.589 422.03> 707 20G<135.5 184>
VStem: 87 97<8.78027 255.999 372 708.938> 529 95<8.78027 255.999>
Fore
87 663 m 2,0,1
 87 727 87 727 184 727 c 1,2,-1
 184 372 l 1,3,4
 279 463 279 463 375.5 556.5 c 128,-1,5
 472 650 472 650 565 737 c 1,6,7
 615 686 615 686 576 647 c 2,8,-1
 347 428 l 1,9,-1
 336 424 l 1,10,11
 341 425 341 425 346 425 c 128,-1,12
 356 425 l 0,13,14
 411 425 411 425 460 406 c 128,-1,15
 509 387 509 387 545.5 355.5 c 128,-1,16
 582 324 582 324 603 281 c 128,-1,17
 624 238 624 238 624 188 c 2,18,-1
 624 54 l 2,19,20
 624 -9 624 -9 529 -9 c 1,21,-1
 529 188 l 2,22,23
 529 225 529 225 515.5 257 c 128,-1,24
 502 289 502 289 478 313.5 c 128,-1,25
 454 338 454 338 423 352 c 128,-1,26
 392 366 392 366 356 366 c 0,27,28
 321 366 321 366 289.5 352 c 128,-1,29
 258 338 258 338 234.5 313.5 c 128,-1,30
 211 289 211 289 197.5 257 c 128,-1,31
 184 225 184 225 184 188 c 2,32,-1
 184 54 l 2,33,34
 184 -9 184 -9 87 -9 c 1,35,-1
 87 663 l 2,0,1
EndSplineSet
EndChar
StartChar: L
Encoding: 76 76 45
Width: 654
VWidth: 1507
Flags: W
HStem: 0 60<184 612.282> 707 20G<135.5 184>
VStem: 87 97<60 708.938>
Fore
553 60 m 2,0,1
 624 60 624 60 624 0 c 1,2,-1
 136 0 l 2,3,4
 115 0 115 0 101 10 c 128,-1,5
 87 20 87 20 87 33 c 2,6,-1
 87 663 l 2,7,8
 87 727 87 727 184 727 c 1,9,-1
 184 60 l 1,10,-1
 553 60 l 2,0,1
EndSplineSet
EndChar
StartChar: M
Encoding: 77 77 46
Width: 886
VWidth: 1507
Flags: W
HStem: -9 21G<89 136.5 433.5 450 699 747.5> 707 20G<135.5 190.681 692.352 748.5>
VStem: 89 95<8.78027 506> 699 97<8.78027 506>
Fore
89 663 m 2,0,1
 89 727 89 727 182 727 c 1,2,-1
 442 128 l 1,3,-1
 701 727 l 1,4,5
 796 727 796 727 796 663 c 2,6,-1
 796 54 l 2,7,8
 796 -9 796 -9 699 -9 c 1,9,-1
 699 506 l 1,10,-1
 485 12 l 2,11,12
 481 5 481 5 469.5 -2 c 128,-1,13
 458 -9 458 -9 442 -9 c 256,14,15
 425 -9 425 -9 413.5 -2 c 128,-1,16
 402 5 402 5 398 12 c 2,17,-1
 184 506 l 1,18,-1
 184 54 l 2,19,20
 184 -9 184 -9 89 -9 c 1,21,-1
 89 663 l 2,0,1
EndSplineSet
EndChar
StartChar: N
Encoding: 78 78 47
Width: 774
VWidth: 1507
Flags: W
HStem: -9 21G<87 135.5 591.597 645> 707 20G<135.5 198.286>
VStem: 87 97<8.78027 577> 589 95<160 708.938>
Fore
87 663 m 2,0,1
 87 727 87 727 184 727 c 1,2,-1
 589 160 l 1,3,-1
 589 727 l 1,4,5
 684 727 684 727 684 663 c 2,6,-1
 684 54 l 2,7,8
 684 -9 684 -9 606 -9 c 1,9,-1
 184 577 l 1,10,-1
 184 54 l 2,11,12
 184 -9 184 -9 87 -9 c 1,13,-1
 87 663 l 2,0,1
EndSplineSet
EndChar
StartChar: O
Encoding: 79 79 48
Width: 884
VWidth: 1507
Flags: W
HStem: -9 60<334.318 547.332> 666 61<334.318 547.332>
VStem: 59 95<240.114 476.051> 728 96<240.114 476.051>
Fore
59 359 m 256,0,1
 59 436 59 436 88.5 503 c 128,-1,2
 118 570 118 570 170 619.5 c 128,-1,3
 222 669 222 669 291 698 c 128,-1,4
 360 727 360 727 440 727 c 256,5,6
 520 727 520 727 590 698 c 128,-1,7
 660 669 660 669 712 619.5 c 128,-1,8
 764 570 764 570 794 503 c 128,-1,9
 824 436 824 436 824 359 c 256,10,11
 824 282 824 282 794 215 c 128,-1,12
 764 148 764 148 712 98 c 128,-1,13
 660 48 660 48 590 19.5 c 128,-1,14
 520 -9 520 -9 440 -9 c 256,15,16
 360 -9 360 -9 291 19.5 c 128,-1,17
 222 48 222 48 170 98 c 128,-1,18
 118 148 118 148 88.5 215 c 128,-1,19
 59 282 59 282 59 359 c 256,0,1
154 359 m 0,20,21
 154 294 154 294 176.5 238 c 128,-1,22
 199 182 199 182 237.5 140.5 c 128,-1,23
 276 99 276 99 328.5 75 c 128,-1,24
 381 51 381 51 440 51 c 0,25,26
 500 51 500 51 552 75 c 128,-1,27
 604 99 604 99 643.5 140.5 c 128,-1,28
 683 182 683 182 705.5 238 c 128,-1,29
 728 294 728 294 728 359 c 0,30,31
 728 422 728 422 705.5 478.5 c 128,-1,32
 683 535 683 535 643.5 576.5 c 128,-1,33
 604 618 604 618 552 642 c 128,-1,34
 500 666 500 666 440 666 c 0,35,36
 381 666 381 666 328.5 642 c 128,-1,37
 276 618 276 618 237.5 576.5 c 128,-1,38
 199 535 199 535 176.5 478.5 c 128,-1,39
 154 422 154 422 154 359 c 0,20,21
EndSplineSet
EndChar
StartChar: P
Encoding: 80 80 49
Width: 744
VWidth: 1507
Flags: W
HStem: -9 21G<87 135.5> 330 60<184 508.125> 659 58<184 508.748>
VStem: 87 97<8.78027 330 390 659> 589 95<472.614 575.988>
Fore
87 684 m 2,0,1
 87 699 87 699 101 708 c 128,-1,2
 115 717 115 717 136 717 c 2,3,-1
 487 717 l 2,4,5
 528 717 528 717 564 701.5 c 128,-1,6
 600 686 600 686 627 659 c 128,-1,7
 654 632 654 632 669 597 c 128,-1,8
 684 562 684 562 684 525 c 256,9,10
 684 487 684 487 669 451.5 c 128,-1,11
 654 416 654 416 627 389 c 128,-1,12
 600 362 600 362 564 346 c 128,-1,13
 528 330 528 330 487 330 c 2,14,-1
 184 330 l 1,15,-1
 184 54 l 2,16,17
 184 -9 184 -9 87 -9 c 1,18,-1
 87 684 l 2,0,1
487 390 m 2,19,20
 508 390 508 390 527 402.5 c 128,-1,21
 546 415 546 415 559.5 433.5 c 128,-1,22
 573 452 573 452 581 476 c 128,-1,23
 589 500 589 500 589 525 c 256,24,25
 589 549 589 549 581 572 c 128,-1,26
 573 595 573 595 559.5 615 c 128,-1,27
 546 635 546 635 527 647 c 128,-1,28
 508 659 508 659 487 659 c 2,29,-1
 184 659 l 1,30,-1
 184 390 l 1,31,-1
 487 390 l 2,19,20
EndSplineSet
EndChar
StartChar: Q
Encoding: 81 81 50
Width: 884
VWidth: 1507
Flags: W
HStem: -9 60<331.51 548.25 781.875 800.276> 243 60<182.91 386.961> 666 61<334.318 547.332>
VStem: 59 95<304.158 476.051> 728 96<239.277 476.051>
Fore
824 41 m 1,0,1
 824 5 824 5 801 -6.5 c 128,-1,2
 778 -18 778 -18 734 -5 c 0,3,4
 708 3 708 3 685.5 16 c 128,-1,5
 663 29 663 29 644 45 c 1,6,7
 600 20 600 20 548 5.5 c 128,-1,8
 496 -9 496 -9 440 -9 c 0,9,10
 360 -9 360 -9 291 19.5 c 128,-1,11
 222 48 222 48 170 98 c 128,-1,12
 118 148 118 148 88.5 215 c 128,-1,13
 59 282 59 282 59 359 c 256,14,15
 59 436 59 436 88.5 503 c 128,-1,16
 118 570 118 570 170 619.5 c 128,-1,17
 222 669 222 669 291 698 c 128,-1,18
 360 727 360 727 440 727 c 256,19,20
 520 727 520 727 590 698 c 128,-1,21
 660 669 660 669 712 619.5 c 128,-1,22
 764 570 764 570 794 503 c 128,-1,23
 824 436 824 436 824 359 c 0,24,25
 824 279 824 279 792.5 210.5 c 128,-1,26
 761 142 761 142 705 92 c 1,27,28
 733 71 733 71 757.5 57.5 c 128,-1,29
 782 44 782 44 806 44 c 1,30,-1
 824 41 l 1,0,1
154 359 m 0,31,32
 154 339 154 339 155.5 321 c 128,-1,33
 157 303 157 303 161 286 c 1,34,35
 223 303 223 303 280 303 c 0,36,37
 344 303 344 303 408 284 c 128,-1,38
 472 265 472 265 525 234 c 0,39,40
 561 211 561 211 584 193.5 c 128,-1,41
 607 176 607 176 624 160 c 2,42,-1
 638 148 l 1,43,-1
 645 142 l 1,44,45
 684 182 684 182 706 238 c 128,-1,46
 728 294 728 294 728 359 c 0,47,48
 728 422 728 422 705.5 478.5 c 128,-1,49
 683 535 683 535 643.5 576.5 c 128,-1,50
 604 618 604 618 552 642 c 128,-1,51
 500 666 500 666 440 666 c 0,52,53
 381 666 381 666 328.5 642 c 128,-1,54
 276 618 276 618 237.5 576.5 c 128,-1,55
 199 535 199 535 176.5 478.5 c 128,-1,56
 154 422 154 422 154 359 c 0,31,32
440 51 m 0,57,58
 522 51 522 51 589 93 c 1,59,-1
 580 102 l 1,60,-1
 580 101 l 1,61,62
 555 124 555 124 526 145.5 c 128,-1,63
 497 167 497 167 475 182 c 1,64,-1
 476 182 l 1,65,66
 430 211 430 211 379.5 227 c 128,-1,67
 329 243 329 243 280 243 c 0,68,69
 235 243 235 243 182 222 c 1,70,71
 217 145 217 145 285.5 98 c 128,-1,72
 354 51 354 51 440 51 c 0,57,58
EndSplineSet
EndChar
StartChar: R
Encoding: 82 82 51
Width: 761
VWidth: 1507
Flags: W
HStem: -9 21G<87 135.5 591 638.5> 330 60<184 508.125> 659 58<184 508.748>
VStem: 87 97<8.78027 330 390 659> 591 95<8.78027 277.32 493.5 575.988>
Fore
487 390 m 2,0,1
 508 390 508 390 527 402.5 c 128,-1,2
 546 415 546 415 559.5 433.5 c 128,-1,3
 573 452 573 452 581 476 c 128,-1,4
 589 500 589 500 589 525 c 256,5,6
 589 549 589 549 581 572 c 128,-1,7
 573 595 573 595 559.5 615 c 128,-1,8
 546 635 546 635 527 647 c 128,-1,9
 508 659 508 659 487 659 c 2,10,-1
 184 659 l 1,11,-1
 184 390 l 1,12,-1
 487 390 l 2,0,1
184 54 m 2,13,14
 184 -9 184 -9 87 -9 c 1,15,-1
 87 684 l 2,16,17
 87 699 87 699 101 708 c 128,-1,18
 115 717 115 717 136 717 c 2,19,-1
 487 717 l 2,20,21
 528 717 528 717 564 701.5 c 128,-1,22
 600 686 600 686 627 659 c 128,-1,23
 654 632 654 632 669 597 c 128,-1,24
 684 562 684 562 684 525 c 0,25,26
 684 502 684 502 676 478 c 128,-1,27
 668 454 668 454 654.5 431 c 128,-1,28
 641 408 641 408 622.5 389.5 c 128,-1,29
 604 371 604 371 585 357 c 1,30,31
 630 333 630 333 658 288.5 c 128,-1,32
 686 244 686 244 686 196 c 2,33,-1
 686 54 l 2,34,35
 686 -9 686 -9 591 -9 c 1,36,-1
 591 196 l 2,37,38
 591 259 591 259 561 294.5 c 128,-1,39
 531 330 531 330 487 330 c 2,40,-1
 184 330 l 1,41,-1
 184 54 l 2,13,14
EndSplineSet
EndChar
StartChar: S
Encoding: 83 83 52
Width: 714
VWidth: 1507
Flags: W
HStem: -9 60<266.998 441.8> 666 61<271.707 433.424>
VStem: 59 92<160.486 185 185 217.201> 87 97<461.406 558.812> 525 91<485.916 529.824>
Fore
151 228 m 0,0,1
 151 191 151 191 166.5 159.5 c 128,-1,2
 182 128 182 128 210 104 c 128,-1,3
 238 80 238 80 275 65.5 c 128,-1,4
 312 51 312 51 354 51 c 256,5,6
 396 51 396 51 434 65.5 c 128,-1,7
 472 80 472 80 500.5 104 c 128,-1,8
 529 128 529 128 544 159.5 c 128,-1,9
 559 191 559 191 558 225 c 0,10,11
 555 252 555 252 538.5 270 c 128,-1,12
 522 288 522 288 493 301 c 128,-1,13
 464 314 464 314 426.5 323 c 128,-1,14
 389 332 389 332 345 341 c 0,15,16
 283 353 283 353 237 365.5 c 128,-1,17
 191 378 191 378 159 397 c 128,-1,18
 127 416 127 416 109.5 443 c 128,-1,19
 92 470 92 470 87 511 c 0,20,21
 83 553 83 553 101 591.5 c 128,-1,22
 119 630 119 630 153.5 660 c 128,-1,23
 188 690 188 690 239.5 708.5 c 128,-1,24
 291 727 291 727 354 727 c 0,25,26
 467 727 467 727 535 671 c 128,-1,27
 603 615 603 615 616 532 c 1,28,29
 615 499 615 499 585 478.5 c 128,-1,30
 555 458 555 458 523 458 c 1,31,32
 525 466 525 466 525 475 c 128,-1,33
 525 484 525 484 525 491 c 0,34,35
 525 528 525 528 513.5 559.5 c 128,-1,36
 502 591 502 591 480 614.5 c 128,-1,37
 458 638 458 638 426.5 652 c 128,-1,38
 395 666 395 666 354 666 c 256,39,40
 314 666 314 666 281.5 653.5 c 128,-1,41
 249 641 249 641 226 619.5 c 128,-1,42
 203 598 203 598 192 572 c 128,-1,43
 181 546 181 546 184 517 c 0,44,45
 188 464 188 464 232.5 441 c 128,-1,46
 277 418 277 418 363 399 c 0,47,48
 422 389 422 389 474 377 c 128,-1,49
 526 365 526 365 564.5 347 c 128,-1,50
 603 329 603 329 626.5 301 c 128,-1,51
 650 273 650 273 653 229 c 0,52,53
 656 182 656 182 633 139 c 128,-1,54
 610 96 610 96 569 63 c 128,-1,55
 528 30 528 30 472 10.5 c 128,-1,56
 416 -9 416 -9 354 -9 c 0,57,58
 298 -9 298 -9 248.5 6 c 128,-1,59
 199 21 199 21 160 46.5 c 128,-1,60
 121 72 121 72 94.5 108.5 c 128,-1,61
 68 145 68 145 59 185 c 0,62,63
 56 205 56 205 63.5 219.5 c 128,-1,64
 71 234 71 234 84.5 243 c 128,-1,65
 98 252 98 252 116 256.5 c 128,-1,66
 134 261 134 261 152 261 c 1,67,68
 151 253 151 253 151 245 c 128,-1,69
 151 237 151 237 151 228 c 0,0,1
EndSplineSet
EndChar
StartChar: T
Encoding: 84 84 53
Width: 592
VWidth: 1507
Flags: W
HStem: -9 21G<249 296.5> 659 58<8.83374 249 344 581.319>
VStem: 249 95<8.78027 659>
Fore
592 717 m 1,0,1
 592 659 592 659 522 659 c 2,2,-1
 344 659 l 1,3,-1
 344 54 l 2,4,5
 344 -9 344 -9 249 -9 c 1,6,-1
 249 659 l 1,7,-1
 -2 659 l 1,8,9
 -2 717 -2 717 69 717 c 2,10,-1
 592 717 l 1,0,1
EndSplineSet
EndChar
StartChar: U
Encoding: 85 85 54
Width: 774
VWidth: 1507
Flags: W
HStem: -9 60<299.253 472.747> 707 20G<135.5 184 636.5 684>
VStem: 87 97<160.001 708.938> 589 95<160.001 708.938>
Fore
184 228 m 2,0,1
 184 191 184 191 200 159 c 128,-1,2
 216 127 216 127 243 103.5 c 128,-1,3
 270 80 270 80 307 65.5 c 128,-1,4
 344 51 344 51 386 51 c 256,5,6
 428 51 428 51 465 65.5 c 128,-1,7
 502 80 502 80 530 103.5 c 128,-1,8
 558 127 558 127 573.5 159 c 128,-1,9
 589 191 589 191 589 228 c 2,10,-1
 589 663 l 2,11,12
 589 727 589 727 684 727 c 1,13,-1
 684 228 l 2,14,15
 684 172 684 172 657 128 c 128,-1,16
 630 84 630 84 587 53.5 c 128,-1,17
 544 23 544 23 491.5 7 c 128,-1,18
 439 -9 439 -9 386 -9 c 256,19,20
 333 -9 333 -9 280.5 7 c 128,-1,21
 228 23 228 23 185 53.5 c 128,-1,22
 142 84 142 84 114.5 128 c 128,-1,23
 87 172 87 172 87 228 c 2,24,-1
 87 663 l 2,25,26
 87 727 87 727 184 727 c 1,27,-1
 184 228 l 2,0,1
EndSplineSet
EndChar
StartChar: V
Encoding: 86 86 55
Width: 681
VWidth: 1507
Flags: W
HStem: -9 21G<321.5 356.5>
Fore
338 131 m 1,0,1
 392 273 392 273 447 410 c 128,-1,2
 502 547 502 547 555 687 c 0,3,4
 567 713 567 713 598.5 723.5 c 128,-1,5
 630 734 630 734 665 719 c 1,6,-1
 384 11 l 2,7,8
 374 -9 374 -9 339 -9 c 256,9,10
 304 -9 304 -9 295 11 c 2,11,-1
 15 719 l 1,12,13
 50 734 50 734 81.5 723.5 c 128,-1,14
 113 713 113 713 125 687 c 2,15,-1
 338 131 l 1,0,1
EndSplineSet
EndChar
StartChar: W
Encoding: 87 87 56
Width: 991
VWidth: 1507
Flags: W
HStem: -9 21G<312 339.4 646.6 674>
Fore
493 491 m 1,0,-1
 333 -9 l 1,1,2
 291 -9 291 -9 269 4 c 128,-1,3
 247 17 247 17 240 42 c 2,4,-1
 15 722 l 1,5,6
 51 734 51 734 83.5 722.5 c 128,-1,7
 116 711 116 711 124 684 c 2,8,-1
 295 157 l 1,9,-1
 448 638 l 2,10,11
 455 659 455 659 493 659 c 256,12,13
 531 659 531 659 538 638 c 2,14,-1
 690 157 l 1,15,16
 733 289 733 289 775.5 420.5 c 128,-1,17
 818 552 818 552 862 684 c 0,18,19
 871 711 871 711 903 722.5 c 128,-1,20
 935 734 935 734 971 722 c 1,21,-1
 746 42 l 2,22,23
 739 17 739 17 717 4 c 128,-1,24
 695 -9 695 -9 653 -9 c 1,25,-1
 493 491 l 1,0,-1
EndSplineSet
EndChar
StartChar: X
Encoding: 88 88 57
Width: 663
VWidth: 1507
Flags: W
Fore
32 714 m 1,0,1
 62 736 62 736 92 730.5 c 128,-1,2
 122 725 122 725 139 701 c 2,3,-1
 330 436 l 1,4,-1
 523 701 l 2,5,6
 541 725 541 725 570.5 730.5 c 128,-1,7
 600 736 600 736 630 714 c 1,8,-1
 378 369 l 1,9,-1
 645 5 l 1,10,11
 615 -18 615 -18 586.5 -12 c 128,-1,12
 558 -6 558 -6 538 20 c 2,13,-1
 330 303 l 1,14,-1
 124 20 l 2,15,16
 106 -6 106 -6 76.5 -11.5 c 128,-1,17
 47 -17 47 -17 17 5 c 1,18,-1
 282 369 l 1,19,-1
 32 714 l 1,0,1
EndSplineSet
EndChar
StartChar: Y
Encoding: 89 89 58
Width: 633
VWidth: 1507
Flags: W
HStem: -9 21G<268 315.5>
VStem: 268 95<8.78027 369>
Fore
363 54 m 2,0,1
 363 -9 363 -9 268 -9 c 1,2,-1
 268 369 l 1,3,-1
 17 714 l 1,4,5
 47 736 47 736 77 730.5 c 128,-1,6
 107 725 107 725 124 701 c 2,7,-1
 315 436 l 1,8,-1
 508 701 l 2,9,10
 526 725 526 725 555.5 730.5 c 128,-1,11
 585 736 585 736 615 714 c 1,12,-1
 363 369 l 1,13,-1
 363 54 l 2,0,1
EndSplineSet
EndChar
StartChar: Z
Encoding: 90 90 59
Width: 663
VWidth: 1507
Flags: W
HStem: 0 60<143 621.282> 659 58<39.6812 517>
Fore
75 0 m 1,0,1
 51 0 51 0 38.5 18 c 128,-1,2
 26 36 26 36 38 51 c 2,3,-1
 517 659 l 1,4,-1
 99 659 l 2,5,6
 29 659 29 659 29 717 c 1,7,-1
 585 717 l 2,8,9
 609 717 609 717 622 699 c 128,-1,10
 635 681 635 681 623 666 c 2,11,-1
 143 60 l 1,12,-1
 562 60 l 2,13,14
 633 60 633 60 633 0 c 1,15,-1
 75 0 l 1,0,1
EndSplineSet
EndChar
StartChar: bracketleft
Encoding: 91 91 60
Width: 318
VWidth: 1507
Flags: W
HStem: -128 59<181 316.014> -128 871<87 181 87 327 87 87> 683 60<181 315.117>
VStem: 87 94<-69 683>
Fore
87 -128 m 1,0,-1
 87 743 l 1,1,-1
 327 743 l 1,2,3
 327 683 327 683 255 683 c 2,4,-1
 181 683 l 1,5,-1
 181 -69 l 1,6,-1
 255 -69 l 2,7,8
 327 -69 327 -69 327 -128 c 1,9,-1
 87 -128 l 1,0,-1
EndSplineSet
EndChar
StartChar: backslash
Encoding: 92 92 61
Width: 450
VWidth: 1507
Flags: W
VStem: -15 479<-26 742 742 742>
Fore
464 -26 m 1,0,1
 430 -44 430 -44 402.5 -37 c 128,-1,2
 375 -30 375 -30 360 -5 c 2,3,-1
 -15 742 l 1,4,5
 59 779 59 779 89 720 c 2,6,-1
 464 -26 l 1,0,1
EndSplineSet
EndChar
StartChar: asciicircum
Encoding: 94 94 63
Width: 672
VWidth: 1507
Flags: W
HStem: 700 20G<318.5 352>
Fore
291 702 m 2,0,1
 301 720 301 720 336 720 c 0,2,3
 368 717 368 717 378 702 c 1,4,5
 433 580 433 580 488.5 458 c 128,-1,6
 544 336 544 336 598 214 c 1,7,8
 570 199 570 199 538 205 c 128,-1,9
 506 211 506 211 496 232 c 0,10,11
 457 324 457 324 417 413 c 128,-1,12
 377 502 377 502 335 597 c 1,13,14
 294 505 294 505 253.5 414 c 128,-1,15
 213 323 213 323 173 232 c 0,16,17
 161 211 161 211 130 205 c 128,-1,18
 99 199 99 199 72 214 c 1,19,-1
 291 702 l 2,0,1
EndSplineSet
EndChar
StartChar: underscore
Encoding: 95 95 64
Width: 575
VWidth: 1507
Flags: W
HStem: -280 54<0 574>
Fore
0 -280 m 1,0,-1
 0 -226 l 1,1,-1
 574 -226 l 1,2,-1
 574 -280 l 1,3,-1
 0 -280 l 1,0,-1
EndSplineSet
EndChar
StartChar: grave
Encoding: 96 96 65
Width: 355
VWidth: 1507
Flags: W
HStem: 558 161<62 286 224.5 286>
Fore
286 558 m 1,0,1
 247 558 247 558 224.5 563 c 128,-1,2
 202 568 202 568 187 583 c 2,3,-1
 62 719 l 1,4,-1
 115 719 l 2,5,6
 181 719 181 719 199 690 c 2,7,-1
 286 558 l 1,0,1
EndSplineSet
EndChar
StartChar: a
Encoding: 97 97 66
Width: 587
VWidth: 1507
Flags: W
HStem: -9 56<201.235 339.71> 282 54<201.872 354.687> 467 55<212.276 314.316>
VStem: 57 91<98.6379 229.344> 408 89<-9 23 98.3585 229.173 303 374.75>
Fore
277 336 m 0,0,1
 351 336 351 336 408 303 c 1,2,-1
 408 350 l 2,3,4
 408 372 408 372 397.5 394 c 128,-1,5
 387 416 387 416 370 432 c 128,-1,6
 353 448 353 448 328.5 457.5 c 128,-1,7
 304 467 304 467 277 467 c 0,8,9
 237 467 237 467 197.5 434.5 c 128,-1,10
 158 402 158 402 134 354 c 1,11,12
 107 375 107 375 96.5 403 c 128,-1,13
 86 431 86 431 99 449 c 0,14,15
 130 482 130 482 177.5 502 c 128,-1,16
 225 522 225 522 277 522 c 0,17,18
 317 522 317 522 356 510.5 c 128,-1,19
 395 499 395 499 426.5 476.5 c 128,-1,20
 458 454 458 454 477.5 422 c 128,-1,21
 497 390 497 390 497 350 c 2,22,-1
 497 48 l 2,23,24
 497 -9 497 -9 408 -9 c 1,25,-1
 408 23 l 1,26,27
 381 8 381 8 348 -0.5 c 128,-1,28
 315 -9 315 -9 277 -9 c 0,29,30
 232 -9 232 -9 191.5 4.5 c 128,-1,31
 151 18 151 18 121.5 41.5 c 128,-1,32
 92 65 92 65 74.5 96 c 128,-1,33
 57 127 57 127 57 163 c 256,34,35
 57 199 57 199 74.5 230.5 c 128,-1,36
 92 262 92 262 121.5 285.5 c 128,-1,37
 151 309 151 309 191.5 322.5 c 128,-1,38
 232 336 232 336 277 336 c 0,0,1
277 47 m 0,39,40
 335 47 335 47 371.5 81.5 c 128,-1,41
 408 116 408 116 408 163 c 0,42,43
 408 211 408 211 371.5 246.5 c 128,-1,44
 335 282 335 282 277 282 c 0,45,46
 222 282 222 282 185 246.5 c 128,-1,47
 148 211 148 211 148 163 c 0,48,49
 148 116 148 116 185 81.5 c 128,-1,50
 222 47 222 47 277 47 c 0,39,40
EndSplineSet
Substitution2: "Single Substitution lookup 22 subtable" uni0E38
Substitution2: "Single Substitution lookup 22 subtable" uni0E38
EndChar
StartChar: b
Encoding: 98 98 67
Width: 602
VWidth: 1507
Flags: W
HStem: -9 56<231.334 385.634> 467 55<232.392 384.987> 705 20G<132.5 178>
VStem: 87 91<98.4135 414.283 488 709.845> 439 89<98.9424 414.283>
Fore
178 164 m 2,0,1
 178 116 178 116 215 81.5 c 128,-1,2
 252 47 252 47 307 47 c 0,3,4
 365 47 365 47 402 81.5 c 128,-1,5
 439 116 439 116 439 164 c 2,6,-1
 439 350 l 2,7,8
 439 396 439 396 402 431.5 c 128,-1,9
 365 467 365 467 307 467 c 0,10,11
 252 467 252 467 215 431.5 c 128,-1,12
 178 396 178 396 178 350 c 2,13,-1
 178 164 l 2,0,1
178 488 m 1,14,15
 235 522 235 522 307 522 c 0,16,17
 354 522 354 522 394 508 c 128,-1,18
 434 494 434 494 463.5 471.5 c 128,-1,19
 493 449 493 449 510.5 417.5 c 128,-1,20
 528 386 528 386 528 350 c 2,21,-1
 528 164 l 2,22,23
 528 128 528 128 510.5 97 c 128,-1,24
 493 66 493 66 463.5 42 c 128,-1,25
 434 18 434 18 394 4.5 c 128,-1,26
 354 -9 354 -9 307 -9 c 0,27,28
 231 -9 231 -9 175 26 c 1,29,30
 169 9 169 9 149.5 0 c 128,-1,31
 130 -9 130 -9 87 -9 c 1,32,-1
 87 668 l 2,33,34
 87 725 87 725 178 725 c 1,35,-1
 178 488 l 1,14,15
EndSplineSet
Substitution2: "Single Substitution lookup 22 subtable" uni0E39
Substitution2: "Single Substitution lookup 22 subtable" uni0E39
EndChar
StartChar: c
Encoding: 99 99 68
Width: 548
VWidth: 1507
Flags: W
HStem: -9 56<216.235 346.394> 467 55<216.872 346.394>
VStem: 72 424.5<163 386.5 163 163> 72 91<98.9172 413.996>
Fore
292 522 m 0,0,1
 365 522 365 522 419 492.5 c 128,-1,2
 473 463 473 463 496 415 c 0,3,4
 502 399 502 399 496.5 386.5 c 128,-1,5
 491 374 491 374 479 365 c 128,-1,6
 467 356 467 356 451.5 350.5 c 128,-1,7
 436 345 436 345 424 345 c 1,8,9
 424 369 424 369 414 391 c 128,-1,10
 404 413 404 413 386.5 430.5 c 128,-1,11
 369 448 369 448 345 457.5 c 128,-1,12
 321 467 321 467 292 467 c 0,13,14
 237 467 237 467 200 431.5 c 128,-1,15
 163 396 163 396 163 348 c 2,16,-1
 163 163 l 2,17,18
 163 116 163 116 200 81.5 c 128,-1,19
 237 47 237 47 292 47 c 0,20,21
 321 47 321 47 345 56.5 c 128,-1,22
 369 66 369 66 386.5 82.5 c 128,-1,23
 404 99 404 99 414 121 c 128,-1,24
 424 143 424 143 424 167 c 1,25,26
 436 167 436 167 451.5 162 c 128,-1,27
 467 157 467 157 479 148 c 128,-1,28
 491 139 491 139 496.5 126 c 128,-1,29
 502 113 502 113 496 98 c 0,30,31
 473 50 473 50 419 20.5 c 128,-1,32
 365 -9 365 -9 292 -9 c 0,33,34
 247 -9 247 -9 206.5 4.5 c 128,-1,35
 166 18 166 18 136.5 41.5 c 128,-1,36
 107 65 107 65 89.5 96 c 128,-1,37
 72 127 72 127 72 163 c 2,38,-1
 72 348 l 2,39,40
 72 384 72 384 89.5 416 c 128,-1,41
 107 448 107 448 136.5 471 c 128,-1,42
 166 494 166 494 206.5 508 c 128,-1,43
 247 522 247 522 292 522 c 0,0,1
EndSplineSet
Substitution2: "Single Substitution lookup 22 subtable" uni0E3A
Substitution2: "Single Substitution lookup 22 subtable" uni0E3A
EndChar
StartChar: d
Encoding: 100 100 69
Width: 602
VWidth: 1507
Flags: W
HStem: -9 56<216.235 354.869> 467 55<216.872 369.998> 705 20G<468 512>
VStem: 72 91<98.9172 348 348 413.996> 424 88<5.25 23 98.3585 414.173 488 709.845>
Fore
424 348 m 2,0,1
 424 396 424 396 387 431.5 c 128,-1,2
 350 467 350 467 292 467 c 0,3,4
 237 467 237 467 200 431.5 c 128,-1,5
 163 396 163 396 163 348 c 2,6,-1
 163 163 l 2,7,8
 163 116 163 116 200 81.5 c 128,-1,9
 237 47 237 47 292 47 c 0,10,11
 350 47 350 47 387 81.5 c 128,-1,12
 424 116 424 116 424 163 c 2,13,-1
 424 348 l 2,0,1
292 522 m 0,14,15
 366 522 366 522 424 488 c 1,16,-1
 424 668 l 2,17,18
 424 725 424 725 512 725 c 1,19,-1
 512 48 l 2,20,21
 512 -9 512 -9 424 -9 c 1,22,-1
 424 23 l 1,23,24
 396 8 396 8 363 -0.5 c 128,-1,25
 330 -9 330 -9 292 -9 c 0,26,27
 247 -9 247 -9 206.5 4.5 c 128,-1,28
 166 18 166 18 136.5 41.5 c 128,-1,29
 107 65 107 65 89.5 96 c 128,-1,30
 72 127 72 127 72 163 c 2,31,-1
 72 348 l 2,32,33
 72 384 72 384 89.5 416 c 128,-1,34
 107 448 107 448 136.5 471 c 128,-1,35
 166 494 166 494 206.5 508 c 128,-1,36
 247 522 247 522 292 522 c 0,14,15
EndSplineSet
EndChar
StartChar: e
Encoding: 101 101 70
Width: 587
VWidth: 1507
Flags: W
HStem: -9 56<216.235 346.394> 265 55<163 424> 467 55<216.872 369.987>
VStem: 72 91<98.9172 163 163 265 320 413.996> 424 88<320 413.996>
Fore
163 163 m 2,0,1
 163 116 163 116 200 81.5 c 128,-1,2
 237 47 237 47 292 47 c 0,3,4
 321 47 321 47 345 56.5 c 128,-1,5
 369 66 369 66 386.5 82.5 c 128,-1,6
 404 99 404 99 414 121 c 128,-1,7
 424 143 424 143 424 167 c 1,8,9
 436 167 436 167 451.5 162 c 128,-1,10
 467 157 467 157 479 148 c 128,-1,11
 491 139 491 139 496.5 126 c 128,-1,12
 502 113 502 113 496 98 c 0,13,14
 473 50 473 50 419 20.5 c 128,-1,15
 365 -9 365 -9 292 -9 c 0,16,17
 247 -9 247 -9 206.5 4.5 c 128,-1,18
 166 18 166 18 136.5 41.5 c 128,-1,19
 107 65 107 65 89.5 96 c 128,-1,20
 72 127 72 127 72 163 c 2,21,-1
 72 348 l 2,22,23
 72 384 72 384 89.5 416 c 128,-1,24
 107 448 107 448 136.5 471 c 128,-1,25
 166 494 166 494 206.5 508 c 128,-1,26
 247 522 247 522 292 522 c 0,27,28
 339 522 339 522 379 508 c 128,-1,29
 419 494 419 494 448.5 471 c 128,-1,30
 478 448 478 448 495 416 c 128,-1,31
 512 384 512 384 512 348 c 2,32,-1
 512 294 l 2,33,34
 512 282 512 282 498 273.5 c 128,-1,35
 484 265 484 265 467 265 c 2,36,-1
 163 265 l 1,37,-1
 163 163 l 2,0,1
163 320 m 1,38,-1
 424 320 l 1,39,-1
 424 348 l 2,40,41
 424 396 424 396 387 431.5 c 128,-1,42
 350 467 350 467 292 467 c 0,43,44
 237 467 237 467 200 431.5 c 128,-1,45
 163 396 163 396 163 348 c 2,46,-1
 163 320 l 1,38,-1
EndSplineSet
EndChar
StartChar: f
Encoding: 102 102 71
Width: 331
VWidth: 1507
Flags: W
HStem: -9 21G<99 143.5> 458 54<21.5625 99 188 273.578> 669 56<209.858 299.703>
VStem: 99 89<6.15454 458 512 644.247>
Fore
99 458 m 1,0,-1
 12 458 l 1,1,2
 12 512 12 512 80 512 c 2,3,-1
 99 512 l 1,4,-1
 99 586 l 2,5,6
 99 644 99 644 143.5 684.5 c 128,-1,7
 188 725 188 725 265 725 c 0,8,9
 303 725 303 725 317.5 701.5 c 128,-1,10
 332 678 332 678 318 653 c 1,11,12
 280 669 280 669 265 669 c 0,13,14
 228 669 228 669 208 645 c 128,-1,15
 188 621 188 621 188 586 c 2,16,-1
 188 512 l 1,17,-1
 283 512 l 1,18,19
 283 458 283 458 216 458 c 2,20,-1
 188 458 l 1,21,-1
 188 48 l 2,22,23
 188 -9 188 -9 99 -9 c 1,24,-1
 99 458 l 1,0,-1
EndSplineSet
EndChar
StartChar: g
Encoding: 103 103 72
Width: 602
VWidth: 1507
Flags: W
HStem: -213 56<218.483 369.987> -9 56<216.235 354.869> 467 55<216.872 352.761>
VStem: 72 91<98.9172 413.996> 424 88<-104.105 23 98.3585 414.173>
Fore
424 348 m 2,0,1
 424 396 424 396 387 431.5 c 128,-1,2
 350 467 350 467 292 467 c 0,3,4
 237 467 237 467 200 431.5 c 128,-1,5
 163 396 163 396 163 348 c 2,6,-1
 163 163 l 2,7,8
 163 116 163 116 200 81.5 c 128,-1,9
 237 47 237 47 292 47 c 0,10,11
 350 47 350 47 387 81.5 c 128,-1,12
 424 116 424 116 424 163 c 2,13,-1
 424 348 l 2,0,1
424 23 m 1,14,15
 396 8 396 8 363 -0.5 c 128,-1,16
 330 -9 330 -9 292 -9 c 0,17,18
 247 -9 247 -9 206.5 4.5 c 128,-1,19
 166 18 166 18 136.5 41.5 c 128,-1,20
 107 65 107 65 89.5 96 c 128,-1,21
 72 127 72 127 72 163 c 2,22,-1
 72 348 l 2,23,24
 72 384 72 384 89.5 416 c 128,-1,25
 107 448 107 448 136.5 471 c 128,-1,26
 166 494 166 494 206.5 508 c 128,-1,27
 247 522 247 522 292 522 c 0,28,29
 330 522 330 522 364 512.5 c 128,-1,30
 398 503 398 503 425 487 c 1,31,32
 431 503 431 503 450.5 512.5 c 128,-1,33
 470 522 470 522 512 522 c 1,34,-1
 512 -41 l 2,35,36
 512 -77 512 -77 495 -108 c 128,-1,37
 478 -139 478 -139 448.5 -162 c 128,-1,38
 419 -185 419 -185 379 -199 c 128,-1,39
 339 -213 339 -213 292 -213 c 0,40,41
 220 -213 220 -213 166 -182.5 c 128,-1,42
 112 -152 112 -152 89 -104 c 0,43,44
 81 -90 81 -90 87 -77.5 c 128,-1,45
 93 -65 93 -65 106 -56 c 128,-1,46
 119 -47 119 -47 134 -41.5 c 128,-1,47
 149 -36 149 -36 163 -36 c 1,48,49
 163 -84 163 -84 200 -120.5 c 128,-1,50
 237 -157 237 -157 292 -157 c 0,51,52
 350 -157 350 -157 387 -121.5 c 128,-1,53
 424 -86 424 -86 424 -41 c 2,54,-1
 424 23 l 1,14,15
EndSplineSet
EndChar
StartChar: h
Encoding: 104 104 73
Width: 617
VWidth: 1507
Flags: W
HStem: -9 21G<87 132.5 439 483.5> 467 55<232.392 384.987> 705 20G<132.5 178>
VStem: 87 91<6.15454 414.173 488 709.845> 439 89<6.15454 413.996>
Fore
87 668 m 2,0,1
 87 725 87 725 178 725 c 1,2,-1
 178 488 l 1,3,4
 235 522 235 522 307 522 c 0,5,6
 354 522 354 522 394 508 c 128,-1,7
 434 494 434 494 463.5 471 c 128,-1,8
 493 448 493 448 510.5 416 c 128,-1,9
 528 384 528 384 528 348 c 2,10,-1
 528 48 l 2,11,12
 528 -9 528 -9 439 -9 c 1,13,-1
 439 348 l 2,14,15
 439 396 439 396 402 431.5 c 128,-1,16
 365 467 365 467 307 467 c 0,17,18
 252 467 252 467 215 431.5 c 128,-1,19
 178 396 178 396 178 348 c 2,20,-1
 178 48 l 2,21,22
 178 -9 178 -9 87 -9 c 1,23,-1
 87 668 l 2,0,1
EndSplineSet
EndChar
StartChar: i
Encoding: 105 105 74
Width: 265
VWidth: 1507
Flags: W
HStem: -9 21G<87 131.5> 502 20G<131.5 176> 597 107<83.1122 180.919>
VStem: 63 137<613.501 687.499> 87 89<6.15454 507.111>
Fore
87 466 m 2,0,1
 87 522 87 522 176 522 c 1,2,-1
 176 48 l 2,3,4
 176 -9 176 -9 87 -9 c 1,5,-1
 87 466 l 2,0,1
63 651 m 0,6,7
 63 672 63 672 82.5 688 c 128,-1,8
 102 704 102 704 133 704 c 256,9,10
 163 704 163 704 181.5 688 c 128,-1,11
 200 672 200 672 200 651 c 0,12,13
 200 629 200 629 181.5 613 c 128,-1,14
 163 597 163 597 133 597 c 256,15,16
 102 597 102 597 82.5 613 c 128,-1,17
 63 629 63 629 63 651 c 0,6,7
EndSplineSet
EndChar
StartChar: j
Encoding: 106 106 75
Width: 265
VWidth: 1507
Flags: W
HStem: -213 56<-23.1143 65.601> 502 20G<131.5 176> 597 107<83.1122 180.919>
VStem: 63 137<613.501 687.499> 87 89<-132.247 507.111>
Fore
176 -74 m 2,0,1
 176 -131 176 -131 131.5 -172 c 128,-1,2
 87 -213 87 -213 11 -213 c 0,3,4
 -27 -213 -27 -213 -40.5 -188.5 c 128,-1,5
 -54 -164 -54 -164 -42 -139 c 1,6,7
 -6 -157 -6 -157 11 -157 c 0,8,9
 48 -157 48 -157 67.5 -133 c 128,-1,10
 87 -109 87 -109 87 -74 c 2,11,-1
 87 466 l 2,12,13
 87 522 87 522 176 522 c 1,14,-1
 176 -74 l 2,0,1
63 651 m 0,15,16
 63 672 63 672 82.5 688 c 128,-1,17
 102 704 102 704 133 704 c 256,18,19
 163 704 163 704 181.5 688 c 128,-1,20
 200 672 200 672 200 651 c 0,21,22
 200 629 200 629 181.5 613 c 128,-1,23
 163 597 163 597 133 597 c 256,24,25
 102 597 102 597 82.5 613 c 128,-1,26
 63 629 63 629 63 651 c 0,15,16
EndSplineSet
EndChar
StartChar: k
Encoding: 107 107 76
Width: 602
VWidth: 1507
Flags: W
HStem: -9 21G<87 132.5 439 483.5> 705 20G<132.5 178>
VStem: 87 91<6.15454 258.88 336 709.845> 439 89<6.15454 254.577>
Fore
87 668 m 2,0,1
 87 725 87 725 178 725 c 1,2,-1
 178 336 l 1,3,-1
 484 531 l 1,4,5
 519 470 519 470 467 440 c 2,6,-1
 350 365 l 1,7,-1
 335 365 l 1,8,9
 375 360 375 360 410.5 346 c 128,-1,10
 446 332 446 332 472.5 308.5 c 128,-1,11
 499 285 499 285 513.5 255.5 c 128,-1,12
 528 226 528 226 528 193 c 2,13,-1
 528 48 l 2,14,15
 528 -9 528 -9 439 -9 c 1,16,-1
 439 193 l 2,17,18
 439 241 439 241 402 276 c 128,-1,19
 365 311 365 311 307 311 c 0,20,21
 252 311 252 311 215 276 c 128,-1,22
 178 241 178 241 178 193 c 2,23,-1
 178 48 l 2,24,25
 178 -9 178 -9 87 -9 c 1,26,-1
 87 668 l 2,0,1
EndSplineSet
EndChar
StartChar: l
Encoding: 108 108 77
Width: 319
VWidth: 1507
Flags: W
HStem: -9 56<199.321 287.8> 705 20G<132.5 178>
VStem: 87 91<71.7527 709.845>
Fore
253 -9 m 0,0,1
 176 -9 176 -9 131.5 31.5 c 128,-1,2
 87 72 87 72 87 130 c 2,3,-1
 87 668 l 2,4,5
 87 725 87 725 178 725 c 1,6,-1
 178 130 l 2,7,8
 178 95 178 95 197 71 c 128,-1,9
 216 47 216 47 253 47 c 0,10,11
 270 47 270 47 306 65 c 1,12,13
 320 39 320 39 305.5 15 c 128,-1,14
 291 -9 291 -9 253 -9 c 0,0,1
EndSplineSet
EndChar
StartChar: m
Encoding: 109 109 78
Width: 816
VWidth: 1507
Flags: W
HStem: -9 21G<89 133.5 362 407 636 680.5> 467 55<207.62 320.024 482.499 594.075>
VStem: 89 89<6.15454 437.814 503 522> 362 90<6.15454 437.015> 636 89<6.15454 383 383 436.187>
CounterMasks: 1 38
Fore
362 383 m 2,0,1
 362 418 362 418 334.5 442.5 c 128,-1,2
 307 467 307 467 270 467 c 0,3,4
 231 467 231 467 204.5 442.5 c 128,-1,5
 178 418 178 418 178 383 c 2,6,-1
 178 48 l 2,7,8
 178 -9 178 -9 89 -9 c 1,9,-1
 89 466 l 2,10,11
 89 522 89 522 178 522 c 1,12,-1
 178 503 l 1,13,14
 216 522 216 522 270 522 c 0,15,16
 309 522 309 522 343.5 509 c 128,-1,17
 378 496 378 496 404 473 c 1,18,19
 457 522 457 522 543 522 c 0,20,21
 580 522 580 522 614 511 c 128,-1,22
 648 500 648 500 672 481.5 c 128,-1,23
 696 463 696 463 710.5 437 c 128,-1,24
 725 411 725 411 725 383 c 2,25,-1
 725 48 l 2,26,27
 725 -9 725 -9 636 -9 c 1,28,-1
 636 383 l 2,29,30
 636 418 636 418 609 442.5 c 128,-1,31
 582 467 582 467 543 467 c 0,32,33
 505 467 505 467 478.5 442.5 c 128,-1,34
 452 418 452 418 452 383 c 2,35,-1
 452 48 l 2,36,37
 452 -9 452 -9 362 -9 c 1,38,-1
 362 383 l 2,0,1
EndSplineSet
EndChar
StartChar: n
Encoding: 110 110 79
Width: 617
VWidth: 1507
Flags: W
HStem: -9 21G<87 132.5 439 483.5> 467 55<232.392 384.987>
VStem: 87 91<6.15454 414.173 488 507.111> 439 89<6.15454 413.996>
Fore
87 466 m 2,0,1
 87 522 87 522 178 522 c 1,2,-1
 178 488 l 1,3,4
 235 522 235 522 307 522 c 0,5,6
 354 522 354 522 394 508 c 128,-1,7
 434 494 434 494 463.5 471 c 128,-1,8
 493 448 493 448 510.5 416 c 128,-1,9
 528 384 528 384 528 348 c 2,10,-1
 528 48 l 2,11,12
 528 -9 528 -9 439 -9 c 1,13,-1
 439 348 l 2,14,15
 439 396 439 396 402 431.5 c 128,-1,16
 365 467 365 467 307 467 c 0,17,18
 252 467 252 467 215 431.5 c 128,-1,19
 178 396 178 396 178 348 c 2,20,-1
 178 48 l 2,21,22
 178 -9 178 -9 87 -9 c 1,23,-1
 87 466 l 2,0,1
EndSplineSet
EndChar
StartChar: o
Encoding: 111 111 80
Width: 679
VWidth: 1507
Flags: W
HStem: -9 56<257.79 416.712> 467 55<259.43 415.882>
VStem: 59 89<167.627 345.89> 529 91<167.627 345.89>
Fore
59 256 m 0,0,1
 59 311 59 311 80.5 359 c 128,-1,2
 102 407 102 407 140 443 c 128,-1,3
 178 479 178 479 228.5 500.5 c 128,-1,4
 279 522 279 522 338 522 c 256,5,6
 396 522 396 522 447.5 500.5 c 128,-1,7
 499 479 499 479 537.5 443 c 128,-1,8
 576 407 576 407 598 359 c 128,-1,9
 620 311 620 311 620 256 c 0,10,11
 620 200 620 200 598 152 c 128,-1,12
 576 104 576 104 537.5 68 c 128,-1,13
 499 32 499 32 447.5 11.5 c 128,-1,14
 396 -9 396 -9 338 -9 c 256,15,16
 279 -9 279 -9 228.5 11.5 c 128,-1,17
 178 32 178 32 140 68 c 128,-1,18
 102 104 102 104 80.5 152 c 128,-1,19
 59 200 59 200 59 256 c 0,0,1
148 256 m 256,20,21
 148 213 148 213 163 174.5 c 128,-1,22
 178 136 178 136 203.5 107 c 128,-1,23
 229 78 229 78 263.5 62.5 c 128,-1,24
 298 47 298 47 338 47 c 256,25,26
 377 47 377 47 411.5 62.5 c 128,-1,27
 446 78 446 78 472.5 107 c 128,-1,28
 499 136 499 136 514 174.5 c 128,-1,29
 529 213 529 213 529 256 c 256,30,31
 529 300 529 300 514 338.5 c 128,-1,32
 499 377 499 377 472.5 405.5 c 128,-1,33
 446 434 446 434 411.5 450.5 c 128,-1,34
 377 467 377 467 338 467 c 256,35,36
 298 467 298 467 263.5 450.5 c 128,-1,37
 229 434 229 434 203.5 405.5 c 128,-1,38
 178 377 178 377 163 338.5 c 128,-1,39
 148 300 148 300 148 256 c 256,20,21
EndSplineSet
EndChar
StartChar: p
Encoding: 112 112 81
Width: 602
VWidth: 1507
Flags: W
HStem: -213 21G<87 132.5> -9 56<246.107 385.634> 467 55<232.392 384.987>
VStem: 87 91<-197.58 23 98.3585 414.173 488 507.111> 439 89<98.9172 413.996>
Fore
178 163 m 2,0,1
 178 116 178 116 215 81.5 c 128,-1,2
 252 47 252 47 307 47 c 0,3,4
 365 47 365 47 402 81.5 c 128,-1,5
 439 116 439 116 439 163 c 2,6,-1
 439 348 l 2,7,8
 439 396 439 396 402 431.5 c 128,-1,9
 365 467 365 467 307 467 c 0,10,11
 252 467 252 467 215 431.5 c 128,-1,12
 178 396 178 396 178 348 c 2,13,-1
 178 163 l 2,0,1
87 466 m 2,14,15
 87 522 87 522 178 522 c 1,16,-1
 178 488 l 1,17,18
 235 522 235 522 307 522 c 0,19,20
 354 522 354 522 394 508 c 128,-1,21
 434 494 434 494 463.5 471 c 128,-1,22
 493 448 493 448 510.5 416 c 128,-1,23
 528 384 528 384 528 348 c 2,24,-1
 528 163 l 2,25,26
 528 127 528 127 510.5 96 c 128,-1,27
 493 65 493 65 463.5 41.5 c 128,-1,28
 434 18 434 18 394 4.5 c 128,-1,29
 354 -9 354 -9 307 -9 c 0,30,31
 270 -9 270 -9 237.5 -0.5 c 128,-1,32
 205 8 205 8 178 23 c 1,33,-1
 178 -155 l 2,34,35
 178 -213 178 -213 87 -213 c 1,36,-1
 87 466 l 2,14,15
EndSplineSet
EndChar
StartChar: q
Encoding: 113 113 82
Width: 602
VWidth: 1507
Flags: W
HStem: -213 21G<424 468> -9 56<216.235 354.869> 467 55<216.872 352.761>
VStem: 72 91<98.9172 413.996> 424 88<-198.5 23 98.3585 414.173>
Fore
424 348 m 2,0,1
 424 396 424 396 387 431.5 c 128,-1,2
 350 467 350 467 292 467 c 0,3,4
 237 467 237 467 200 431.5 c 128,-1,5
 163 396 163 396 163 348 c 2,6,-1
 163 163 l 2,7,8
 163 116 163 116 200 81.5 c 128,-1,9
 237 47 237 47 292 47 c 0,10,11
 350 47 350 47 387 81.5 c 128,-1,12
 424 116 424 116 424 163 c 2,13,-1
 424 348 l 2,0,1
424 23 m 1,14,15
 396 8 396 8 363 -0.5 c 128,-1,16
 330 -9 330 -9 292 -9 c 0,17,18
 247 -9 247 -9 206.5 4.5 c 128,-1,19
 166 18 166 18 136.5 41.5 c 128,-1,20
 107 65 107 65 89.5 96 c 128,-1,21
 72 127 72 127 72 163 c 2,22,-1
 72 348 l 2,23,24
 72 384 72 384 89.5 416 c 128,-1,25
 107 448 107 448 136.5 471 c 128,-1,26
 166 494 166 494 206.5 508 c 128,-1,27
 247 522 247 522 292 522 c 0,28,29
 330 522 330 522 364 512.5 c 128,-1,30
 398 503 398 503 425 487 c 1,31,32
 431 503 431 503 450.5 512.5 c 128,-1,33
 470 522 470 522 512 522 c 1,34,-1
 512 -155 l 2,35,36
 512 -213 512 -213 424 -213 c 1,37,-1
 424 23 l 1,14,15
EndSplineSet
EndChar
StartChar: r
Encoding: 114 114 83
Width: 408
VWidth: 1507
Flags: W
HStem: -9 21G<87 132.5> 467 55<236.239 338.531>
VStem: 87 91<6.15454 412.641 487 507.111>
Fore
380 512 m 1,0,1
 377 487 377 487 356.5 476.5 c 128,-1,2
 336 466 336 466 306 467 c 0,3,4
 252 464 252 464 215 429.5 c 128,-1,5
 178 395 178 395 178 348 c 2,6,-1
 178 48 l 2,7,8
 178 -9 178 -9 87 -9 c 1,9,-1
 87 466 l 2,10,11
 87 522 87 522 178 522 c 1,12,-1
 178 487 l 1,13,14
 234 522 234 522 307 522 c 0,15,16
 324 522 324 522 339 520.5 c 128,-1,17
 354 519 354 519 366 515 c 2,18,-1
 380 512 l 1,0,1
EndSplineSet
EndChar
StartChar: s
Encoding: 115 115 84
Width: 526
VWidth: 1507
Flags: W
HStem: -9 56<224.024 315.369> 467 55<192.015 316.483>
VStem: 45 436<130 133.5 160 161 134 163 134 134> 392 89<132.007 160 160 197.957>
Fore
457 377 m 0,0,1
 461 347 461 347 434.5 331 c 128,-1,2
 408 315 408 315 368 321 c 1,3,4
 374 348 374 348 368.5 374.5 c 128,-1,5
 363 401 363 401 348 421.5 c 128,-1,6
 333 442 333 442 310.5 454.5 c 128,-1,7
 288 467 288 467 261 467 c 0,8,9
 211 467 211 467 181 435.5 c 128,-1,10
 151 404 151 404 154 368 c 256,11,12
 157 332 157 332 184 317.5 c 128,-1,13
 211 303 211 303 268 291 c 0,14,15
 315 282 315 282 352.5 273.5 c 128,-1,16
 390 265 390 265 418 251.5 c 128,-1,17
 446 238 446 238 462 217 c 128,-1,18
 478 196 478 196 481 163 c 256,19,20
 484 130 484 130 466.5 99 c 128,-1,21
 449 68 449 68 419 44 c 128,-1,22
 389 20 389 20 347.5 5.5 c 128,-1,23
 306 -9 306 -9 261 -9 c 0,24,25
 220 -9 220 -9 184 1.5 c 128,-1,26
 148 12 148 12 118.5 31.5 c 128,-1,27
 89 51 89 51 69.5 77.5 c 128,-1,28
 50 104 50 104 45 134 c 0,29,30
 41 161 41 161 62.5 177.5 c 128,-1,31
 84 194 84 194 133 190 c 1,32,33
 125 160 125 160 134 133.5 c 128,-1,34
 143 107 143 107 162.5 87.5 c 128,-1,35
 182 68 182 68 208.5 57.5 c 128,-1,36
 235 47 235 47 261 47 c 0,37,38
 288 47 288 47 313 56.5 c 128,-1,39
 338 66 338 66 356 82 c 128,-1,40
 374 98 374 98 383.5 118.5 c 128,-1,41
 393 139 393 139 392 160 c 0,42,43
 389 194 389 194 349 209.5 c 128,-1,44
 309 225 309 225 253 237 c 0,45,46
 208 246 208 246 174 255 c 128,-1,47
 140 264 140 264 116 277.5 c 128,-1,48
 92 291 92 291 79 311.5 c 128,-1,49
 66 332 66 332 63 362 c 256,50,51
 60 392 60 392 73.5 420.5 c 128,-1,52
 87 449 87 449 113 471.5 c 128,-1,53
 139 494 139 494 176.5 508 c 128,-1,54
 214 522 214 522 261 522 c 0,55,56
 348 522 348 522 397 481 c 128,-1,57
 446 440 446 440 457 377 c 0,0,1
EndSplineSet
EndChar
StartChar: t
Encoding: 116 116 85
Width: 331
VWidth: 1507
Flags: W
HStem: -6 56<211.321 299.8> 458 54<21.5625 99 190 273.578> 708 20G<144.5 190>
VStem: 99 91<74.7527 458 512 712.845>
Fore
265 -6 m 0,0,1
 188 -6 188 -6 143.5 34.5 c 128,-1,2
 99 75 99 75 99 133 c 2,3,-1
 99 458 l 1,4,-1
 12 458 l 1,5,6
 12 512 12 512 80 512 c 2,7,-1
 99 512 l 1,8,-1
 99 671 l 2,9,10
 99 728 99 728 190 728 c 1,11,-1
 190 512 l 1,12,-1
 283 512 l 1,13,14
 283 458 283 458 216 458 c 2,15,-1
 190 458 l 1,16,-1
 190 133 l 2,17,18
 190 98 190 98 209 74 c 128,-1,19
 228 50 228 50 265 50 c 0,20,21
 282 50 282 50 318 68 c 1,22,23
 332 42 332 42 317.5 18 c 128,-1,24
 303 -6 303 -6 265 -6 c 0,0,1
EndSplineSet
EndChar
StartChar: u
Encoding: 117 117 86
Width: 617
VWidth: 1507
Flags: W
HStem: -9 56<231.235 369.869> 502 20G<132.5 178 483.5 528>
VStem: 87 91<98.9424 507.111> 439 89<-9 23 98.4135 507.111>
Fore
528 48 m 2,0,1
 528 -9 528 -9 439 -9 c 1,2,-1
 439 23 l 1,3,4
 411 8 411 8 378 -0.5 c 128,-1,5
 345 -9 345 -9 307 -9 c 0,6,7
 262 -9 262 -9 221.5 4.5 c 128,-1,8
 181 18 181 18 151.5 42 c 128,-1,9
 122 66 122 66 104.5 97 c 128,-1,10
 87 128 87 128 87 164 c 2,11,-1
 87 466 l 2,12,13
 87 522 87 522 178 522 c 1,14,-1
 178 164 l 2,15,16
 178 116 178 116 215 81.5 c 128,-1,17
 252 47 252 47 307 47 c 0,18,19
 365 47 365 47 402 81.5 c 128,-1,20
 439 116 439 116 439 164 c 2,21,-1
 439 466 l 2,22,23
 439 522 439 522 528 522 c 1,24,-1
 528 48 l 2,0,1
EndSplineSet
EndChar
StartChar: v
Encoding: 118 118 87
Width: 536
VWidth: 1507
Flags: W
HStem: -9 21G<260 273.5>
VStem: 23 489<512 512 512 512>
Fore
267 -9 m 256,0,1
 253 -9 253 -9 242.5 -3 c 128,-1,2
 232 3 232 3 228 9 c 1,3,4
 178 134 178 134 124.5 260.5 c 128,-1,5
 71 387 71 387 23 512 c 1,6,7
 57 528 57 528 83.5 519.5 c 128,-1,8
 110 511 110 511 119 488 c 2,9,-1
 267 118 l 1,10,-1
 416 488 l 2,11,12
 424 511 424 511 450 519.5 c 128,-1,13
 476 528 476 528 512 512 c 1,14,-1
 307 9 l 2,15,16
 304 2 304 2 292 -3.5 c 128,-1,17
 280 -9 280 -9 267 -9 c 256,0,1
EndSplineSet
EndChar
StartChar: w
Encoding: 119 119 88
Width: 759
VWidth: 1507
Flags: W
HStem: -9 21G<251.5 277.485 478.515 505>
Fore
378 321 m 1,0,-1
 271 -9 l 1,1,2
 232 -9 232 -9 213 1.5 c 128,-1,3
 194 12 194 12 187 33 c 2,4,-1
 23 514 l 1,5,6
 98 540 98 540 118 484 c 0,7,8
 145 401 145 401 176.5 312 c 128,-1,9
 208 223 208 223 238 137 c 1,10,-1
 336 448 l 2,11,12
 339 458 339 458 351 463.5 c 128,-1,13
 363 469 363 469 378 469 c 256,14,15
 393 469 393 469 405.5 463.5 c 128,-1,16
 418 458 418 458 421 448 c 2,17,-1
 519 136 l 1,18,-1
 639 484 l 2,19,20
 660 538 660 538 734 514 c 1,21,-1
 570 33 l 2,22,23
 562 12 562 12 543.5 1.5 c 128,-1,24
 525 -9 525 -9 485 -9 c 1,25,-1
 378 321 l 1,0,-1
EndSplineSet
EndChar
StartChar: x
Encoding: 120 120 89
Width: 539
VWidth: 1507
Flags: W
VStem: 24 490<9 9 9 9>
Fore
514 9 m 1,0,1
 455 -39 455 -39 416 15 c 2,2,-1
 268 211 l 1,3,-1
 122 15 l 2,4,5
 101 -11 101 -11 77.5 -14 c 128,-1,6
 54 -17 54 -17 24 9 c 1,7,-1
 222 273 l 1,8,-1
 48 506 l 1,9,10
 106 550 106 550 146 497 c 2,11,-1
 268 335 l 1,12,-1
 390 497 l 2,13,14
 431 550 431 550 490 506 c 1,15,-1
 315 273 l 1,16,-1
 514 9 l 1,0,1
EndSplineSet
EndChar
StartChar: y
Encoding: 121 121 90
Width: 536
VWidth: 1507
Flags: W
VStem: 21 491<-163 512 -163 -163>
Fore
106 -210 m 0,0,1
 29 -228 29 -228 21 -163 c 1,2,3
 39 -163 39 -163 50.5 -162 c 128,-1,4
 62 -161 62 -161 72 -158 c 0,5,6
 157 -136 157 -136 202 -35 c 2,7,-1
 225 18 l 1,8,-1
 23 512 l 1,9,10
 57 528 57 528 83.5 519.5 c 128,-1,11
 110 511 110 511 119 488 c 2,12,-1
 267 118 l 1,13,-1
 416 488 l 2,14,15
 424 511 424 511 450 519.5 c 128,-1,16
 476 528 476 528 512 512 c 1,17,-1
 282 -53 l 2,18,19
 255 -118 255 -118 214 -155.5 c 128,-1,20
 173 -193 173 -193 106 -210 c 0,0,1
EndSplineSet
EndChar
StartChar: z
Encoding: 122 122 91
Width: 485
VWidth: 1507
Flags: W
HStem: 0 56<127 453.578> 458 54<30.2812 356>
VStem: 21 436.5<468.336 479 479 490.667 0 512 512 512>
Fore
65 0 m 1,0,1
 44 0 44 0 32 17.5 c 128,-1,2
 20 35 20 35 32 50 c 2,3,-1
 356 458 l 1,4,-1
 87 458 l 2,5,6
 21 458 21 458 21 512 c 1,7,-1
 418 512 l 2,8,9
 428 512 428 512 436.5 507 c 128,-1,10
 445 502 445 502 451 495 c 128,-1,11
 457 488 457 488 457.5 479 c 128,-1,12
 458 470 458 470 452 464 c 2,13,-1
 127 56 l 1,14,-1
 396 56 l 2,15,16
 463 56 463 56 463 0 c 1,17,-1
 65 0 l 1,0,1
EndSplineSet
EndChar
StartChar: braceleft
Encoding: 123 123 92
Width: 318
VWidth: 1507
Flags: W
HStem: -127 53<226.829 318.476> 285 45<48.375 108.927> 689 54<226.829 317.719>
VStem: 33 294<307 743 -311 -297> 121 95<-60.0719 261.792 354.239 675.587>
Fore
33 307 m 256,0,1
 33 318 33 318 43 324 c 128,-1,2
 53 330 53 330 69 330 c 0,3,4
 99 330 99 330 110 353.5 c 128,-1,5
 121 377 121 377 121 421 c 2,6,-1
 121 610 l 2,7,8
 121 674 121 674 151 708.5 c 128,-1,9
 181 743 181 743 238 743 c 2,10,-1
 327 743 l 1,11,12
 327 689 327 689 261 689 c 2,13,-1
 252 689 l 2,14,15
 237 689 237 689 226.5 676 c 128,-1,16
 216 663 216 663 216 624 c 2,17,-1
 216 431 l 2,18,19
 216 378 216 378 197 349.5 c 128,-1,20
 178 321 178 321 139 307 c 1,21,22
 182 295 182 295 199 269 c 128,-1,23
 216 243 216 243 216 185 c 2,24,-1
 216 -8 l 2,25,26
 216 -47 216 -47 226.5 -60.5 c 128,-1,27
 237 -74 237 -74 252 -74 c 2,28,-1
 261 -74 l 2,29,30
 327 -74 327 -74 327 -127 c 1,31,-1
 238 -127 l 2,32,33
 181 -127 181 -127 151 -93 c 128,-1,34
 121 -59 121 -59 121 6 c 2,35,-1
 121 196 l 2,36,37
 121 240 121 240 110 262.5 c 128,-1,38
 99 285 99 285 69 285 c 0,39,40
 53 285 53 285 43 291 c 128,-1,41
 33 297 33 297 33 307 c 256,0,1
EndSplineSet
EndChar
StartChar: bar
Encoding: 124 124 93
Width: 262
VWidth: 1507
Flags: W
VStem: 87 86<-141.5 780.5>
Fore
87 740 m 2,0,1
 87 794 87 794 173 794 c 1,2,-1
 173 -101 l 2,3,4
 173 -155 173 -155 87 -155 c 1,5,-1
 87 740 l 2,0,1
EndSplineSet
EndChar
StartChar: asciitilde
Encoding: 126 126 95
Width: 682
VWidth: 1507
Flags: W
HStem: 234 57<382.178 536.719> 304 61<124.869 286.86>
Fore
75 253 m 1,0,1
 50 288 50 288 53.5 309 c 128,-1,2
 57 330 57 330 84 345 c 0,3,4
 125 365 125 365 193 365 c 0,5,6
 265 365 265 365 347 327 c 0,7,8
 430 291 430 291 469 291 c 0,9,10
 532 291 532 291 597 366 c 1,11,12
 626 345 626 345 630.5 320 c 128,-1,13
 635 295 635 295 612 279 c 1,14,-1
 613 279 l 1,15,16
 585 255 585 255 548.5 244.5 c 128,-1,17
 512 234 512 234 469 234 c 0,18,19
 404 234 404 234 307 274 c 0,20,21
 241 304 241 304 193 304 c 0,22,23
 161 304 161 304 133.5 291.5 c 128,-1,24
 106 279 106 279 75 253 c 1,0,1
EndSplineSet
EndChar
StartChar: quotedbl
Encoding: 34 34 97
Width: 409
VWidth: 1507
Flags: W
HStem: 503 222<99.4276 144.246 259.428 303.731>
VStem: 72 109<621.113 707.148> 232 109<621.113 707.148>
Fore
72 651 m 2,0,1
 69 689 69 689 98.5 707 c 128,-1,2
 128 725 128 725 181 725 c 1,3,-1
 172 564 l 2,4,5
 169 543 169 543 145 523 c 128,-1,6
 121 503 121 503 81 503 c 1,7,-1
 72 651 l 2,0,1
232 651 m 2,8,9
 229 689 229 689 258.5 707 c 128,-1,10
 288 725 288 725 341 725 c 1,11,-1
 332 564 l 2,12,13
 329 543 329 543 304.5 523 c 128,-1,14
 280 503 280 503 241 503 c 1,15,-1
 232 651 l 2,8,9
EndSplineSet
EndChar
StartChar: exclam
Encoding: 33 33 98
Width: 251
VWidth: 1507
Flags: W
HStem: -9 118<72.6589 176.311> 705 20G<159 187.31>
VStem: 51 148<8.01794 91.4668> 66 122<623.5 694.278> 81 89<159.503 259.2>
Fore
66 641 m 2,0,1
 65 680 65 680 97.5 702.5 c 128,-1,2
 130 725 130 725 188 725 c 1,3,-1
 170 203 l 2,4,5
 169 175 169 175 148.5 159 c 128,-1,6
 128 143 128 143 81 143 c 1,7,-1
 66 641 l 2,0,1
51 50 m 256,8,9
 51 75 51 75 72 92 c 128,-1,10
 93 109 93 109 125 109 c 0,11,12
 155 109 155 109 177 92 c 128,-1,13
 199 75 199 75 199 50 c 256,14,15
 199 24 199 24 177 7.5 c 128,-1,16
 155 -9 155 -9 125 -9 c 0,17,18
 93 -9 93 -9 72 7.5 c 128,-1,19
 51 24 51 24 51 50 c 256,8,9
EndSplineSet
EndChar
StartChar: exclamdown
Encoding: 161 161 100
Width: 251
VWidth: 1507
Flags: W
HStem: -213 21G<63.6897 93.5> 404 118<75.1744 178.342>
VStem: 53 147<422.049 504.467> 63 122<-183.195 -111.5> 81 89<253.267 352.518>
Fore
185 -127 m 2,0,1
 187 -167 187 -167 155.5 -190 c 128,-1,2
 124 -213 124 -213 63 -213 c 1,3,-1
 81 309 l 2,4,5
 83 338 83 338 104 353.5 c 128,-1,6
 125 369 125 369 170 369 c 1,7,-1
 185 -127 l 2,0,1
200 464 m 0,8,9
 200 439 200 439 179 421.5 c 128,-1,10
 158 404 158 404 128 404 c 0,11,12
 96 404 96 404 74.5 421.5 c 128,-1,13
 53 439 53 439 53 464 c 0,14,15
 53 488 53 488 74.5 505 c 128,-1,16
 96 522 96 522 128 522 c 0,17,18
 158 522 158 522 179 505 c 128,-1,19
 200 488 200 488 200 464 c 0,8,9
EndSplineSet
EndChar
StartChar: cent
Encoding: 162 162 101
Width: 548
VWidth: 1507
Flags: W
HStem: -2 58<194.576 249>
VStem: 74 90<101.533 417.117> 249 87<-71.1053 -3 56 463 522 583.59>
Fore
249 543 m 2,0,1
 249 571 249 571 269 584 c 128,-1,2
 289 597 289 597 336 597 c 1,3,-1
 336 522 l 1,4,5
 393 514 393 514 435.5 485.5 c 128,-1,6
 478 457 478 457 497 418 c 0,7,8
 503 402 503 402 498 389.5 c 128,-1,9
 493 377 493 377 481 368 c 128,-1,10
 469 359 469 359 453 353.5 c 128,-1,11
 437 348 437 348 425 348 c 1,12,13
 425 387 425 387 400 419 c 128,-1,14
 375 451 375 451 336 463 c 1,15,-1
 336 56 l 1,16,17
 375 68 375 68 400 99.5 c 128,-1,18
 425 131 425 131 425 170 c 1,19,20
 437 170 437 170 453 165 c 128,-1,21
 469 160 469 160 481 151 c 128,-1,22
 493 142 493 142 498 129 c 128,-1,23
 503 116 503 116 497 101 c 0,24,25
 478 60 478 60 435.5 32.5 c 128,-1,26
 393 5 393 5 336 -3 c 1,27,-1
 336 -30 l 2,28,29
 336 -59 336 -59 315.5 -71.5 c 128,-1,30
 295 -84 295 -84 249 -84 c 1,31,-1
 249 -2 l 1,32,33
 172 11 172 11 123 56.5 c 128,-1,34
 74 102 74 102 74 166 c 2,35,-1
 74 351 l 2,36,37
 74 415 74 415 123.5 461.5 c 128,-1,38
 173 508 173 508 249 520 c 1,39,-1
 249 543 l 2,0,1
164 351 m 2,40,-1
 164 166 l 2,41,42
 164 130 164 130 187 99 c 128,-1,43
 210 68 210 68 249 56 c 1,44,-1
 249 463 l 1,45,46
 210 449 210 449 187 419 c 128,-1,47
 164 389 164 389 164 351 c 2,40,-1
EndSplineSet
EndChar
StartChar: sterling
Encoding: 163 163 102
Width: 605
VWidth: 1507
Flags: W
HStem: 0 60<208 547.117> 329 60<71.7178 185 282 439.282> 666 59<314.12 455.41>
VStem: 60 499<0 329 231.334 238.67> 175 93<457.273 608.652> 200 91<162.283 271.931>
Fore
60 329 m 1,0,1
 60 389 60 389 131 389 c 2,2,-1
 185 389 l 1,3,4
 181 422 181 422 178 453 c 128,-1,5
 175 484 175 484 175 519 c 0,6,7
 175 564 175 564 190.5 602.5 c 128,-1,8
 206 641 206 641 235 668 c 128,-1,9
 264 695 264 695 303 710 c 128,-1,10
 342 725 342 725 390 725 c 0,11,12
 434 725 434 725 466.5 716 c 128,-1,13
 499 707 499 707 515 692 c 0,14,15
 532 678 532 678 527 657 c 128,-1,16
 522 636 522 636 505 621 c 1,17,18
 454 666 454 666 386 666 c 0,19,20
 327 666 327 666 297.5 627.5 c 128,-1,21
 268 589 268 589 268 517 c 0,22,23
 268 494 268 494 270.5 459.5 c 128,-1,24
 273 425 273 425 276 389 c 1,25,-1
 451 389 l 1,26,27
 451 329 451 329 380 329 c 2,28,-1
 282 329 l 1,29,30
 285 295 285 295 288 269.5 c 128,-1,31
 291 244 291 244 291 232 c 0,32,33
 291 169 291 169 271.5 130.5 c 128,-1,34
 252 92 252 92 208 60 c 1,35,-1
 487 60 l 2,36,37
 559 60 559 60 559 0 c 1,38,-1
 74 0 l 1,39,40
 74 39 74 39 107 62 c 0,41,42
 122 71 122 71 138.5 86 c 128,-1,43
 155 101 155 101 168.5 121.5 c 128,-1,44
 182 142 182 142 191 166.5 c 128,-1,45
 200 191 200 191 200 222 c 0,46,47
 200 249 200 249 198 276 c 128,-1,48
 196 303 196 303 193 329 c 1,49,-1
 60 329 l 1,0,1
EndSplineSet
EndChar
StartChar: currency
Encoding: 164 164 103
Width: 773
VWidth: 1507
Flags: W
HStem: 78 58<320.028 447.888> 582 60<320.52 464.569>
VStem: 89 95<267.777 444.656> 585 96<273.571 445.671>
Fore
151 188 m 1,0,1
 89 265 89 265 89 359 c 0,2,3
 89 402 89 402 105 447.5 c 128,-1,4
 121 493 121 493 152 532 c 1,5,-1
 93 594 l 1,6,-1
 151 654 l 1,7,-1
 214 592 l 1,8,9
 250 620 250 620 294 631 c 128,-1,10
 338 642 338 642 384 642 c 0,11,12
 482 642 482 642 558 589 c 1,13,-1
 626 656 l 1,14,-1
 680 594 l 1,15,-1
 620 532 l 1,16,17
 651 494 651 494 666 449.5 c 128,-1,18
 681 405 681 405 681 359 c 0,19,20
 681 315 681 315 666 271.5 c 128,-1,21
 651 228 651 228 621 188 c 1,22,-1
 680 125 l 1,23,-1
 623 68 l 1,24,-1
 559 131 l 1,25,26
 523 102 523 102 478 90 c 128,-1,27
 433 78 433 78 384 78 c 256,28,29
 336 78 336 78 294 88.5 c 128,-1,30
 252 99 252 99 214 130 c 1,31,-1
 152 66 l 1,32,-1
 93 125 l 1,33,-1
 151 188 l 1,0,1
184 359 m 256,34,35
 184 314 184 314 200 273 c 128,-1,36
 216 232 216 232 243 201 c 128,-1,37
 270 170 270 170 307 153 c 128,-1,38
 344 136 344 136 384 136 c 256,39,40
 425 136 425 136 462 153 c 128,-1,41
 499 170 499 170 526 201 c 128,-1,42
 553 232 553 232 569 273 c 128,-1,43
 585 314 585 314 585 359 c 256,44,45
 585 404 585 404 569 444.5 c 128,-1,46
 553 485 553 485 526 516 c 128,-1,47
 499 547 499 547 462 564.5 c 128,-1,48
 425 582 425 582 384 582 c 256,49,50
 344 582 344 582 307 564.5 c 128,-1,51
 270 547 270 547 243 516 c 128,-1,52
 216 485 216 485 200 444.5 c 128,-1,53
 184 404 184 404 184 359 c 256,34,35
EndSplineSet
EndChar
StartChar: yen
Encoding: 165 165 104
Width: 633
VWidth: 1507
Flags: W
HStem: -6 21G<270 317.5> 262 59<92.1389 270 365 537.861> 396 61<93.0479 154 154 208 425 536.952>
VStem: 270 95<11.7803 262 321 372>
Fore
81 396 m 1,0,1
 81 457 81 457 154 457 c 2,2,-1
 208 457 l 1,3,-1
 18 717 l 1,4,5
 48 739 48 739 78.5 733.5 c 128,-1,6
 109 728 109 728 125 704 c 2,7,-1
 317 439 l 1,8,-1
 509 704 l 2,9,10
 528 728 528 728 557 733.5 c 128,-1,11
 586 739 586 739 616 717 c 1,12,-1
 425 457 l 1,13,-1
 549 457 l 1,14,15
 549 396 549 396 476 396 c 2,16,-1
 381 396 l 1,17,-1
 365 372 l 1,18,-1
 365 321 l 1,19,-1
 549 321 l 1,20,21
 549 262 549 262 476 262 c 2,22,-1
 365 262 l 1,23,-1
 365 57 l 2,24,25
 365 -6 365 -6 270 -6 c 1,26,-1
 270 262 l 1,27,-1
 81 262 l 1,28,29
 81 321 81 321 154 321 c 2,30,-1
 270 321 l 1,31,-1
 270 372 l 1,32,-1
 252 396 l 1,33,-1
 81 396 l 1,0,1
EndSplineSet
EndChar
StartChar: brokenbar
Encoding: 166 166 105
Width: 262
VWidth: 1507
Flags: W
VStem: 87 86<-141.5 256.5 382.75 780.5>
Fore
87 740 m 2,0,1
 87 794 87 794 173 794 c 1,2,-1
 173 424 l 2,3,4
 173 369 173 369 87 369 c 1,5,-1
 87 740 l 2,0,1
87 216 m 2,6,7
 87 270 87 270 173 270 c 1,8,-1
 173 -101 l 2,9,10
 173 -155 173 -155 87 -155 c 1,11,-1
 87 216 l 2,6,7
EndSplineSet
EndChar
StartChar: section
Encoding: 167 167 106
Width: 622
VWidth: 1507
Flags: W
HStem: -9 57<231.576 380.654> 672 53<248.658 381.036>
VStem: 87 94<352.691 438.1> 125 94<550.843 644.91> 415 90<80.1157 178.963> 437 95<295.877 391.291>
Fore
532 345 m 0,0,1
 532 311 532 311 515.5 282 c 128,-1,2
 499 253 499 253 469 225 c 1,3,4
 481 210 481 210 493 188 c 128,-1,5
 505 166 505 166 505 140 c 0,6,7
 505 69 505 69 444.5 30 c 128,-1,8
 384 -9 384 -9 292 -9 c 0,9,10
 253 -9 253 -9 215.5 0 c 128,-1,11
 178 9 178 9 155 23 c 0,12,13
 139 35 139 35 137.5 57.5 c 128,-1,14
 136 80 136 80 152 107 c 1,15,16
 181 81 181 81 217 64.5 c 128,-1,17
 253 48 253 48 295 48 c 0,18,19
 348 48 348 48 381.5 70 c 128,-1,20
 415 92 415 92 415 134 c 0,21,22
 415 173 415 173 385.5 199 c 128,-1,23
 356 225 356 225 282 247 c 0,24,25
 188 274 188 274 137.5 309 c 128,-1,26
 87 344 87 344 87 401 c 0,27,28
 87 425 87 425 102.5 453 c 128,-1,29
 118 481 118 481 157 511 c 1,30,31
 140 528 140 528 132.5 546.5 c 128,-1,32
 125 565 125 565 125 585 c 0,33,34
 125 648 125 648 181.5 686.5 c 128,-1,35
 238 725 238 725 327 725 c 0,36,37
 366 725 366 725 402.5 717.5 c 128,-1,38
 439 710 439 710 458 695 c 0,39,40
 470 686 470 686 468.5 664 c 128,-1,41
 467 642 467 642 455 626 c 1,42,43
 430 642 430 642 392 657 c 128,-1,44
 354 672 354 672 320 672 c 0,45,46
 277 672 277 672 248 651 c 128,-1,47
 219 630 219 630 219 594 c 0,48,49
 219 552 219 552 255.5 531.5 c 128,-1,50
 292 511 292 511 356 494 c 0,51,52
 393 482 393 482 425 468.5 c 128,-1,53
 457 455 457 455 481 438 c 128,-1,54
 505 421 505 421 518.5 398 c 128,-1,55
 532 375 532 375 532 345 c 0,0,1
437 338 m 0,56,57
 437 369 437 369 413.5 393.5 c 128,-1,58
 390 418 390 418 335 437 c 0,59,60
 307 446 307 446 275 456.5 c 128,-1,61
 243 467 243 467 219 478 c 1,62,63
 202 461 202 461 191.5 441 c 128,-1,64
 181 421 181 421 181 404 c 0,65,66
 181 377 181 377 204.5 350.5 c 128,-1,67
 228 324 228 324 300 303 c 0,68,69
 347 286 347 286 370 280 c 128,-1,70
 393 274 393 274 411 264 c 1,71,72
 424 279 424 279 430.5 298 c 128,-1,73
 437 317 437 317 437 338 c 0,56,57
EndSplineSet
EndChar
StartChar: dieresis
Encoding: 168 168 107
Width: 354
VWidth: 1507
Flags: W
HStem: 601 107<29.1119 127.888 225.112 323.373>
VStem: 9 139<617.502 692.014> 205 139<617.502 692.014>
Fore
9 656 m 0,0,1
 9 677 9 677 28.5 692.5 c 128,-1,2
 48 708 48 708 78 708 c 256,3,4
 109 708 109 708 128.5 692.5 c 128,-1,5
 148 677 148 677 148 656 c 0,6,7
 148 633 148 633 128.5 617 c 128,-1,8
 109 601 109 601 78 601 c 256,9,10
 48 601 48 601 28.5 617 c 128,-1,11
 9 633 9 633 9 656 c 0,0,1
205 656 m 0,12,13
 205 677 205 677 224.5 692.5 c 128,-1,14
 244 708 244 708 274 708 c 256,15,16
 304 708 304 708 324 692.5 c 128,-1,17
 344 677 344 677 344 656 c 0,18,19
 344 633 344 633 324 617 c 128,-1,20
 304 601 304 601 274 601 c 256,21,22
 244 601 244 601 224.5 617 c 128,-1,23
 205 633 205 633 205 656 c 0,12,13
EndSplineSet
EndChar
StartChar: copyright
Encoding: 169 169 108
Width: 854
VWidth: 1507
Flags: W
HStem: -9 54<317.338 532.89> 140 51<379.775 479.853> 526 50<379.421 479.262> 671 54<319.308 530.912>
VStem: 44 89<237.526 475.446> 244 88<225.838 490.552> 717 91<237.526 475.446>
Fore
44 357 m 256,0,1
 44 434 44 434 73 501 c 128,-1,2
 102 568 102 568 154 618 c 128,-1,3
 206 668 206 668 275.5 696.5 c 128,-1,4
 345 725 345 725 425 725 c 256,5,6
 505 725 505 725 574.5 696.5 c 128,-1,7
 644 668 644 668 696 618 c 128,-1,8
 748 568 748 568 778 501 c 128,-1,9
 808 434 808 434 808 357 c 256,10,11
 808 280 808 280 778 214 c 128,-1,12
 748 148 748 148 696 98 c 128,-1,13
 644 48 644 48 574.5 19.5 c 128,-1,14
 505 -9 505 -9 425 -9 c 256,15,16
 345 -9 345 -9 275.5 19.5 c 128,-1,17
 206 48 206 48 154 98 c 128,-1,18
 102 148 102 148 73 214 c 128,-1,19
 44 280 44 280 44 357 c 256,0,1
133 356 m 256,20,21
 133 291 133 291 156 234.5 c 128,-1,22
 179 178 179 178 219 135.5 c 128,-1,23
 259 93 259 93 312 69 c 128,-1,24
 365 45 365 45 425 45 c 256,25,26
 485 45 485 45 538.5 69 c 128,-1,27
 592 93 592 93 631.5 135.5 c 128,-1,28
 671 178 671 178 694 234.5 c 128,-1,29
 717 291 717 291 717 356 c 256,30,31
 717 421 717 421 694 479 c 128,-1,32
 671 537 671 537 631.5 579 c 128,-1,33
 592 621 592 621 538.5 646 c 128,-1,34
 485 671 485 671 425 671 c 256,35,36
 365 671 365 671 312 646 c 128,-1,37
 259 621 259 621 219 579 c 128,-1,38
 179 537 179 537 156 479 c 128,-1,39
 133 421 133 421 133 356 c 256,20,21
430 526 m 256,40,41
 389 526 389 526 360.5 498 c 128,-1,42
 332 470 332 470 332 436 c 2,43,-1
 332 282 l 2,44,45
 332 246 332 246 360.5 218.5 c 128,-1,46
 389 191 389 191 430 191 c 256,47,48
 470 191 470 191 499.5 220.5 c 128,-1,49
 529 250 529 250 529 289 c 1,50,51
 568 295 568 295 593 281.5 c 128,-1,52
 618 268 618 268 609 238 c 0,53,54
 600 214 600 214 582 196 c 128,-1,55
 564 178 564 178 539 165 c 128,-1,56
 514 152 514 152 485.5 146 c 128,-1,57
 457 140 457 140 430 140 c 0,58,59
 398 140 398 140 365 150 c 128,-1,60
 332 160 332 160 305.5 178 c 128,-1,61
 279 196 279 196 261.5 222.5 c 128,-1,62
 244 249 244 249 244 282 c 2,63,-1
 244 436 l 2,64,65
 244 467 244 467 260.5 493 c 128,-1,66
 277 519 277 519 303.5 537.5 c 128,-1,67
 330 556 330 556 363 566 c 128,-1,68
 396 576 396 576 430 576 c 0,69,70
 458 576 458 576 486 570 c 128,-1,71
 514 564 514 564 539 552 c 128,-1,72
 564 540 564 540 582 521.5 c 128,-1,73
 600 503 600 503 609 479 c 0,74,75
 618 449 618 449 593 435.5 c 128,-1,76
 568 422 568 422 529 428 c 1,77,78
 529 466 529 466 499.5 496 c 128,-1,79
 470 526 470 526 430 526 c 256,40,41
EndSplineSet
EndChar
StartChar: ordfeminine
Encoding: 170 170 109
Width: 440
VWidth: 1507
Flags: W
HStem: 307 52<140.16 249.778> 529 51<140.16 249.771> 669 51<135.994 238.867>
VStem: 12 87<390.065 496.427> 279 87<319.25 326 387.717 500.275 561 640.218>
Fore
190 359 m 256,0,1
 229 359 229 359 254 384.5 c 128,-1,2
 279 410 279 410 279 443 c 0,3,4
 279 478 279 478 254 503.5 c 128,-1,5
 229 529 229 529 190 529 c 256,6,7
 151 529 151 529 125 503.5 c 128,-1,8
 99 478 99 478 99 443 c 0,9,10
 99 410 99 410 125 384.5 c 128,-1,11
 151 359 151 359 190 359 c 256,0,1
190 580 m 0,12,13
 237 580 237 580 279 561 c 1,14,-1
 279 586 l 2,15,16
 279 620 279 620 253.5 644.5 c 128,-1,17
 228 669 228 669 190 669 c 0,18,19
 161 669 161 669 131.5 643.5 c 128,-1,20
 102 618 102 618 83 582 c 1,21,22
 56 600 56 600 46 623.5 c 128,-1,23
 36 647 36 647 47 662 c 0,24,25
 69 690 69 690 107.5 705 c 128,-1,26
 146 720 146 720 190 720 c 0,27,28
 222 720 222 720 252.5 710.5 c 128,-1,29
 283 701 283 701 309 683.5 c 128,-1,30
 335 666 335 666 350.5 641 c 128,-1,31
 366 616 366 616 366 586 c 2,32,-1
 366 356 l 2,33,34
 366 307 366 307 279 307 c 1,35,-1
 279 326 l 1,36,37
 240 307 240 307 190 307 c 0,38,39
 152 307 152 307 119.5 318 c 128,-1,40
 87 329 87 329 63 347 c 128,-1,41
 39 365 39 365 25.5 390 c 128,-1,42
 12 415 12 415 12 443 c 0,43,44
 12 470 12 470 25.5 495 c 128,-1,45
 39 520 39 520 63 539 c 128,-1,46
 87 558 87 558 119.5 569 c 128,-1,47
 152 580 152 580 190 580 c 0,12,13
EndSplineSet
EndChar
StartChar: logicalnot
Encoding: 172 172 111
Width: 633
VWidth: 1507
Flags: W
HStem: 181 237<500 575.625> 360 58<54.376 500>
VStem: 500 88<194.5 360>
Fore
588 418 m 1,0,-1
 588 235 l 2,1,2
 588 181 588 181 500 181 c 1,3,-1
 500 360 l 1,4,-1
 44 360 l 1,5,6
 44 418 44 418 112 418 c 2,7,-1
 588 418 l 1,0,-1
EndSplineSet
EndChar
StartChar: registered
Encoding: 174 174 112
Width: 853
VWidth: 1507
Flags: W
HStem: -9 54<317.338 532.89> 332 51<335 518.109> 517 50<335 517.417> 671 54<319.308 530.912>
VStem: 44 89<237.526 475.446> 249 86<153.697 332 383 517> 532 88<154.053 313.95 426.957 490.767> 717 91<237.526 475.446>
Fore
490 383 m 2,0,1
 506 383 506 383 518.5 405.5 c 128,-1,2
 531 428 531 428 531 451 c 256,3,4
 531 473 531 473 518.5 495 c 128,-1,5
 506 517 506 517 490 517 c 2,6,-1
 335 517 l 1,7,-1
 335 383 l 1,8,-1
 490 383 l 2,0,1
335 185 m 2,9,10
 335 164 335 164 312 153 c 128,-1,11
 289 142 289 142 249 142 c 1,12,-1
 249 541 l 2,13,14
 249 552 249 552 260 559.5 c 128,-1,15
 271 567 271 567 292 567 c 2,16,-1
 490 567 l 2,17,18
 544 567 544 567 580 532 c 128,-1,19
 616 497 616 497 616 451 c 0,20,21
 616 427 616 427 602.5 401 c 128,-1,22
 589 375 589 375 565 357 c 1,23,24
 589 341 589 341 604.5 316 c 128,-1,25
 620 291 620 291 620 265 c 2,26,-1
 620 185 l 2,27,28
 620 164 620 164 596.5 153 c 128,-1,29
 573 142 573 142 532 142 c 1,30,-1
 532 265 l 2,31,32
 532 297 532 297 519 314.5 c 128,-1,33
 506 332 506 332 490 332 c 2,34,-1
 335 332 l 1,35,-1
 335 185 l 2,9,10
44 357 m 256,36,37
 44 434 44 434 73 501 c 128,-1,38
 102 568 102 568 154 618 c 128,-1,39
 206 668 206 668 275.5 696.5 c 128,-1,40
 345 725 345 725 425 725 c 256,41,42
 505 725 505 725 574.5 696.5 c 128,-1,43
 644 668 644 668 696 618 c 128,-1,44
 748 568 748 568 778 501 c 128,-1,45
 808 434 808 434 808 357 c 256,46,47
 808 280 808 280 778 214 c 128,-1,48
 748 148 748 148 696 98 c 128,-1,49
 644 48 644 48 574.5 19.5 c 128,-1,50
 505 -9 505 -9 425 -9 c 256,51,52
 345 -9 345 -9 275.5 19.5 c 128,-1,53
 206 48 206 48 154 98 c 128,-1,54
 102 148 102 148 73 214 c 128,-1,55
 44 280 44 280 44 357 c 256,36,37
133 356 m 256,56,57
 133 291 133 291 156 234.5 c 128,-1,58
 179 178 179 178 219 135.5 c 128,-1,59
 259 93 259 93 312 69 c 128,-1,60
 365 45 365 45 425 45 c 256,61,62
 485 45 485 45 538.5 69 c 128,-1,63
 592 93 592 93 631.5 135.5 c 128,-1,64
 671 178 671 178 694 234.5 c 128,-1,65
 717 291 717 291 717 356 c 256,66,67
 717 421 717 421 694 479 c 128,-1,68
 671 537 671 537 631.5 579 c 128,-1,69
 592 621 592 621 538.5 646 c 128,-1,70
 485 671 485 671 425 671 c 256,71,72
 365 671 365 671 312 646 c 128,-1,73
 259 621 259 621 219 579 c 128,-1,74
 179 537 179 537 156 479 c 128,-1,75
 133 421 133 421 133 356 c 256,56,57
EndSplineSet
EndChar
StartChar: macron
Encoding: 175 175 113
Width: 355
VWidth: 1507
Flags: W
HStem: 632 52<39 314 39 314 39 39>
Fore
39 632 m 1,0,-1
 39 684 l 1,1,-1
 314 684 l 1,2,-1
 314 632 l 1,3,-1
 39 632 l 1,0,-1
EndSplineSet
EndChar
StartChar: degree
Encoding: 176 176 114
Width: 355
VWidth: 1507
Flags: W
HStem: 448 49<131.715 220.648> 675 50<131.319 221.038>
VStem: 20 73<541.554 631.044> 259 73<541.559 643.392>
Fore
20 586 m 256,0,1
 20 615 20 615 32 640.5 c 128,-1,2
 44 666 44 666 65 685 c 128,-1,3
 86 704 86 704 114.5 714.5 c 128,-1,4
 143 725 143 725 176 725 c 0,5,6
 208 725 208 725 236.5 714.5 c 128,-1,7
 265 704 265 704 286 685 c 128,-1,8
 307 666 307 666 319.5 640.5 c 128,-1,9
 332 615 332 615 332 586 c 256,10,11
 332 558 332 558 319.5 532 c 128,-1,12
 307 506 307 506 286 487.5 c 128,-1,13
 265 469 265 469 236.5 458.5 c 128,-1,14
 208 448 208 448 176 448 c 0,15,16
 143 448 143 448 114.5 458.5 c 128,-1,17
 86 469 86 469 65 487.5 c 128,-1,18
 44 506 44 506 32 532 c 128,-1,19
 20 558 20 558 20 586 c 256,0,1
93 586 m 256,20,21
 93 549 93 549 117.5 523 c 128,-1,22
 142 497 142 497 176 497 c 256,23,24
 211 497 211 497 235 523 c 128,-1,25
 259 549 259 549 259 586 c 256,26,27
 259 624 259 624 235 649.5 c 128,-1,28
 211 675 211 675 176 675 c 256,29,30
 142 675 142 675 117.5 649.5 c 128,-1,31
 93 624 93 624 93 586 c 256,20,21
EndSplineSet
EndChar
StartChar: plusminus
Encoding: 177 177 115
Width: 633
VWidth: 1507
Flags: W
HStem: 2 58<64.5972 568.887> 271 56<53.5625 270 360 578.297>
VStem: 270 90<100.889 271 327 497.377>
Fore
270 271 m 1,0,-1
 44 271 l 1,1,2
 44 327 44 327 112 327 c 2,3,-1
 270 327 l 1,4,-1
 270 457 l 2,5,6
 270 512 270 512 360 512 c 1,7,-1
 360 327 l 1,8,-1
 588 327 l 1,9,10
 588 271 588 271 519 271 c 2,11,-1
 360 271 l 1,12,-1
 360 142 l 2,13,14
 360 86 360 86 270 86 c 1,15,-1
 270 271 l 1,0,-1
45 2 m 1,16,17
 45 27 45 27 64 43.5 c 128,-1,18
 83 60 83 60 116 60 c 2,19,-1
 589 60 l 1,20,21
 589 33 589 33 569.5 17.5 c 128,-1,22
 550 2 550 2 517 2 c 2,23,-1
 45 2 l 1,16,17
EndSplineSet
EndChar
StartChar: twosuperior
Encoding: 178 178 116
Width: 449
VWidth: 1507
Flags: W
HStem: 311 51<146 374.013> 671 49<177.916 269.683>
VStem: 57 333<317.189 348.591> 59 83<597.832 610 610 645.283> 306 84<562.738 645.283>
Fore
333 362 m 2,0,1
 359 362 359 362 374.5 349 c 128,-1,2
 390 336 390 336 390 311 c 1,3,-1
 99 311 l 2,4,5
 83 311 83 311 70 317 c 128,-1,6
 57 323 57 323 57 335 c 0,7,8
 57 383 57 383 93.5 428 c 128,-1,9
 130 473 130 473 202 503 c 0,10,11
 222 512 222 512 240 521.5 c 128,-1,12
 258 531 258 531 273 541.5 c 128,-1,13
 288 552 288 552 297 564.5 c 128,-1,14
 306 577 306 577 306 594 c 0,15,16
 306 624 306 624 282 647.5 c 128,-1,17
 258 671 258 671 223 671 c 0,18,19
 190 671 190 671 166 647.5 c 128,-1,20
 142 624 142 624 142 594 c 0,21,22
 142 584 l 128,-1,23
 142 579 142 579 145 567 c 1,24,25
 128 567 128 567 112 570.5 c 128,-1,26
 96 574 96 574 84 581 c 128,-1,27
 72 588 72 588 64.5 595.5 c 128,-1,28
 57 603 57 603 59 610 c 0,29,30
 63 635 63 635 79.5 655 c 128,-1,31
 96 675 96 675 119 690 c 128,-1,32
 142 705 142 705 169 712.5 c 128,-1,33
 196 720 196 720 223 720 c 0,34,35
 252 720 252 720 282 712 c 128,-1,36
 312 704 312 704 336 687.5 c 128,-1,37
 360 671 360 671 375 647.5 c 128,-1,38
 390 624 390 624 390 594 c 0,39,40
 390 568 390 568 377.5 548 c 128,-1,41
 365 528 365 528 343 512 c 128,-1,42
 321 496 321 496 293 482.5 c 128,-1,43
 265 469 265 469 235 457 c 0,44,45
 160 424 160 424 146 362 c 1,46,-1
 333 362 l 2,0,1
EndSplineSet
EndChar
StartChar: threesuperior
Encoding: 179 179 117
Width: 449
VWidth: 1507
Flags: W
HStem: 306 50<176.483 279.03> 505 50<201.318 265.467> 671 49<179.841 259.794>
VStem: 59 83<379.571 415 415 445> 283 86<582.204 645.145> 304 86<379.512 480.995>
Fore
80 632 m 0,0,1
 84 663 84 663 123.5 691.5 c 128,-1,2
 163 720 163 720 223 720 c 0,3,4
 252 720 252 720 279 712 c 128,-1,5
 306 704 306 704 325.5 689 c 128,-1,6
 345 674 345 674 357 655 c 128,-1,7
 369 636 369 636 369 613 c 0,8,9
 369 592 369 592 355 570.5 c 128,-1,10
 341 549 341 549 320 532 c 1,11,12
 350 514 350 514 370 487 c 128,-1,13
 390 460 390 460 390 431 c 0,14,15
 390 378 390 378 342 342 c 128,-1,16
 294 306 294 306 223 306 c 0,17,18
 188 306 188 306 158 316 c 128,-1,19
 128 326 128 326 107 341.5 c 128,-1,20
 86 357 86 357 73 376 c 128,-1,21
 60 395 60 395 59 415 c 0,22,23
 56 458 56 458 143 458 c 1,24,25
 142 451 142 451 142 445 c 128,-1,26
 142 439 142 439 142 431 c 0,27,28
 142 399 142 399 166 377.5 c 128,-1,29
 190 356 190 356 223 356 c 256,30,31
 256 356 256 356 280 377.5 c 128,-1,32
 304 399 304 399 304 431 c 0,33,34
 304 461 304 461 280 483 c 128,-1,35
 256 505 256 505 223 505 c 0,36,37
 206 505 206 505 193.5 512 c 128,-1,38
 181 519 181 519 181 529 c 0,39,40
 181 541 181 541 193.5 548 c 128,-1,41
 206 555 206 555 223 555 c 0,42,43
 249 555 249 555 266 572 c 128,-1,44
 283 589 283 589 283 613 c 256,45,46
 283 638 283 638 266 654.5 c 128,-1,47
 249 671 249 671 223 671 c 0,48,49
 199 671 199 671 181.5 654.5 c 128,-1,50
 164 638 164 638 164 613 c 0,51,52
 164 610 164 610 165 604 c 128,-1,53
 166 598 166 598 169 591 c 1,54,55
 130 585 130 585 102 595.5 c 128,-1,56
 74 606 74 606 80 632 c 0,0,1
EndSplineSet
EndChar
StartChar: acute
Encoding: 180 180 118
Width: 349
VWidth: 1507
Flags: W
HStem: 558 161<62 286 163 234>
Fore
149 690 m 2,0,1
 169 719 169 719 234 719 c 2,2,-1
 286 719 l 1,3,-1
 163 583 l 2,4,5
 146 568 146 568 123.5 563 c 128,-1,6
 101 558 101 558 62 558 c 1,7,-1
 149 690 l 2,0,1
EndSplineSet
EndChar
StartChar: mu
Encoding: 181 181 119
Width: 617
VWidth: 1507
Flags: W
HStem: -213 21G<87 132.5> -9 56<246.107 369.869> 502 20G<132.5 178 483.5 528>
VStem: 87 91<-197.58 23 98.4135 507.111> 439 89<-9 23 98.4135 164 164 507.111>
Fore
307 -9 m 256,0,1
 270 -9 270 -9 237.5 -0.5 c 128,-1,2
 205 8 205 8 178 23 c 1,3,-1
 178 -155 l 2,4,5
 178 -213 178 -213 87 -213 c 1,6,-1
 87 466 l 2,7,8
 87 522 87 522 178 522 c 1,9,-1
 178 164 l 2,10,11
 178 116 178 116 215 81.5 c 128,-1,12
 252 47 252 47 307 47 c 0,13,14
 365 47 365 47 402 81.5 c 128,-1,15
 439 116 439 116 439 164 c 2,16,-1
 439 466 l 2,17,18
 439 522 439 522 528 522 c 1,19,-1
 528 48 l 2,20,21
 528 -9 528 -9 439 -9 c 1,22,-1
 439 23 l 1,23,24
 411 8 411 8 378 -0.5 c 128,-1,25
 345 -9 345 -9 307 -9 c 256,0,1
EndSplineSet
EndChar
StartChar: paragraph
Encoding: 182 182 120
Width: 619
VWidth: 1507
Flags: W
HStem: 671 54<371 403.994 403.994 437>
VStem: 35 336<394.737 526.5> 277 94<-121.195 270> 437 92<-121.657 671>
Fore
529 -81 m 2,0,1
 529 -109 529 -109 505 -123 c 128,-1,2
 481 -137 481 -137 437 -137 c 1,3,-1
 437 671 l 1,4,-1
 371 671 l 1,5,-1
 371 -81 l 2,6,7
 371 -109 371 -109 346 -123 c 128,-1,8
 321 -137 321 -137 277 -137 c 1,9,-1
 277 270 l 1,10,11
 234 271 234 271 191 285.5 c 128,-1,12
 148 300 148 300 113 327 c 128,-1,13
 78 354 78 354 56.5 393.5 c 128,-1,14
 35 433 35 433 35 485 c 0,15,16
 35 526 35 526 48.5 569 c 128,-1,17
 62 612 62 612 98 646.5 c 128,-1,18
 134 681 134 681 196.5 703 c 128,-1,19
 259 725 259 725 357 725 c 0,20,21
 408 725 408 725 456.5 722 c 128,-1,22
 505 719 505 719 529 714 c 1,23,-1
 529 -81 l 2,0,1
EndSplineSet
EndChar
StartChar: periodcentered
Encoding: 183 183 121
Width: 376
VWidth: 1507
Flags: W
HStem: 199 200<115.839 260.402>
VStem: 72 231<240.918 357.641>
Fore
72 298 m 0,0,1
 72 341 72 341 106 370 c 128,-1,2
 140 399 140 399 188 399 c 256,3,4
 237 399 237 399 270 370 c 128,-1,5
 303 341 303 341 303 298 c 0,6,7
 303 258 303 258 270 228.5 c 128,-1,8
 237 199 237 199 188 199 c 256,9,10
 140 199 140 199 106 228.5 c 128,-1,11
 72 258 72 258 72 298 c 0,0,1
EndSplineSet
EndChar
StartChar: cedilla
Encoding: 184 184 122
Width: 293
VWidth: 1507
Flags: W
HStem: -210 47<70.8936 148.5>
VStem: 169 89<-145.766 -93.5654>
Fore
258 -116 m 0,0,1
 258 -139 258 -139 246.5 -156 c 128,-1,2
 235 -173 235 -173 217 -185 c 128,-1,3
 199 -197 199 -197 175.5 -203.5 c 128,-1,4
 152 -210 152 -210 130 -210 c 0,5,6
 84 -210 84 -210 59 -193 c 0,7,8
 41 -181 41 -181 38 -165 c 128,-1,9
 35 -149 35 -149 51 -127 c 1,10,11
 98 -163 98 -163 130 -163 c 0,12,13
 143 -163 143 -163 156 -152.5 c 128,-1,14
 169 -142 169 -142 169 -124 c 0,15,16
 169 -99 169 -99 136.5 -89.5 c 128,-1,17
 104 -80 104 -80 63 -83 c 1,18,-1
 130 17 l 1,19,-1
 205 17 l 1,20,-1
 164 -42 l 1,21,22
 203 -47 203 -47 230.5 -68 c 128,-1,23
 258 -89 258 -89 258 -116 c 0,0,1
EndSplineSet
EndChar
StartChar: onesuperior
Encoding: 185 185 123
Width: 449
VWidth: 1507
Flags: W
HStem: 306 410<206 279.107> 665 51<162.018 206>
VStem: 145 147<679.44 687 687 707.234> 206 86<319.5 665>
Fore
246 716 m 1,0,1
 267 716 267 716 279.5 707.5 c 128,-1,2
 292 699 292 699 292 687 c 2,3,-1
 292 360 l 2,4,5
 292 306 292 306 206 306 c 1,6,-1
 206 665 l 1,7,8
 178 665 178 665 161.5 679 c 128,-1,9
 145 693 145 693 145 716 c 1,10,-1
 246 716 l 1,0,1
EndSplineSet
EndChar
StartChar: ordmasculine
Encoding: 186 186 124
Width: 473
VWidth: 1507
Flags: W
HStem: 307 52<170.583 268.75> 669 51<170.583 268.75>
VStem: -2 86<456.552 570.403> 357 86<456.552 570.403>
Fore
-2 512 m 0,0,1
 -2 555 -2 555 15.5 593.5 c 128,-1,2
 33 632 33 632 63 659.5 c 128,-1,3
 93 687 93 687 133 703.5 c 128,-1,4
 173 720 173 720 219 720 c 128,-1,5
 265 720 265 720 306.5 703.5 c 128,-1,6
 348 687 348 687 378 659.5 c 128,-1,7
 408 632 408 632 425.5 593.5 c 128,-1,8
 443 555 443 555 443 512 c 0,9,10
 443 472 443 472 425.5 434 c 128,-1,11
 408 396 408 396 378 368.5 c 128,-1,12
 348 341 348 341 306.5 324 c 128,-1,13
 265 307 265 307 219 307 c 128,-1,14
 173 307 173 307 133 324 c 128,-1,15
 93 341 93 341 63 368.5 c 128,-1,16
 33 396 33 396 15.5 434 c 128,-1,17
 -2 472 -2 472 -2 512 c 0,0,1
84 512 m 0,18,19
 84 481 84 481 95 452.5 c 128,-1,20
 106 424 106 424 124.5 403.5 c 128,-1,21
 143 383 143 383 167 371 c 128,-1,22
 191 359 191 359 219 359 c 128,-1,23
 247 359 247 359 272.5 371 c 128,-1,24
 298 383 298 383 317 403.5 c 128,-1,25
 336 424 336 424 346.5 452.5 c 128,-1,26
 357 481 357 481 357 512 c 0,27,28
 357 546 357 546 346.5 574.5 c 128,-1,29
 336 603 336 603 317 624 c 128,-1,30
 298 645 298 645 272.5 657 c 128,-1,31
 247 669 247 669 219 669 c 128,-1,32
 191 669 191 669 167 657 c 128,-1,33
 143 645 143 645 124.5 624 c 128,-1,34
 106 603 106 603 95 574.5 c 128,-1,35
 84 546 84 546 84 512 c 0,18,19
EndSplineSet
EndChar
StartChar: onequarter
Encoding: 188 188 126
Width: 884
VWidth: 1507
Flags: W
HStem: -5 21G<684 727> 95 51<567 684 770 828.383> 665 51<168.503 213>
VStem: 213 87<319.5 665> 684 86<6 95 146 282>
Fore
253 716 m 2,0,1
 274 716 274 716 287 707.5 c 128,-1,2
 300 699 300 699 300 687 c 2,3,-1
 300 360 l 2,4,5
 300 306 300 306 213 306 c 1,6,-1
 213 665 l 1,7,8
 184 665 184 665 168 679 c 128,-1,9
 152 693 152 693 152 716 c 1,10,-1
 253 716 l 2,0,1
835 146 m 1,11,12
 835 95 835 95 779 95 c 2,13,-1
 770 95 l 1,14,-1
 770 39 l 2,15,16
 770 -5 770 -5 684 -5 c 1,17,-1
 684 95 l 1,18,-1
 505 95 l 2,19,20
 484 95 484 95 471 108.5 c 128,-1,21
 458 122 458 122 470 137 c 2,22,-1
 687 390 l 2,23,24
 699 402 699 402 713.5 407.5 c 128,-1,25
 728 413 728 413 740 412 c 128,-1,26
 752 411 752 411 760.5 403.5 c 128,-1,27
 769 396 769 396 770 383 c 2,28,-1
 770 146 l 1,29,-1
 835 146 l 1,11,12
684 146 m 1,30,-1
 684 282 l 1,31,32
 654 247 654 247 625.5 214 c 128,-1,33
 597 181 597 181 567 146 c 1,34,-1
 684 146 l 1,30,-1
577 724 m 2,35,36
 592 751 592 751 618 757.5 c 128,-1,37
 644 764 644 764 681 745 c 1,38,-1
 306 -2 l 2,39,40
 277 -62 277 -62 202 -23 c 1,41,-1
 577 724 l 2,35,36
EndSplineSet
Ligature2: "'frac' Diagonal Fractions in Latin lookup 0 subtable" one fraction four
Ligature2: "'frac' Diagonal Fractions in Latin lookup 0 subtable" one slash four
EndChar
StartChar: onehalf
Encoding: 189 189 127
Width: 884
VWidth: 1507
Flags: W
HStem: 0 51<573 800.498> 360 50<594.693 697.358> 665 51<168.503 213>
VStem: 213 87<319.5 665> 487 81<286.188 298 298 333.737> 733 84<237.671 333.737>
Fore
253 716 m 2,0,1
 274 716 274 716 287 707.5 c 128,-1,2
 300 699 300 699 300 687 c 2,3,-1
 300 360 l 2,4,5
 300 306 300 306 213 306 c 1,6,-1
 213 665 l 1,7,8
 184 665 184 665 168 679 c 128,-1,9
 152 693 152 693 152 716 c 1,10,-1
 253 716 l 2,0,1
760 51 m 2,11,12
 785 51 785 51 801 38.5 c 128,-1,13
 817 26 817 26 817 0 c 1,14,-1
 528 0 l 2,15,16
 511 0 511 0 498 6 c 128,-1,17
 485 12 485 12 485 24 c 0,18,19
 485 72 485 72 520.5 117.5 c 128,-1,20
 556 163 556 163 629 193 c 0,21,22
 668 211 668 211 700.5 230 c 128,-1,23
 733 249 733 249 733 282 c 0,24,25
 733 312 733 312 709.5 336 c 128,-1,26
 686 360 686 360 651 360 c 256,27,28
 616 360 616 360 592 336 c 128,-1,29
 568 312 568 312 568 282 c 0,30,31
 568 279 568 279 568 273.5 c 128,-1,32
 568 268 568 268 571 256 c 1,33,34
 556 256 556 256 540.5 260 c 128,-1,35
 525 264 525 264 512.5 270.5 c 128,-1,36
 500 277 500 277 492.5 284 c 128,-1,37
 485 291 485 291 487 298 c 0,38,39
 497 350 497 350 546 380 c 128,-1,40
 595 410 595 410 651 410 c 0,41,42
 680 410 680 410 709.5 401.5 c 128,-1,43
 739 393 739 393 763 376.5 c 128,-1,44
 787 360 787 360 802 336 c 128,-1,45
 817 312 817 312 817 282 c 0,46,47
 817 256 817 256 804 236.5 c 128,-1,48
 791 217 791 217 769.5 200.5 c 128,-1,49
 748 184 748 184 720 170.5 c 128,-1,50
 692 157 692 157 663 145 c 0,51,52
 586 112 586 112 573 51 c 1,53,-1
 760 51 l 2,11,12
577 724 m 2,54,55
 592 751 592 751 618 757.5 c 128,-1,56
 644 764 644 764 681 745 c 1,57,-1
 306 -2 l 2,58,59
 277 -62 277 -62 202 -23 c 1,60,-1
 577 724 l 2,54,55
EndSplineSet
Ligature2: "'frac' Diagonal Fractions in Latin lookup 0 subtable" one fraction two
Ligature2: "'frac' Diagonal Fractions in Latin lookup 0 subtable" one slash two
EndChar
StartChar: threequarters
Encoding: 190 190 128
Width: 884
VWidth: 1507
Flags: W
HStem: -5 21G<684 727> 95 51<567 684 770 828.383> 306 50<182.98 287.596> 505 50<208.824 272.951> 671 49<185.459 267.488>
VStem: 291 84<582.204 645.796> 312 84<379.512 480.995> 684 86<6 95 146 282>
Fore
835 146 m 1,0,1
 835 95 835 95 779 95 c 2,2,-1
 770 95 l 1,3,-1
 770 39 l 2,4,5
 770 -5 770 -5 684 -5 c 1,6,-1
 684 95 l 1,7,-1
 505 95 l 2,8,9
 484 95 484 95 471 108.5 c 128,-1,10
 458 122 458 122 470 137 c 2,11,-1
 687 390 l 2,12,13
 699 402 699 402 713 407.5 c 128,-1,14
 727 413 727 413 739 412 c 128,-1,15
 751 411 751 411 760 403.5 c 128,-1,16
 769 396 769 396 770 383 c 2,17,-1
 770 146 l 1,18,-1
 835 146 l 1,0,1
684 146 m 1,19,-1
 684 282 l 1,20,21
 654 247 654 247 625.5 214 c 128,-1,22
 597 181 597 181 567 146 c 1,23,-1
 684 146 l 1,19,-1
87 632 m 0,24,25
 92 663 92 663 130.5 691.5 c 128,-1,26
 169 720 169 720 231 720 c 0,27,28
 259 720 259 720 285.5 712 c 128,-1,29
 312 704 312 704 332.5 689 c 128,-1,30
 353 674 353 674 364 655 c 128,-1,31
 375 636 375 636 375 613 c 0,32,33
 375 592 375 592 361 570.5 c 128,-1,34
 347 549 347 549 327 532 c 1,35,36
 357 514 357 514 376.5 487 c 128,-1,37
 396 460 396 460 396 431 c 0,38,39
 396 378 396 378 348.5 342 c 128,-1,40
 301 306 301 306 231 306 c 0,41,42
 196 306 196 306 166 316 c 128,-1,43
 136 326 136 326 114.5 341.5 c 128,-1,44
 93 357 93 357 80.5 376 c 128,-1,45
 68 395 68 395 66 415 c 0,46,47
 63 458 63 458 149 458 c 1,48,49
 148 451 148 451 148 445 c 128,-1,50
 148 439 148 439 148 431 c 0,51,52
 148 399 148 399 172 377.5 c 128,-1,53
 196 356 196 356 231 356 c 0,54,55
 264 356 264 356 288 377.5 c 128,-1,56
 312 399 312 399 312 431 c 0,57,58
 312 461 312 461 288 483 c 128,-1,59
 264 505 264 505 231 505 c 0,60,61
 214 505 214 505 200.5 512 c 128,-1,62
 187 519 187 519 187 529 c 0,63,64
 187 541 187 541 200.5 548 c 128,-1,65
 214 555 214 555 231 555 c 0,66,67
 256 555 256 555 273.5 572 c 128,-1,68
 291 589 291 589 291 613 c 256,69,70
 291 638 291 638 273.5 654.5 c 128,-1,71
 256 671 256 671 231 671 c 256,72,73
 205 671 205 671 187.5 654.5 c 128,-1,74
 170 638 170 638 170 613 c 0,75,76
 170 610 170 610 171 604 c 128,-1,77
 172 598 172 598 175 591 c 1,78,79
 137 585 137 585 109 595.5 c 128,-1,80
 81 606 81 606 87 632 c 0,24,25
577 724 m 2,81,82
 592 751 592 751 618 757.5 c 128,-1,83
 644 764 644 764 681 745 c 1,84,-1
 306 -2 l 2,85,86
 277 -62 277 -62 202 -23 c 1,87,-1
 577 724 l 2,81,82
EndSplineSet
Ligature2: "'frac' Diagonal Fractions in Latin lookup 0 subtable" three fraction four
Ligature2: "'frac' Diagonal Fractions in Latin lookup 0 subtable" three slash four
EndChar
StartChar: questiondown
Encoding: 191 191 129
Width: 533
VWidth: 1507
Flags: W
HStem: -213 58<197.119 345.804> 404 118<219.689 323.341>
VStem: 45 92<-93.6201 44.7836> 197 148<422.049 504.467> 226 92<216.269 353.048> 407 90<-93.1941 -4.42285>
Fore
226 309 m 2,0,1
 226 369 226 369 318 369 c 1,2,-1
 318 279 l 2,3,4
 317 226 317 226 286.5 191.5 c 128,-1,5
 256 157 256 157 222 128 c 0,6,7
 190 102 190 102 163.5 71.5 c 128,-1,8
 137 41 137 41 137 -12 c 0,9,10
 137 -75 137 -75 175.5 -115 c 128,-1,11
 214 -155 214 -155 271 -155 c 0,12,13
 327 -155 327 -155 367 -116 c 128,-1,14
 407 -77 407 -77 407 -12 c 0,15,16
 407 -2 407 -2 407 4.5 c 128,-1,17
 407 11 407 11 405 20 c 1,18,19
 440 20 440 20 468 1 c 128,-1,20
 496 -18 496 -18 497 -41 c 1,21,22
 490 -77 490 -77 469.5 -108 c 128,-1,23
 449 -139 449 -139 419 -162 c 128,-1,24
 389 -185 389 -185 351.5 -199 c 128,-1,25
 314 -213 314 -213 271 -213 c 0,26,27
 226 -213 226 -213 185.5 -199 c 128,-1,28
 145 -185 145 -185 113 -159 c 128,-1,29
 81 -133 81 -133 63 -96 c 128,-1,30
 45 -59 45 -59 45 -12 c 0,31,32
 45 21 45 21 55 47.5 c 128,-1,33
 65 74 65 74 80.5 95 c 128,-1,34
 96 116 96 116 116 134 c 128,-1,35
 136 152 136 152 155 169 c 0,36,37
 184 191 184 191 205 215.5 c 128,-1,38
 226 240 226 240 226 279 c 2,39,-1
 226 309 l 2,0,1
345 464 m 0,40,41
 345 439 345 439 324 421.5 c 128,-1,42
 303 404 303 404 271 404 c 0,43,44
 241 404 241 404 219 421.5 c 128,-1,45
 197 439 197 439 197 464 c 0,46,47
 197 488 197 488 219 505 c 128,-1,48
 241 522 241 522 271 522 c 0,49,50
 303 522 303 522 324 505 c 128,-1,51
 345 488 345 488 345 464 c 0,40,41
EndSplineSet
EndChar
StartChar: AE
Encoding: 198 198 135
Width: 939
VWidth: 1507
Flags: W
HStem: 0 60<623 910.447> 232 60<271 497> 330 60<591 866.952> 659 58<552 896.319>
Fore
463 717 m 1,0,-1
 837 717 l 2,1,2
 907 717 907 717 907 659 c 1,3,-1
 552 659 l 1,4,-1
 583 390 l 1,5,-1
 879 390 l 1,6,7
 879 330 879 330 806 330 c 2,8,-1
 591 330 l 1,9,-1
 623 60 l 1,10,-1
 922 60 l 1,11,12
 922 0 922 0 852 0 c 2,13,-1
 528 0 l 1,14,-1
 503 232 l 1,15,-1
 231 232 l 1,16,17
 190 172 190 172 147 107 c 128,-1,18
 104 42 104 42 65 -17 c 1,19,20
 32 -3 32 -3 21.5 22.5 c 128,-1,21
 11 48 11 48 27 74 c 2,22,-1
 463 717 l 1,0,-1
464 585 m 1,23,-1
 271 292 l 1,24,-1
 497 292 l 1,25,-1
 464 585 l 1,23,-1
EndSplineSet
EndChar
StartChar: Eth
Encoding: 208 208 145
Width: 759
VWidth: 1507
Flags: W
HStem: 3 60<185 465.358> 332 57<8.37598 342.624> 662 58<185 465.358>
VStem: 89 96<63 662> 592 94<172.001 485 485 552.999>
Fore
-2 332 m 1,0,1
 -2 389 -2 389 66 389 c 2,2,-1
 353 389 l 1,3,4
 353 332 353 332 285 332 c 2,5,-1
 -2 332 l 1,0,1
387 720 m 2,6,7
 440 720 440 720 493 704.5 c 128,-1,8
 546 689 546 689 589 659.5 c 128,-1,9
 632 630 632 630 659 585.5 c 128,-1,10
 686 541 686 541 686 485 c 2,11,-1
 686 240 l 2,12,13
 686 185 686 185 659.5 141.5 c 128,-1,14
 633 98 633 98 591 67 c 128,-1,15
 549 36 549 36 495.5 19.5 c 128,-1,16
 442 3 442 3 387 3 c 2,17,-1
 137 3 l 2,18,19
 116 3 116 3 102.5 13 c 128,-1,20
 89 23 89 23 89 36 c 2,21,-1
 89 687 l 2,22,23
 89 702 89 702 102.5 711 c 128,-1,24
 116 720 116 720 137 720 c 2,25,-1
 387 720 l 2,6,7
185 662 m 1,26,-1
 185 63 l 1,27,-1
 387 63 l 2,28,29
 430 63 430 63 466.5 77.5 c 128,-1,30
 503 92 503 92 531 115.5 c 128,-1,31
 559 139 559 139 575.5 171 c 128,-1,32
 592 203 592 203 592 240 c 2,33,-1
 592 485 l 2,34,35
 592 522 592 522 575.5 554 c 128,-1,36
 559 586 559 586 531 609.5 c 128,-1,37
 503 633 503 633 466.5 647.5 c 128,-1,38
 430 662 430 662 387 662 c 2,39,-1
 185 662 l 1,26,-1
EndSplineSet
EndChar
StartChar: multiply
Encoding: 215 215 152
Width: 633
VWidth: 1507
Flags: W
HStem: 113 389.5<132 449 132 132>
VStem: 81 466<115 481 115 115>
Fore
449 482 m 2,0,1
 496 529 496 529 547 481 c 1,2,-1
 363 297 l 1,3,-1
 547 115 l 1,4,5
 496 68 496 68 449 113 c 2,6,-1
 314 247 l 1,7,-1
 179 113 l 2,8,9
 133 68 133 68 81 115 c 1,10,-1
 264 297 l 1,11,-1
 81 481 l 1,12,13
 106 502 106 502 132 502.5 c 128,-1,14
 158 503 158 503 179 482 c 2,15,-1
 314 347 l 1,16,-1
 449 482 l 2,0,1
EndSplineSet
EndChar
StartChar: Thorn
Encoding: 222 222 159
Width: 625
VWidth: 1507
Flags: W
HStem: -9 21G<87 109> 173 58<182 200.968 200.968 202.758 202.758 246.031 246.031 385.795> 546 53.5<226.75 265.154 245.952 369.478> 705 20G<160.5 182>
VStem: 87 95<9.58545 176 237 535 595 705.296> 476 94<311.671 467.514>
Fore
570 402 m 0,0,1
 570 350 570 350 548 307.5 c 128,-1,2
 526 265 526 265 485.5 235 c 128,-1,3
 445 205 445 205 388.5 189 c 128,-1,4
 332 173 332 173 264 173 c 0,5,6
 244 173 244 173 223.5 173 c 128,-1,7
 203 173 203 173 182 176 c 1,8,-1
 182 53 l 2,9,10
 182 23 182 23 156.5 7 c 128,-1,11
 131 -9 131 -9 87 -9 c 1,12,-1
 87 663 l 2,13,14
 87 692 87 692 113 708.5 c 128,-1,15
 139 725 139 725 182 725 c 1,16,-1
 182 595 l 1,17,18
 208 598 208 598 239 599.5 c 128,-1,19
 270 601 270 601 291 601 c 0,20,21
 437 601 437 601 506 537 c 0,22,23
 538 506 538 506 554 471.5 c 128,-1,24
 570 437 570 437 570 402 c 0,0,1
476 395 m 0,25,26
 476 437 476 437 461 465.5 c 128,-1,27
 446 494 446 494 420.5 512.5 c 128,-1,28
 395 531 395 531 361 538.5 c 128,-1,29
 327 546 327 546 291 546 c 256,30,31
 255 546 255 546 221.5 542 c 128,-1,32
 188 538 188 538 170 532 c 1,33,-1
 182 535 l 1,34,-1
 182 237 l 1,35,36
 203 234 203 234 225 232.5 c 128,-1,37
 247 231 247 231 267 231 c 0,38,39
 368 231 368 231 422 274.5 c 128,-1,40
 476 318 476 318 476 395 c 0,25,26
EndSplineSet
EndChar
StartChar: uni00DF
Encoding: 223 223 160
Width: 589
VWidth: 1507
Flags: W
HStem: -9 54<301.415 385.007> 357 53<240 322.943> 671 54<222.462 337.339>
VStem: 87 95<-119.502 581.25> 374 96<458.814 632.444> 421 93<89.6569 292.175>
Fore
87 532 m 2,0,1
 87 620 87 620 134.5 672.5 c 128,-1,2
 182 725 182 725 282 725 c 0,3,4
 368 725 368 725 419 674 c 128,-1,5
 470 623 470 623 470 543 c 0,6,7
 470 445 470 445 377 393 c 1,8,9
 445 368 445 368 479.5 319.5 c 128,-1,10
 514 271 514 271 514 203 c 0,11,12
 514 104 514 104 466.5 47.5 c 128,-1,13
 419 -9 419 -9 326 -9 c 0,14,15
 306 -9 306 -9 291.5 -7 c 128,-1,16
 277 -5 277 -5 270 -2 c 0,17,18
 249 11 249 11 241.5 30.5 c 128,-1,19
 234 50 234 50 247 75 c 1,20,21
 268 63 268 63 291.5 54 c 128,-1,22
 315 45 315 45 330 45 c 0,23,24
 421 45 421 45 421 196 c 0,25,26
 421 283 421 283 375.5 320 c 128,-1,27
 330 357 330 357 240 357 c 1,28,-1
 240 410 l 1,29,30
 303 413 303 413 338.5 442.5 c 128,-1,31
 374 472 374 472 374 546 c 0,32,33
 374 604 374 604 349 637.5 c 128,-1,34
 324 671 324 671 271 671 c 0,35,36
 244 671 244 671 227.5 659 c 128,-1,37
 211 647 211 647 200.5 628 c 128,-1,38
 190 609 190 609 186 585 c 128,-1,39
 182 561 182 561 182 537 c 2,40,-1
 182 -75 l 2,41,42
 182 -137 182 -137 87 -137 c 1,43,-1
 87 532 l 2,0,1
EndSplineSet
EndChar
StartChar: ae
Encoding: 230 230 167
Width: 925
VWidth: 1507
Flags: W
HStem: -9 56<214.674 355.886 550.588 704.775> 265 55<198.31 408 499 758> 467 55<212.543 331.457 553.678 705.416>
VStem: 59 89<93.5397 218.582> 408 91<98.3585 265 320 374.75> 758 91<320 348 348 414.999>
Fore
408 320 m 1,0,-1
 408 350 l 2,1,2
 408 372 408 372 397.5 394 c 128,-1,3
 387 416 387 416 370 432 c 128,-1,4
 353 448 353 448 329.5 457.5 c 128,-1,5
 306 467 306 467 279 467 c 0,6,7
 237 467 237 467 197.5 434.5 c 128,-1,8
 158 402 158 402 136 354 c 1,9,10
 109 375 109 375 98 403 c 128,-1,11
 87 431 87 431 101 449 c 0,12,13
 131 482 131 482 178 502 c 128,-1,14
 225 522 225 522 279 522 c 0,15,16
 327 522 327 522 376 504.5 c 128,-1,17
 425 487 425 487 455 455 c 1,18,19
 484 485 484 485 529 503.5 c 128,-1,20
 574 522 574 522 629 522 c 0,21,22
 674 522 674 522 714.5 508 c 128,-1,23
 755 494 755 494 784.5 471 c 128,-1,24
 814 448 814 448 831.5 416 c 128,-1,25
 849 384 849 384 849 348 c 2,26,-1
 849 294 l 2,27,28
 849 282 849 282 834.5 273.5 c 128,-1,29
 820 265 820 265 803 265 c 2,30,-1
 499 265 l 1,31,-1
 499 163 l 2,32,33
 499 116 499 116 535 81.5 c 128,-1,34
 571 47 571 47 629 47 c 256,35,36
 686 47 686 47 722 83 c 128,-1,37
 758 119 758 119 758 167 c 1,38,39
 772 167 772 167 787 162 c 128,-1,40
 802 157 802 157 815 148 c 128,-1,41
 828 139 828 139 833 126 c 128,-1,42
 838 113 838 113 832 98 c 0,43,44
 809 50 809 50 755 20.5 c 128,-1,45
 701 -9 701 -9 629 -9 c 0,46,47
 574 -9 574 -9 529 10 c 128,-1,48
 484 29 484 29 455 59 c 1,49,50
 425 24 425 24 377 7.5 c 128,-1,51
 329 -9 329 -9 279 -9 c 0,52,53
 232 -9 232 -9 192 3 c 128,-1,54
 152 15 152 15 122.5 37 c 128,-1,55
 93 59 93 59 76 89 c 128,-1,56
 59 119 59 119 59 155 c 256,57,58
 59 191 59 191 76 221.5 c 128,-1,59
 93 252 93 252 122.5 273.5 c 128,-1,60
 152 295 152 295 192 307.5 c 128,-1,61
 232 320 232 320 279 320 c 2,62,-1
 408 320 l 1,0,-1
279 265 m 2,63,64
 222 265 222 265 185 234 c 128,-1,65
 148 203 148 203 148 155 c 0,66,67
 148 109 148 109 185 78 c 128,-1,68
 222 47 222 47 279 47 c 0,69,70
 335 47 335 47 371.5 81.5 c 128,-1,71
 408 116 408 116 408 163 c 2,72,-1
 408 265 l 1,73,-1
 279 265 l 2,63,64
499 320 m 1,74,-1
 758 320 l 1,75,-1
 758 348 l 2,76,77
 758 396 758 396 722 431.5 c 128,-1,78
 686 467 686 467 629 467 c 0,79,80
 574 467 574 467 536.5 431.5 c 128,-1,81
 499 396 499 396 499 348 c 2,82,-1
 499 320 l 1,74,-1
EndSplineSet
EndChar
StartChar: eth
Encoding: 240 240 177
Width: 660
VWidth: 1507
Flags: W
HStem: -9 54<251.611 401.593> 469 53<247.969 387.112>
VStem: 59 89<155.588 325.323> 505 95<159.956 365.261>
Fore
161 540 m 1,0,1
 136 597 136 597 190 623 c 2,2,-1
 270 659 l 1,3,4
 240 677 240 677 211 690.5 c 128,-1,5
 182 704 182 704 154 716 c 1,6,-1
 181 772 l 1,7,8
 231 752 231 752 274 732.5 c 128,-1,9
 317 713 317 713 347 693 c 1,10,-1
 493 763 l 1,11,12
 517 707 517 707 464 680 c 2,13,-1
 404 653 l 1,14,15
 451 613 451 613 489.5 568 c 128,-1,16
 528 523 528 523 553 472 c 0,17,18
 600 380 600 380 600 270 c 0,19,20
 600 197 600 197 575 144.5 c 128,-1,21
 550 92 550 92 511 58 c 128,-1,22
 472 24 472 24 423 7.5 c 128,-1,23
 374 -9 374 -9 324 -9 c 0,24,25
 265 -9 265 -9 216 10.5 c 128,-1,26
 167 30 167 30 131.5 64.5 c 128,-1,27
 96 99 96 99 77.5 146.5 c 128,-1,28
 59 194 59 194 59 249 c 0,29,30
 59 312 59 312 82.5 362.5 c 128,-1,31
 106 413 106 413 143.5 448.5 c 128,-1,32
 181 484 181 484 230 503 c 128,-1,33
 279 522 279 522 329 522 c 0,34,35
 363 522 363 522 395 513.5 c 128,-1,36
 427 505 427 505 455 490 c 1,37,38
 407 565 407 565 333 620 c 1,39,-1
 161 540 l 1,0,1
505 262 m 256,40,41
 505 317 505 317 493.5 353 c 128,-1,42
 482 389 482 389 461 411 c 0,43,44
 436 433 436 433 403.5 451 c 128,-1,45
 371 469 371 469 329 469 c 0,46,47
 282 469 282 469 248 448.5 c 128,-1,48
 214 428 214 428 191.5 396.5 c 128,-1,49
 169 365 169 365 158.5 326.5 c 128,-1,50
 148 288 148 288 148 250 c 0,51,52
 148 200 148 200 163 162 c 128,-1,53
 178 124 178 124 203 98 c 128,-1,54
 228 72 228 72 259.5 58.5 c 128,-1,55
 291 45 291 45 323 45 c 0,56,57
 360 45 360 45 393.5 58.5 c 128,-1,58
 427 72 427 72 451.5 99.5 c 128,-1,59
 476 127 476 127 490.5 167.5 c 128,-1,60
 505 208 505 208 505 262 c 256,40,41
EndSplineSet
EndChar
StartChar: divide
Encoding: 247 247 184
Width: 633
VWidth: 1507
Flags: W
HStem: 66 116<264.658 366.311> 270 59<63.0819 565.887> 416 116<264.658 366.311>
VStem: 243 146<84.0482 164.467 434.048 513.952>
Fore
586 329 m 1,0,1
 586 301 586 301 566.5 285.5 c 128,-1,2
 547 270 547 270 514 270 c 2,3,-1
 44 270 l 1,4,5
 44 295 44 295 62.5 312 c 128,-1,6
 81 329 81 329 115 329 c 2,7,-1
 586 329 l 1,0,1
243 473 m 0,8,9
 243 497 243 497 264 514.5 c 128,-1,10
 285 532 285 532 315 532 c 256,11,12
 345 532 345 532 367 514.5 c 128,-1,13
 389 497 389 497 389 473 c 0,14,15
 389 451 389 451 367 433.5 c 128,-1,16
 345 416 345 416 315 416 c 256,17,18
 285 416 285 416 264 433.5 c 128,-1,19
 243 451 243 451 243 473 c 0,8,9
243 124 m 0,20,21
 243 148 243 148 264 165 c 128,-1,22
 285 182 285 182 315 182 c 256,23,24
 345 182 345 182 367 165 c 128,-1,25
 389 148 389 148 389 124 c 0,26,27
 389 101 389 101 367 83.5 c 128,-1,28
 345 66 345 66 315 66 c 256,29,30
 285 66 285 66 264 83.5 c 128,-1,31
 243 101 243 101 243 124 c 0,20,21
EndSplineSet
EndChar
StartChar: oslash
Encoding: 248 248 185
Width: 679
VWidth: 1507
Flags: W
HStem: -6 56<271.971 418.28> 470 55<260.93 411.06>
VStem: 60 89<170.627 348.89> 531 90<171.387 348.134>
Fore
424 517 m 2,0,1
 439 544 439 544 464.5 551 c 128,-1,2
 490 558 490 558 528 538 c 1,3,-1
 255 -5 l 2,4,5
 240 -32 240 -32 212.5 -38 c 128,-1,6
 185 -44 185 -44 149 -26 c 1,7,-1
 424 517 l 2,0,1
60 259 m 0,8,9
 60 314 60 314 82 362 c 128,-1,10
 104 410 104 410 141.5 446 c 128,-1,11
 179 482 179 482 229.5 503.5 c 128,-1,12
 280 525 280 525 339 525 c 256,13,14
 398 525 398 525 449 503.5 c 128,-1,15
 500 482 500 482 538.5 446 c 128,-1,16
 577 410 577 410 599 362 c 128,-1,17
 621 314 621 314 621 259 c 0,18,19
 621 203 621 203 599 155 c 128,-1,20
 577 107 577 107 538.5 71 c 128,-1,21
 500 35 500 35 449 14.5 c 128,-1,22
 398 -6 398 -6 339 -6 c 256,23,24
 280 -6 280 -6 229.5 14.5 c 128,-1,25
 179 35 179 35 141.5 71 c 128,-1,26
 104 107 104 107 82 155 c 128,-1,27
 60 203 60 203 60 259 c 0,8,9
149 259 m 256,28,29
 149 216 149 216 164 177.5 c 128,-1,30
 179 139 179 139 205 110 c 128,-1,31
 231 81 231 81 265.5 65.5 c 128,-1,32
 300 50 300 50 339 50 c 256,33,34
 378 50 378 50 413 65.5 c 128,-1,35
 448 81 448 81 474 110 c 128,-1,36
 500 139 500 139 515.5 177.5 c 128,-1,37
 531 216 531 216 531 259 c 256,38,39
 531 303 531 303 515.5 341.5 c 128,-1,40
 500 380 500 380 474 408.5 c 128,-1,41
 448 437 448 437 413 453.5 c 128,-1,42
 378 470 378 470 339 470 c 256,43,44
 300 470 300 470 265.5 453.5 c 128,-1,45
 231 437 231 437 205 408.5 c 128,-1,46
 179 380 179 380 164 341.5 c 128,-1,47
 149 303 149 303 149 259 c 256,28,29
EndSplineSet
EndChar
StartChar: thorn
Encoding: 254 254 191
Width: 617
VWidth: 1507
Flags: W
HStem: -213 21G<87 111.5> -9 56<246.107 385.634> 467 55<232.392 384.987> 705 20G<132.5 178>
VStem: 87 91<-198.56 23 98.4135 414.283 488 709.845> 439 89<98.9424 414.283>
Fore
178 164 m 2,0,1
 178 116 178 116 215 81.5 c 128,-1,2
 252 47 252 47 307 47 c 0,3,4
 365 47 365 47 402 81.5 c 128,-1,5
 439 116 439 116 439 164 c 2,6,-1
 439 350 l 2,7,8
 439 396 439 396 402 431.5 c 128,-1,9
 365 467 365 467 307 467 c 0,10,11
 252 467 252 467 215 431.5 c 128,-1,12
 178 396 178 396 178 350 c 2,13,-1
 178 164 l 2,0,1
307 -9 m 0,14,15
 270 -9 270 -9 237.5 -0.5 c 128,-1,16
 205 8 205 8 178 23 c 1,17,-1
 178 -161 l 2,18,19
 178 -185 178 -185 157 -199 c 128,-1,20
 136 -213 136 -213 87 -213 c 1,21,-1
 87 668 l 2,22,23
 87 725 87 725 178 725 c 1,24,-1
 178 488 l 1,25,26
 235 522 235 522 307 522 c 0,27,28
 354 522 354 522 394 508 c 128,-1,29
 434 494 434 494 463.5 471.5 c 128,-1,30
 493 449 493 449 510.5 417.5 c 128,-1,31
 528 386 528 386 528 350 c 2,32,-1
 528 164 l 2,33,34
 528 128 528 128 510.5 97 c 128,-1,35
 493 66 493 66 463.5 42 c 128,-1,36
 434 18 434 18 394 4.5 c 128,-1,37
 354 -9 354 -9 307 -9 c 0,14,15
EndSplineSet
EndChar
StartChar: Lslash
Encoding: 321 321 193
Width: 654
VWidth: 1507
Flags: W
HStem: 3 60<185 614.282>
Fore
20 237 m 1,0,1
 -17 292 -17 292 32 324 c 2,2,-1
 342 529 l 1,3,4
 378 470 378 470 332 442 c 2,5,-1
 20 237 l 1,0,1
555 63 m 2,6,7
 626 63 626 63 626 3 c 1,8,-1
 137 3 l 2,9,10
 116 3 116 3 102.5 13 c 128,-1,11
 89 23 89 23 89 36 c 2,12,-1
 89 666 l 2,13,14
 89 730 89 730 185 730 c 1,15,-1
 185 63 l 1,16,-1
 555 63 l 2,6,7
EndSplineSet
EndChar
StartChar: lslash
Encoding: 322 322 194
Width: 271
VWidth: 1507
Flags: W
HStem: -6 21G<87 135.5>
VStem: 87 97<11.7803 57 666 711.938>
Fore
18 238 m 1,0,1
 -17 292 -17 292 30 323 c 2,2,-1
 252 467 l 1,3,4
 288 411 288 411 241 381 c 2,5,-1
 18 238 l 1,0,1
184 57 m 2,6,7
 184 -6 184 -6 87 -6 c 1,8,-1
 87 666 l 2,9,10
 87 730 87 730 184 730 c 1,11,-1
 184 57 l 2,6,7
EndSplineSet
EndChar
StartChar: OE
Encoding: 338 338 195
Width: 1234
VWidth: 1507
Flags: W
HStem: -9 60<285.543 459.323 787.093 937.046> 330 60<672 957.117> 666 61<283.51 460.303 785.858 937.289>
VStem: 74 96<160.001 558.514> 576 96<160.001 330 390 491 491 558.514> 1078 92<160.001 185 185 215.313>
Fore
672 390 m 1,0,-1
 969 390 l 1,1,2
 969 330 969 330 897 330 c 2,3,-1
 672 330 l 1,4,-1
 672 228 l 2,5,6
 672 191 672 191 688 159 c 128,-1,7
 704 127 704 127 731 103.5 c 128,-1,8
 758 80 758 80 795 65.5 c 128,-1,9
 832 51 832 51 874 51 c 256,10,11
 916 51 916 51 953 65.5 c 128,-1,12
 990 80 990 80 1018 103.5 c 128,-1,13
 1046 127 1046 127 1062 159 c 128,-1,14
 1078 191 1078 191 1078 228 c 0,15,16
 1078 235 1078 235 1078 244 c 128,-1,17
 1078 253 1078 253 1076 261 c 1,18,19
 1093 261 1093 261 1111 256.5 c 128,-1,20
 1129 252 1129 252 1142.5 243 c 128,-1,21
 1156 234 1156 234 1164.5 219.5 c 128,-1,22
 1173 205 1173 205 1170 185 c 0,23,24
 1161 142 1161 142 1131.5 105.5 c 128,-1,25
 1102 69 1102 69 1061 43.5 c 128,-1,26
 1020 18 1020 18 971 4.5 c 128,-1,27
 922 -9 922 -9 874 -9 c 0,28,29
 803 -9 803 -9 735.5 18 c 128,-1,30
 668 45 668 45 624 98 c 1,31,32
 583 47 583 47 514 19 c 128,-1,33
 445 -9 445 -9 372 -9 c 0,34,35
 320 -9 320 -9 267 7 c 128,-1,36
 214 23 214 23 171 53.5 c 128,-1,37
 128 84 128 84 101 128 c 128,-1,38
 74 172 74 172 74 228 c 2,39,-1
 74 491 l 2,40,41
 74 546 74 546 100.5 589.5 c 128,-1,42
 127 633 127 633 169 663 c 128,-1,43
 211 693 211 693 264.5 710 c 128,-1,44
 318 727 318 727 372 727 c 0,45,46
 445 727 445 727 513.5 700.5 c 128,-1,47
 582 674 582 674 624 621 c 1,48,49
 666 674 666 674 733 700.5 c 128,-1,50
 800 727 800 727 874 727 c 0,51,52
 921 727 921 727 969 714.5 c 128,-1,53
 1017 702 1017 702 1058 679 c 128,-1,54
 1099 656 1099 656 1128.5 619.5 c 128,-1,55
 1158 583 1158 583 1170 535 c 0,56,57
 1174 514 1174 514 1166.5 499.5 c 128,-1,58
 1159 485 1159 485 1144.5 476 c 128,-1,59
 1130 467 1130 467 1112 462.5 c 128,-1,60
 1094 458 1094 458 1076 458 c 1,61,62
 1078 466 1078 466 1078 475 c 128,-1,63
 1078 484 1078 484 1078 491 c 0,64,65
 1078 528 1078 528 1062 559.5 c 128,-1,66
 1046 591 1046 591 1018 615 c 128,-1,67
 990 639 990 639 953 652.5 c 128,-1,68
 916 666 916 666 874 666 c 256,69,70
 832 666 832 666 795 652.5 c 128,-1,71
 758 639 758 639 731 615 c 128,-1,72
 704 591 704 591 688 559.5 c 128,-1,73
 672 528 672 528 672 491 c 2,74,-1
 672 390 l 1,0,-1
576 491 m 2,75,76
 576 528 576 528 560 559.5 c 128,-1,77
 544 591 544 591 516 615 c 128,-1,78
 488 639 488 639 451.5 652.5 c 128,-1,79
 415 666 415 666 372 666 c 256,80,81
 330 666 330 666 293 652.5 c 128,-1,82
 256 639 256 639 229 615 c 128,-1,83
 202 591 202 591 186 559.5 c 128,-1,84
 170 528 170 528 170 491 c 2,85,-1
 170 228 l 2,86,87
 170 191 170 191 186 159 c 128,-1,88
 202 127 202 127 229 103.5 c 128,-1,89
 256 80 256 80 293 65.5 c 128,-1,90
 330 51 330 51 372 51 c 256,91,92
 415 51 415 51 451.5 65.5 c 128,-1,93
 488 80 488 80 516 103.5 c 128,-1,94
 544 127 544 127 560 159 c 128,-1,95
 576 191 576 191 576 228 c 2,96,-1
 576 491 l 2,75,76
EndSplineSet
EndChar
StartChar: oe
Encoding: 339 339 196
Width: 940
VWidth: 1507
Flags: W
HStem: -9 56<215.845 369.412 565.579 697.155> 265 55<514 773> 467 55<217.127 369.874 567.201 719.128>
VStem: 74 89<98.9172 413.996> 424 90<99.5312 163 163 265 320 414.173> 773 91<320 413.996>
Fore
514 163 m 2,0,1
 514 116 514 116 550 81.5 c 128,-1,2
 586 47 586 47 644 47 c 0,3,4
 671 47 671 47 695 56.5 c 128,-1,5
 719 66 719 66 736.5 82.5 c 128,-1,6
 754 99 754 99 763.5 121 c 128,-1,7
 773 143 773 143 773 167 c 1,8,9
 787 167 787 167 802 162 c 128,-1,10
 817 157 817 157 830 148 c 128,-1,11
 843 139 843 139 848 126 c 128,-1,12
 853 113 853 113 847 98 c 0,13,14
 824 50 824 50 770 20.5 c 128,-1,15
 716 -9 716 -9 644 -9 c 0,16,17
 588 -9 588 -9 542 10 c 128,-1,18
 496 29 496 29 467 59 c 1,19,20
 439 29 439 29 393 10 c 128,-1,21
 347 -9 347 -9 294 -9 c 0,22,23
 247 -9 247 -9 207 4.5 c 128,-1,24
 167 18 167 18 138 41.5 c 128,-1,25
 109 65 109 65 91.5 96 c 128,-1,26
 74 127 74 127 74 163 c 2,27,-1
 74 348 l 2,28,29
 74 384 74 384 91.5 416 c 128,-1,30
 109 448 109 448 138 471 c 128,-1,31
 167 494 167 494 207 508 c 128,-1,32
 247 522 247 522 294 522 c 0,33,34
 347 522 347 522 393.5 503.5 c 128,-1,35
 440 485 440 485 469 455 c 1,36,37
 497 485 497 485 541.5 503.5 c 128,-1,38
 586 522 586 522 644 522 c 0,39,40
 689 522 689 522 729.5 508 c 128,-1,41
 770 494 770 494 799.5 471 c 128,-1,42
 829 448 829 448 846.5 416 c 128,-1,43
 864 384 864 384 864 348 c 2,44,-1
 864 294 l 2,45,46
 864 282 864 282 849.5 273.5 c 128,-1,47
 835 265 835 265 818 265 c 2,48,-1
 514 265 l 1,49,-1
 514 163 l 2,0,1
294 467 m 0,50,51
 237 467 237 467 200 431.5 c 128,-1,52
 163 396 163 396 163 348 c 2,53,-1
 163 163 l 2,54,55
 163 116 163 116 200 81.5 c 128,-1,56
 237 47 237 47 294 47 c 0,57,58
 347 47 347 47 385.5 81 c 128,-1,59
 424 115 424 115 424 163 c 2,60,-1
 424 348 l 2,61,62
 424 396 424 396 387 431.5 c 128,-1,63
 350 467 350 467 294 467 c 0,50,51
514 320 m 1,64,-1
 773 320 l 1,65,-1
 773 348 l 2,66,67
 773 396 773 396 736 431.5 c 128,-1,68
 699 467 699 467 644 467 c 0,69,70
 586 467 586 467 550 431.5 c 128,-1,71
 514 396 514 396 514 348 c 2,72,-1
 514 320 l 1,64,-1
EndSplineSet
EndChar
StartChar: florin
Encoding: 402 402 202
Width: 605
VWidth: 1507
Flags: W
HStem: -80 53.5<59 76 76 86.0626 86.0626 96.1875 91.1251 154.234> -25 20G<18.5 44> 384 55<141.535 237 335 471.95> 671 56<406.535 479.729 474.458 485 485 495 501 528.624>
Fore
531 653 m 1,0,1
 514 660 514 660 495 665.5 c 128,-1,2
 476 671 476 671 461 671 c 0,3,4
 431 671 431 671 410 656 c 128,-1,5
 389 641 389 641 374.5 615 c 128,-1,6
 360 589 360 589 352 555.5 c 128,-1,7
 344 522 344 522 341 485 c 2,8,-1
 335 439 l 1,9,-1
 490 439 l 1,10,11
 490 413 490 413 472.5 398.5 c 128,-1,12
 455 384 455 384 425 384 c 2,13,-1
 330 384 l 1,14,-1
 304 160 l 2,15,16
 292 48 292 48 247 -19 c 128,-1,17
 202 -86 202 -86 104 -86 c 0,18,19
 75 -86 75 -86 59 -80 c 0,20,21
 8 -60 8 -60 29 -5 c 1,22,23
 59 -21 59 -21 76 -26.5 c 128,-1,24
 93 -32 93 -32 110 -32 c 0,25,26
 134 -32 134 -32 151.5 -17.5 c 128,-1,27
 169 -3 169 -3 181 20.5 c 128,-1,28
 193 44 193 44 199.5 73 c 128,-1,29
 206 102 206 102 210 134 c 2,30,-1
 237 384 l 1,31,-1
 124 384 l 1,32,33
 124 410 124 410 141 424.5 c 128,-1,34
 158 439 158 439 190 439 c 2,35,-1
 243 439 l 1,36,37
 243 449 243 449 246 461 c 2,38,39
 246 467 246 467 246.5 474 c 128,-1,40
 247 481 247 481 247 487 c 0,41,42
 259 594 259 594 313.5 660.5 c 128,-1,43
 368 727 368 727 469 727 c 0,44,45
 485 727 485 727 501 723.5 c 128,-1,46
 517 720 517 720 529 716 c 1,47,48
 550 704 550 704 558.5 687.5 c 128,-1,49
 567 671 567 671 556 654 c 1,50,-1
 531 653 l 1,0,1
EndSplineSet
EndChar
StartChar: circumflex
Encoding: 710 710 203
Width: 491
VWidth: 1507
Flags: W
HStem: 558 162
VStem: 84 321<576 576 576 576>
Fore
244 720 m 256,0,1
 265 720 265 720 274 711 c 2,2,-1
 405 576 l 1,3,4
 383 558 383 558 354.5 558 c 128,-1,5
 326 558 326 558 309 574 c 2,6,-1
 244 642 l 1,7,-1
 179 574 l 2,8,9
 163 558 163 558 135 558 c 128,-1,10
 107 558 107 558 84 576 c 1,11,-1
 214 711 l 2,12,13
 223 720 223 720 244 720 c 256,0,1
EndSplineSet
EndChar
StartChar: breve
Encoding: 728 728 205
Width: 482
VWidth: 1507
Flags: W
HStem: 558 57<192.439 288.154> 705 20G<128 146 335 353>
VStem: 60 359<654 684 684 701 684 684 684 684> 335 84<652.307 684 684 712.245>
Fore
240 558 m 256,0,1
 213 558 213 558 182 566 c 128,-1,2
 151 574 151 574 124.5 590.5 c 128,-1,3
 98 607 98 607 80 630.5 c 128,-1,4
 62 654 62 654 60 684 c 0,5,6
 59 701 59 701 84.5 713 c 128,-1,7
 110 725 110 725 146 725 c 1,8,9
 146 677 146 677 172.5 646 c 128,-1,10
 199 615 199 615 240 615 c 0,11,12
 282 615 282 615 308.5 646 c 128,-1,13
 335 677 335 677 335 725 c 1,14,15
 371 725 371 725 396 713 c 128,-1,16
 421 701 421 701 419 684 c 0,17,18
 418 654 418 654 400.5 630.5 c 128,-1,19
 383 607 383 607 356.5 590.5 c 128,-1,20
 330 574 330 574 298.5 566 c 128,-1,21
 267 558 267 558 240 558 c 256,0,1
EndSplineSet
EndChar
StartChar: dotaccent
Encoding: 729 729 206
Width: 268
VWidth: 1507
Flags: W
HStem: 638 107<85.1119 182.404>
VStem: 65 137<653.986 728.499>
Fore
65 692 m 0,0,1
 65 713 65 713 84.5 729 c 128,-1,2
 104 745 104 745 134 745 c 256,3,4
 164 745 164 745 183 729 c 128,-1,5
 202 713 202 713 202 692 c 0,6,7
 202 669 202 669 183 653.5 c 128,-1,8
 164 638 164 638 134 638 c 256,9,10
 104 638 104 638 84.5 653.5 c 128,-1,11
 65 669 65 669 65 692 c 0,0,1
EndSplineSet
EndChar
StartChar: ring
Encoding: 730 730 207
Width: 449
VWidth: 1507
Flags: W
HStem: 591 42<190.653 256.777> 751 42<189.953 256.319>
VStem: 106 73<645.612 728.679> 268 73<645.472 728.368>
Fore
106 692 m 0,0,1
 106 728 106 728 138 760.5 c 128,-1,2
 170 793 170 793 223 793 c 256,3,4
 276 793 276 793 308.5 760.5 c 128,-1,5
 341 728 341 728 341 692 c 0,6,7
 341 648 341 648 308.5 619.5 c 128,-1,8
 276 591 276 591 223 591 c 0,9,10
 175 591 175 591 140.5 620.5 c 128,-1,11
 106 650 106 650 106 692 c 0,0,1
179 692 m 0,12,13
 179 666 179 666 192 649.5 c 128,-1,14
 205 633 205 633 223 633 c 0,15,16
 243 633 243 633 255.5 649.5 c 128,-1,17
 268 666 268 666 268 692 c 0,18,19
 268 713 268 713 256 732 c 128,-1,20
 244 751 244 751 223 751 c 256,21,22
 202 751 202 751 190.5 732 c 128,-1,23
 179 713 179 713 179 692 c 0,12,13
EndSplineSet
EndChar
StartChar: ogonek
Encoding: 731 731 208
Width: 292
VWidth: 1507
Flags: W
HStem: -210 227<148 170 95 170 95 95> -210 47<151.5 229.106>
VStem: 42 89<-145.766 -93.5654>
Fore
42 -116 m 0,0,1
 42 -89 42 -89 69 -68 c 128,-1,2
 96 -47 96 -47 136 -42 c 1,3,-1
 95 17 l 1,4,-1
 170 17 l 1,5,-1
 237 -83 l 1,6,7
 196 -80 196 -80 163.5 -89.5 c 128,-1,8
 131 -99 131 -99 131 -124 c 0,9,10
 131 -142 131 -142 144 -152.5 c 128,-1,11
 157 -163 157 -163 170 -163 c 0,12,13
 202 -163 202 -163 249 -127 c 1,14,15
 265 -149 265 -149 262 -165 c 128,-1,16
 259 -181 259 -181 241 -193 c 0,17,18
 216 -210 216 -210 170 -210 c 0,19,20
 148 -210 148 -210 124.5 -203.5 c 128,-1,21
 101 -197 101 -197 83 -185 c 128,-1,22
 65 -173 65 -173 53.5 -156 c 128,-1,23
 42 -139 42 -139 42 -116 c 0,0,1
EndSplineSet
EndChar
StartChar: tilde
Encoding: 732 732 209
Width: 381
VWidth: 1507
Flags: W
HStem: 592 53<238.556 280.31> 662 52<98.5394 140.747>
VStem: 18 342<636 639 668 672 639 668 639 639>
Fore
217 674 m 1,0,1
 231 662 231 662 243 653.5 c 128,-1,2
 255 645 255 645 262 645 c 0,3,4
 274 645 274 645 280 664 c 128,-1,5
 286 683 286 683 274 708 c 1,6,7
 295 716 295 716 312 714.5 c 128,-1,8
 329 713 329 713 340 706 c 128,-1,9
 351 699 351 699 356.5 688.5 c 128,-1,10
 362 678 362 678 360 668 c 0,11,12
 356 636 356 636 330 614 c 128,-1,13
 304 592 304 592 262 592 c 0,14,15
 228 592 228 592 209 602.5 c 128,-1,16
 190 613 190 613 172 627 c 1,17,-1
 175 627 l 1,18,-1
 161 635 l 2,19,20
 149 644 149 644 136.5 653 c 128,-1,21
 124 662 124 662 116 662 c 0,22,23
 104 662 104 662 98.5 643 c 128,-1,24
 93 624 93 624 104 600 c 1,25,26
 83 592 83 592 66.5 593 c 128,-1,27
 50 594 50 594 38.5 600.5 c 128,-1,28
 27 607 27 607 21 618 c 128,-1,29
 15 629 15 629 18 639 c 0,30,31
 24 672 24 672 50.5 693 c 128,-1,32
 77 714 77 714 116 714 c 0,33,34
 151 714 151 714 169.5 704.5 c 128,-1,35
 188 695 188 695 205 681 c 1,36,-1
 202 681 l 1,37,-1
 213 674 l 1,38,-1
 217 674 l 1,0,1
EndSplineSet
EndChar
StartChar: uni0E01
Encoding: 3585 3585 212
Width: 660
VWidth: 1507
Flags: W
HStem: -9 21G<188.5 208 476 495.5> 550 57<253.705 353.592>
VStem: 59 92<404.391 464.218> 115 93<14.2639 296.956> 476 94<14.2639 458.702>
Fore
115 291 m 1,0,1
 113 294 113 294 104.5 310 c 128,-1,2
 96 326 96 326 87 344 c 0,3,4
 77 365 77 365 63 390 c 0,5,6
 59 399 59 399 59 405 c 0,7,8
 59 451 59 451 81.5 488 c 128,-1,9
 104 525 104 525 140 552 c 128,-1,10
 176 579 176 579 221.5 593 c 128,-1,11
 267 607 267 607 314 607 c 0,12,13
 359 607 359 607 405 593.5 c 128,-1,14
 451 580 451 580 488 554 c 128,-1,15
 525 528 525 528 547.5 490 c 128,-1,16
 570 452 570 452 570 405 c 2,17,-1
 570 57 l 2,18,19
 570 29 570 29 542.5 10 c 128,-1,20
 515 -9 515 -9 476 -9 c 1,21,-1
 476 405 l 2,22,23
 476 434 476 434 463.5 459.5 c 128,-1,24
 451 485 451 485 428 505.5 c 128,-1,25
 405 526 405 526 376 538 c 128,-1,26
 347 550 347 550 314 550 c 0,27,28
 282 550 282 550 252.5 539 c 128,-1,29
 223 528 223 528 201 509 c 128,-1,30
 179 490 179 490 165.5 465 c 128,-1,31
 152 440 152 440 151 413 c 1,32,33
 152 408 152 408 161 392.5 c 128,-1,34
 170 377 170 377 179 359 c 0,35,36
 190 338 190 338 203 314 c 1,37,-1
 208 298 l 1,38,-1
 208 -9 l 1,39,40
 169 -9 169 -9 142 10 c 128,-1,41
 115 29 115 29 115 57 c 2,42,-1
 115 291 l 1,0,1
EndSplineSet
EndChar
StartChar: uni0E02
Encoding: 3586 3586 213
Width: 634
VWidth: 1507
Flags: W
HStem: -9 57<321.149 413.058> 309 48<117.803 192.367> 454 40<135.194 192.367> 550 57<160.581 270.616>
VStem: 32 75<367.933 443.42> 190 92<79.3607 251.356> 203 62<367.685 443.556> 309 93<376.245 504.935> 451 93<79.3607 582.145>
Fore
451 540 m 2,0,1
 451 567 451 567 478 586.5 c 128,-1,2
 505 606 505 606 544 606 c 1,3,-1
 544 139 l 2,4,5
 544 106 544 106 529.5 78.5 c 128,-1,6
 515 51 515 51 490.5 31.5 c 128,-1,7
 466 12 466 12 433.5 1.5 c 128,-1,8
 401 -9 401 -9 366 -9 c 256,9,10
 332 -9 332 -9 299.5 1.5 c 128,-1,11
 267 12 267 12 243 31.5 c 128,-1,12
 219 51 219 51 204.5 78.5 c 128,-1,13
 190 106 190 106 190 139 c 2,14,-1
 190 167 l 2,15,16
 190 220 190 220 216.5 266 c 128,-1,17
 243 312 243 312 277 359 c 0,18,19
 309 395 309 395 309 437 c 0,20,21
 309 481 309 481 282 515.5 c 128,-1,22
 255 550 255 550 217 550 c 0,23,24
 187 550 187 550 163.5 533.5 c 128,-1,25
 140 517 140 517 128 491 c 1,26,27
 136 493 136 493 142 493.5 c 128,-1,28
 148 494 148 494 155 494 c 0,29,30
 202 494 202 494 233.5 469.5 c 128,-1,31
 265 445 265 445 265 405 c 256,32,33
 265 366 265 366 233.5 337.5 c 128,-1,34
 202 309 202 309 155 309 c 0,35,36
 99 309 99 309 65.5 347.5 c 128,-1,37
 32 386 32 386 32 437 c 0,38,39
 32 472 32 472 46 503 c 128,-1,40
 60 534 60 534 85 557 c 128,-1,41
 110 580 110 580 144 593.5 c 128,-1,42
 178 607 178 607 217 607 c 0,43,44
 255 607 255 607 289 593.5 c 128,-1,45
 323 580 323 580 347.5 557 c 128,-1,46
 372 534 372 534 387 503 c 128,-1,47
 402 472 402 472 402 437 c 0,48,49
 402 410 402 410 385.5 380 c 128,-1,50
 369 350 369 350 344 320 c 256,51,52
 318 289 318 289 300.5 252.5 c 128,-1,53
 283 216 283 216 282 167 c 2,54,-1
 282 139 l 2,55,56
 282 99 282 99 307 73.5 c 128,-1,57
 332 48 332 48 366 48 c 256,58,59
 401 48 401 48 426 72 c 128,-1,60
 451 96 451 96 451 139 c 2,61,-1
 451 540 l 2,0,1
107 405 m 256,62,63
 107 384 107 384 120.5 370.5 c 128,-1,64
 134 357 134 357 155 357 c 256,65,66
 176 357 176 357 189.5 370.5 c 128,-1,67
 203 384 203 384 203 405 c 256,68,69
 203 427 203 427 189.5 440.5 c 128,-1,70
 176 454 176 454 155 454 c 256,71,72
 134 454 134 454 120.5 440.5 c 128,-1,73
 107 427 107 427 107 405 c 256,62,63
EndSplineSet
EndChar
StartChar: uni0E03
Encoding: 3587 3587 214
Width: 634
VWidth: 1507
Flags: W
HStem: -9 57<321.149 413.058> 309 48<117.803 192.367> 454 40<126.353 192.367> 587 20G<154.5 179.5 258 282.5 524.5 544>
VStem: 32 75<367.933 443.644> 190 92<79.3607 167 167 251.356> 203 62<367.685 443.556> 309 93<376.245 475.425> 451 93<79.3607 582.145>
Fore
155 494 m 0,0,1
 202 494 202 494 233.5 469.5 c 128,-1,2
 265 445 265 445 265 405 c 256,3,4
 265 366 265 366 233.5 337.5 c 128,-1,5
 202 309 202 309 155 309 c 0,6,7
 99 309 99 309 65.5 347.5 c 128,-1,8
 32 386 32 386 32 437 c 0,9,10
 32 464 32 464 41 493.5 c 128,-1,11
 50 523 50 523 65 549 c 0,12,13
 83 576 83 576 110 591.5 c 128,-1,14
 137 607 137 607 172 607 c 0,15,16
 187 607 187 607 198.5 599 c 128,-1,17
 210 591 210 591 219 583 c 1,18,19
 226 591 226 591 237.5 599 c 128,-1,20
 249 607 249 607 267 607 c 0,21,22
 298 607 298 607 324 592 c 128,-1,23
 350 577 350 577 367 553 c 128,-1,24
 384 529 384 529 393 499 c 128,-1,25
 402 469 402 469 402 437 c 0,26,27
 402 410 402 410 385.5 380 c 128,-1,28
 369 350 369 350 344 320 c 256,29,30
 318 289 318 289 300.5 252.5 c 128,-1,31
 283 216 283 216 282 167 c 2,32,-1
 282 139 l 2,33,34
 282 99 282 99 307 73.5 c 128,-1,35
 332 48 332 48 366 48 c 256,36,37
 401 48 401 48 426 72 c 128,-1,38
 451 96 451 96 451 139 c 2,39,-1
 451 540 l 2,40,41
 451 567 451 567 478 586.5 c 128,-1,42
 505 606 505 606 544 606 c 1,43,-1
 544 139 l 2,44,45
 544 106 544 106 529.5 78.5 c 128,-1,46
 515 51 515 51 490.5 31.5 c 128,-1,47
 466 12 466 12 433.5 1.5 c 128,-1,48
 401 -9 401 -9 366 -9 c 256,49,50
 332 -9 332 -9 299.5 1.5 c 128,-1,51
 267 12 267 12 243 31.5 c 128,-1,52
 219 51 219 51 204.5 78.5 c 128,-1,53
 190 106 190 106 190 139 c 2,54,-1
 190 167 l 2,55,56
 190 220 190 220 216.5 266 c 128,-1,57
 243 312 243 312 277 359 c 0,58,59
 309 395 309 395 309 437 c 0,60,61
 309 466 309 466 300.5 498.5 c 128,-1,62
 292 531 292 531 280 546 c 1,63,64
 274 541 274 541 269.5 536 c 128,-1,65
 265 531 265 531 261 526 c 0,66,67
 255 520 255 520 250 517 c 0,68,69
 238 505 238 505 219 505 c 128,-1,70
 200 505 200 505 188 517 c 2,71,-1
 178 528 l 1,72,-1
 158 547 l 1,73,74
 151 540 151 540 142 524.5 c 128,-1,75
 133 509 133 509 125 490 c 1,76,77
 140 494 140 494 155 494 c 0,0,1
107 405 m 256,78,79
 107 384 107 384 120.5 370.5 c 128,-1,80
 134 357 134 357 155 357 c 256,81,82
 176 357 176 357 189.5 370.5 c 128,-1,83
 203 384 203 384 203 405 c 256,84,85
 203 427 203 427 189.5 440.5 c 128,-1,86
 176 454 176 454 155 454 c 256,87,88
 134 454 134 454 120.5 440.5 c 128,-1,89
 107 427 107 427 107 405 c 256,78,79
EndSplineSet
EndChar
StartChar: uni0E04
Encoding: 3588 3588 215
Width: 690
VWidth: 1507
Flags: W
HStem: -9 21G<159.5 186.491 506 526> 261 46<306.094 381.413> 404 48<306.029 381.413> 550 57<285.5 402.522>
VStem: 87 94<213 405 405 458.702> 392 63<318.011 393.315> 506 94<14.2639 458.702>
Fore
344 607 m 0,0,1
 389 607 389 607 434 593 c 128,-1,2
 479 579 479 579 516 553.5 c 128,-1,3
 553 528 553 528 576.5 490 c 128,-1,4
 600 452 600 452 600 405 c 2,5,-1
 600 57 l 2,6,7
 600 29 600 29 573 10 c 128,-1,8
 546 -9 546 -9 506 -9 c 1,9,-1
 506 405 l 2,10,11
 506 434 506 434 493.5 459.5 c 128,-1,12
 481 485 481 485 458.5 505.5 c 128,-1,13
 436 526 436 526 406.5 538 c 128,-1,14
 377 550 377 550 344 550 c 256,15,16
 311 550 311 550 281.5 538 c 128,-1,17
 252 526 252 526 229 505.5 c 128,-1,18
 206 485 206 485 193.5 459.5 c 128,-1,19
 181 434 181 434 181 405 c 2,20,-1
 181 213 l 1,21,-1
 243 393 l 2,22,23
 253 419 253 419 280 435.5 c 128,-1,24
 307 452 307 452 344 452 c 0,25,26
 387 452 387 452 421 423.5 c 128,-1,27
 455 395 455 395 455 356 c 256,28,29
 455 317 455 317 421 289 c 128,-1,30
 387 261 387 261 344 261 c 0,31,32
 307 261 307 261 285 274 c 1,33,-1
 179 -9 l 1,34,35
 140 -9 140 -9 113.5 10 c 128,-1,36
 87 29 87 29 87 57 c 2,37,-1
 87 405 l 2,38,39
 87 451 87 451 110 488 c 128,-1,40
 133 525 133 525 169 552 c 128,-1,41
 205 579 205 579 251 593 c 128,-1,42
 297 607 297 607 344 607 c 0,0,1
295 356 m 256,43,44
 295 335 295 335 309 321 c 128,-1,45
 323 307 323 307 344 307 c 256,46,47
 365 307 365 307 378.5 321 c 128,-1,48
 392 335 392 335 392 356 c 256,49,50
 392 377 392 377 378.5 390.5 c 128,-1,51
 365 404 365 404 344 404 c 256,52,53
 323 404 323 404 309 390.5 c 128,-1,54
 295 377 295 377 295 356 c 256,43,44
EndSplineSet
EndChar
StartChar: uni0E05
Encoding: 3589 3589 216
Width: 690
VWidth: 1507
Flags: W
HStem: -9 21G<159.5 186.852 506 526> 247 47<306.094 381.117> 390 49<306.029 381.117> 587 20G<245 267 420.5 444>
VStem: 87 94<208 506.482> 392 63<304.765 379.394> 506 94<14.2639 506.482>
Fore
181 208 m 1,0,-1
 243 380 l 2,1,2
 253 405 253 405 280 422 c 128,-1,3
 307 439 307 439 344 439 c 0,4,5
 390 439 390 439 422.5 410 c 128,-1,6
 455 381 455 381 455 342 c 256,7,8
 455 303 455 303 422.5 275 c 128,-1,9
 390 247 390 247 344 247 c 0,10,11
 307 247 307 247 285 261 c 1,12,-1
 179 -9 l 1,13,14
 140 -9 140 -9 113.5 10 c 128,-1,15
 87 29 87 29 87 57 c 2,16,-1
 87 434 l 2,17,18
 87 475 87 475 104 507.5 c 128,-1,19
 121 540 121 540 146.5 562.5 c 128,-1,20
 172 585 172 585 202 596 c 128,-1,21
 232 607 232 607 258 607 c 0,22,23
 276 607 276 607 285 598 c 0,24,25
 295 589 295 589 306 583 c 2,26,27
 315 576 315 576 325.5 570 c 128,-1,28
 336 564 336 564 344 556 c 1,29,30
 353 564 353 564 362.5 570.5 c 128,-1,31
 372 577 372 577 381 585 c 0,32,33
 402 600 l 1,34,35
 410 607 410 607 431 607 c 0,36,37
 457 607 457 607 486 596 c 128,-1,38
 515 585 515 585 541 562.5 c 128,-1,39
 567 540 567 540 583.5 507.5 c 128,-1,40
 600 475 600 475 600 434 c 2,41,-1
 600 57 l 2,42,43
 600 29 600 29 573 10 c 128,-1,44
 546 -9 546 -9 506 -9 c 1,45,-1
 506 434 l 2,46,47
 506 479 506 479 486.5 508.5 c 128,-1,48
 467 538 467 538 448 546 c 1,49,50
 440 540 440 540 428 530 c 128,-1,51
 416 520 416 520 404.5 511 c 128,-1,52
 393 502 393 502 383.5 495 c 128,-1,53
 374 488 374 488 372 487 c 1,54,-1
 374 487 l 1,55,56
 360 475 360 475 343.5 475 c 128,-1,57
 327 475 327 475 314 487 c 0,58,59
 283 511 l 0,60,61
 271 522 271 522 259 531.5 c 128,-1,62
 247 541 247 541 241 546 c 1,63,64
 220 538 220 538 200.5 508.5 c 128,-1,65
 181 479 181 479 181 434 c 2,66,-1
 181 208 l 1,0,-1
295 342 m 256,67,68
 295 321 295 321 309 307.5 c 128,-1,69
 323 294 323 294 344 294 c 256,70,71
 365 294 365 294 378.5 307.5 c 128,-1,72
 392 321 392 321 392 342 c 256,73,74
 392 363 392 363 378.5 376.5 c 128,-1,75
 365 390 365 390 344 390 c 256,76,77
 323 390 323 390 309 376.5 c 128,-1,78
 295 363 295 363 295 342 c 256,67,68
EndSplineSet
EndChar
StartChar: uni0E06
Encoding: 3590 3590 217
Width: 721
VWidth: 1507
Flags: W
HStem: -9 51<132.803 208.228> 139 49<132.803 191.891> 309 48<117.803 192.476> 454 40<126.353 192.476> 587 20G<154.5 179.5 258 282.5 612 632>
VStem: 32 75<367.933 443.644> 57 65<52.5544 128.298> 190 92<187 252.842> 203 64<367.685 443.556> 309 93<376.245 475.425> 538 94<66 582.145>
Fore
158 547 m 1,0,1
 151 540 151 540 142 524.5 c 128,-1,2
 133 509 133 509 125 490 c 1,3,4
 140 494 140 494 155 494 c 0,5,6
 202 494 202 494 234.5 469.5 c 128,-1,7
 267 445 267 445 267 405 c 256,8,9
 267 366 267 366 234.5 337.5 c 128,-1,10
 202 309 202 309 155 309 c 0,11,12
 99 309 99 309 65.5 347.5 c 128,-1,13
 32 386 32 386 32 437 c 0,14,15
 32 464 32 464 41 493.5 c 128,-1,16
 50 523 50 523 66 549 c 0,17,18
 83 576 83 576 110 591.5 c 128,-1,19
 137 607 137 607 172 607 c 0,20,21
 187 607 187 607 198.5 599 c 128,-1,22
 210 591 210 591 219 583 c 1,23,24
 226 591 226 591 237.5 599 c 128,-1,25
 249 607 249 607 267 607 c 0,26,27
 298 607 298 607 324 592 c 128,-1,28
 350 577 350 577 367 553 c 128,-1,29
 384 529 384 529 393 499 c 128,-1,30
 402 469 402 469 402 437 c 0,31,32
 402 410 402 410 385.5 380 c 128,-1,33
 369 350 369 350 344 320 c 0,34,35
 320 291 320 291 301 254 c 128,-1,36
 282 217 282 217 282 173 c 0,37,38
 282 163 282 163 283 157 c 1,39,-1
 538 66 l 1,40,-1
 538 540 l 2,41,42
 538 567 538 567 565 586.5 c 128,-1,43
 592 606 592 606 632 606 c 1,44,-1
 632 57 l 2,45,46
 632 29 632 29 608.5 10 c 128,-1,47
 585 -9 585 -9 550 -9 c 1,48,-1
 283 86 l 1,49,50
 280 45 280 45 248.5 18 c 128,-1,51
 217 -9 217 -9 170 -9 c 0,52,53
 122 -9 122 -9 89.5 19.5 c 128,-1,54
 57 48 57 48 57 90 c 0,55,56
 57 130 57 130 89.5 159 c 128,-1,57
 122 188 122 188 170 188 c 0,58,59
 182 188 182 188 190 187 c 1,60,61
 196 232 196 232 221.5 274.5 c 128,-1,62
 247 317 247 317 277 359 c 0,63,64
 309 395 309 395 309 437 c 0,65,66
 309 466 309 466 300.5 498.5 c 128,-1,67
 292 531 292 531 280 546 c 1,68,69
 274 541 274 541 269.5 536 c 128,-1,70
 265 531 265 531 261 526 c 2,71,-1
 252 517 l 2,72,73
 240 505 240 505 220 505 c 128,-1,74
 200 505 200 505 188 517 c 2,75,-1
 178 528 l 1,76,-1
 158 547 l 1,0,1
107 405 m 256,77,78
 107 384 107 384 120.5 370.5 c 128,-1,79
 134 357 134 357 155 357 c 256,80,81
 176 357 176 357 189.5 370.5 c 128,-1,82
 203 384 203 384 203 405 c 256,83,84
 203 427 203 427 189.5 440.5 c 128,-1,85
 176 454 176 454 155 454 c 256,86,87
 134 454 134 454 120.5 440.5 c 128,-1,88
 107 427 107 427 107 405 c 256,77,78
122 90 m 256,89,90
 122 69 122 69 135.5 55.5 c 128,-1,91
 149 42 149 42 170 42 c 256,92,93
 191 42 191 42 205 55.5 c 128,-1,94
 219 69 219 69 219 90 c 256,95,96
 219 112 219 112 205 125.5 c 128,-1,97
 191 139 191 139 170 139 c 256,98,99
 149 139 149 139 135.5 125.5 c 128,-1,100
 122 112 122 112 122 90 c 256,89,90
EndSplineSet
EndChar
StartChar: uni0E07
Encoding: 3591 3591 218
Width: 575
VWidth: 1507
Flags: W
HStem: -9 21G<336.5 416.5> 418 45<340.924 392.594> 559 48<337.883 412.919>
VStem: 264 63<473.42 548.315> 393 92<107 418> 424 61<476.924 545.076>
Fore
375 607 m 128,-1,1
 421 607 421 607 453 578.5 c 128,-1,2
 485 550 485 550 485 511 c 2,3,-1
 485 57 l 2,4,5
 485 29 485 29 459.5 10 c 128,-1,6
 434 -9 434 -9 399 -9 c 1,7,8
 274 128 274 128 206.5 203.5 c 128,-1,9
 139 279 139 279 107 314 c 2,10,-1
 65 360 l 1,11,-1
 66 360 l 1,12,13
 50 377 50 377 53 404 c 128,-1,14
 56 431 56 431 80 455 c 1,15,-1
 393 107 l 1,16,-1
 393 418 l 1,17,-1
 375 418 l 2,18,19
 329 418 329 418 296.5 445 c 128,-1,20
 264 472 264 472 264 511 c 256,21,22
 264 550 264 550 296.5 578.5 c 128,-1,0
 329 607 329 607 375 607 c 128,-1,1
327 511 m 256,23,24
 327 490 327 490 340.5 476.5 c 128,-1,25
 354 463 354 463 375 463 c 256,26,27
 396 463 396 463 410 476.5 c 128,-1,28
 424 490 424 490 424 511 c 256,29,30
 424 532 424 532 410 545.5 c 128,-1,31
 396 559 396 559 375 559 c 256,32,33
 354 559 354 559 340.5 545.5 c 128,-1,34
 327 532 327 532 327 511 c 256,23,24
EndSplineSet
EndChar
StartChar: uni0E08
Encoding: 3592 3592 219
Width: 617
VWidth: 1507
Flags: W
HStem: -9 21G<429.071 455.5> 262 47<247.631 322.455> 405 49<247.631 322.235> 550 57<222.322 336.248>
VStem: 175 62<319.765 394.394> 434 94<231 435.107>
Fore
339 271 m 1,0,1
 317 262 317 262 285 262 c 0,2,3
 240 262 240 262 207.5 290 c 128,-1,4
 175 318 175 318 175 357 c 256,5,6
 175 396 175 396 207.5 425 c 128,-1,7
 240 454 240 454 285 454 c 0,8,9
 324 454 324 454 352 434.5 c 128,-1,10
 380 415 380 415 390 386 c 2,11,-1
 434 231 l 1,12,-1
 434 405 l 2,13,14
 434 434 434 434 422 460.5 c 128,-1,15
 410 487 410 487 389 506.5 c 128,-1,16
 368 526 368 526 340 538 c 128,-1,17
 312 550 312 550 279 550 c 0,18,19
 247 550 247 550 218.5 538 c 128,-1,20
 190 526 190 526 169 506.5 c 128,-1,21
 148 487 148 487 136 460.5 c 128,-1,22
 124 434 124 434 124 405 c 0,23,24
 124 395 124 395 124 389 c 128,-1,25
 124 383 124 383 125 374 c 1,26,27
 87 374 87 374 58.5 391 c 128,-1,28
 30 408 30 408 33 434 c 0,29,30
 39 470 39 470 60 502 c 128,-1,31
 81 534 81 534 114.5 557 c 128,-1,32
 148 580 148 580 189.5 593.5 c 128,-1,33
 231 607 231 607 279 607 c 0,34,35
 332 607 332 607 377 591.5 c 128,-1,36
 422 576 422 576 456 549 c 128,-1,37
 490 522 490 522 509 485 c 128,-1,38
 528 448 528 448 528 405 c 2,39,-1
 528 57 l 2,40,41
 528 30 528 30 501.5 10.5 c 128,-1,42
 475 -9 475 -9 436 -9 c 1,43,-1
 339 271 l 1,0,1
237 357 m 256,44,45
 237 336 237 336 250.5 322.5 c 128,-1,46
 264 309 264 309 285 309 c 256,47,48
 306 309 306 309 319.5 322.5 c 128,-1,49
 333 336 333 336 333 357 c 256,50,51
 333 378 333 378 319.5 391.5 c 128,-1,52
 306 405 306 405 285 405 c 256,53,54
 264 405 264 405 250.5 391.5 c 128,-1,55
 237 378 237 378 237 357 c 256,44,45
EndSplineSet
EndChar
StartChar: uni0E09
Encoding: 3593 3593 220
Width: 655
VWidth: 1507
Flags: W
HStem: -9 48<457.642 534.617> 184 48<134.924 186.491> 329 46<131.633 206.367> 550 57<246.23 325.686>
VStem: 59 62<242.685 317.803> 187 92<77 184> 217 62<245.924 314.561> 451 92<199.467 458.702> 547 63<51.2851 129.547>
Fore
187 184 m 1,0,-1
 169 184 l 2,1,2
 122 184 122 184 90.5 212.5 c 128,-1,3
 59 241 59 241 59 280 c 256,4,5
 59 320 59 320 90.5 347.5 c 128,-1,6
 122 375 122 375 169 375 c 256,7,8
 216 375 216 375 247.5 347.5 c 128,-1,9
 279 320 279 320 279 280 c 2,10,-1
 279 77 l 1,11,-1
 418 161 l 2,12,13
 433 170 433 170 442 186.5 c 128,-1,14
 451 203 451 203 451 220 c 2,15,-1
 451 405 l 2,16,17
 451 434 451 434 438 459.5 c 128,-1,18
 425 485 425 485 402.5 505.5 c 128,-1,19
 380 526 380 526 350 538 c 128,-1,20
 320 550 320 550 286 550 c 256,21,22
 253 550 253 550 223.5 538 c 128,-1,23
 194 526 194 526 171.5 505.5 c 128,-1,24
 149 485 149 485 136.5 458 c 128,-1,25
 124 431 124 431 124 402 c 1,26,27
 101 401 101 401 83.5 406 c 128,-1,28
 66 411 66 411 55 421 c 128,-1,29
 44 431 44 431 41 444 c 128,-1,30
 38 457 38 457 44 470 c 0,31,32
 57 502 57 502 82 527.5 c 128,-1,33
 107 553 107 553 140 571 c 128,-1,34
 173 589 173 589 211 598 c 128,-1,35
 249 607 249 607 286 607 c 0,36,37
 330 607 330 607 375.5 593.5 c 128,-1,38
 421 580 421 580 458.5 554 c 128,-1,39
 496 528 496 528 519.5 490 c 128,-1,40
 543 452 543 452 543 405 c 2,41,-1
 543 220 l 2,42,43
 543 202 543 202 534 182 c 1,44,45
 567 172 567 172 588.5 146.5 c 128,-1,46
 610 121 610 121 610 90 c 0,47,48
 610 48 610 48 577 19.5 c 128,-1,49
 544 -9 544 -9 496 -9 c 0,50,51
 457 -9 457 -9 426.5 10.5 c 128,-1,52
 396 30 396 30 386 62 c 1,53,-1
 270 -9 l 1,54,55
 235 -9 235 -9 211 10.5 c 128,-1,56
 187 30 187 30 187 57 c 2,57,-1
 187 184 l 1,0,-1
121 280 m 256,58,59
 121 259 121 259 134.5 245.5 c 128,-1,60
 148 232 148 232 169 232 c 256,61,62
 190 232 190 232 203.5 245.5 c 128,-1,63
 217 259 217 259 217 280 c 256,64,65
 217 301 217 301 203.5 315 c 128,-1,66
 190 329 190 329 169 329 c 256,67,68
 148 329 148 329 134.5 315 c 128,-1,69
 121 301 121 301 121 280 c 256,58,59
445 90 m 256,70,71
 445 69 445 69 460 54 c 128,-1,72
 475 39 475 39 496 39 c 256,73,74
 517 39 517 39 532 54 c 128,-1,75
 547 69 547 69 547 90 c 256,76,77
 547 112 547 112 532 127 c 128,-1,78
 517 142 517 142 496 142 c 256,79,80
 475 142 475 142 460 127 c 128,-1,81
 445 112 445 112 445 90 c 256,70,71
EndSplineSet
EndChar
StartChar: uni0E0A
Encoding: 3594 3594 221
Width: 634
VWidth: 1507
Flags: W
HStem: -9 57<321.149 413.058> 309 48<117.803 192.367> 454 40<135.194 192.367> 550 57<160.581 260.339>
VStem: 32 75<367.933 443.42> 190 92<79.3607 251.356> 203 62<367.685 443.556> 309 93<380.937 439> 451 93<79.3607 369.226>
Fore
190 167 m 2,0,1
 190 220 190 220 216.5 266 c 128,-1,2
 243 312 243 312 277 359 c 0,3,4
 309 395 309 395 309 437 c 0,5,6
 309 481 309 481 282 515.5 c 128,-1,7
 255 550 255 550 217 550 c 0,8,9
 187 550 187 550 163.5 533.5 c 128,-1,10
 140 517 140 517 128 491 c 1,11,12
 136 493 136 493 142 493.5 c 128,-1,13
 148 494 148 494 155 494 c 0,14,15
 202 494 202 494 233.5 469.5 c 128,-1,16
 265 445 265 445 265 405 c 256,17,18
 265 366 265 366 233.5 337.5 c 128,-1,19
 202 309 202 309 155 309 c 0,20,21
 99 309 99 309 65.5 347.5 c 128,-1,22
 32 386 32 386 32 437 c 0,23,24
 32 472 32 472 46 503 c 128,-1,25
 60 534 60 534 85 557 c 128,-1,26
 110 580 110 580 144 593.5 c 128,-1,27
 178 607 178 607 217 607 c 0,28,29
 250 607 250 607 279.5 596.5 c 128,-1,30
 309 586 309 586 333 567.5 c 128,-1,31
 357 549 357 549 373.5 524 c 128,-1,32
 390 499 390 499 398 470 c 1,33,-1
 419 479 l 2,34,35
 433 484 433 484 444 496 c 128,-1,36
 455 508 455 508 463.5 524.5 c 128,-1,37
 472 541 472 541 476.5 559 c 128,-1,38
 481 577 481 577 481 594 c 0,39,40
 481 601 481 601 480 606.5 c 128,-1,41
 479 612 479 612 476 626 c 1,42,43
 514 626 514 626 543.5 608.5 c 128,-1,44
 573 591 573 591 570 567 c 0,45,46
 564 535 564 535 543.5 503.5 c 128,-1,47
 523 472 523 472 493 457 c 1,48,49
 520 436 520 436 532 402.5 c 128,-1,50
 544 369 544 369 544 327 c 2,51,-1
 544 139 l 2,52,53
 544 106 544 106 529.5 78.5 c 128,-1,54
 515 51 515 51 490.5 31.5 c 128,-1,55
 466 12 466 12 433.5 1.5 c 128,-1,56
 401 -9 401 -9 366 -9 c 256,57,58
 332 -9 332 -9 299.5 1.5 c 128,-1,59
 267 12 267 12 243 31.5 c 128,-1,60
 219 51 219 51 204.5 78.5 c 128,-1,61
 190 106 190 106 190 139 c 2,62,-1
 190 167 l 2,0,1
419 433 m 0,63,64
 407 436 407 436 402 439 c 1,65,-1
 402 437 l 2,66,67
 402 410 402 410 385.5 380 c 128,-1,68
 369 350 369 350 344 320 c 256,69,70
 318 289 318 289 300.5 252.5 c 128,-1,71
 283 216 283 216 282 167 c 2,72,-1
 282 139 l 2,73,74
 282 99 282 99 307 73.5 c 128,-1,75
 332 48 332 48 366 48 c 256,76,77
 401 48 401 48 426 72 c 128,-1,78
 451 96 451 96 451 139 c 2,79,-1
 451 327 l 2,80,81
 451 383 451 383 443.5 405 c 128,-1,82
 436 427 436 427 419 433 c 0,63,64
107 405 m 256,83,84
 107 384 107 384 120.5 370.5 c 128,-1,85
 134 357 134 357 155 357 c 256,86,87
 176 357 176 357 189.5 370.5 c 128,-1,88
 203 384 203 384 203 405 c 256,89,90
 203 427 203 427 189.5 440.5 c 128,-1,91
 176 454 176 454 155 454 c 256,92,93
 134 454 134 454 120.5 440.5 c 128,-1,94
 107 427 107 427 107 405 c 256,83,84
EndSplineSet
EndChar
StartChar: uni0E0B
Encoding: 3595 3595 222
Width: 634
VWidth: 1507
Flags: W
HStem: -9 57<321.149 413.058> 309 48<117.803 192.367> 454 40<126.353 192.367> 587 20G<154.5 179.5 258 295>
VStem: 32 75<367.933 443.644> 190 92<79.3607 251.356> 203 62<367.685 443.556> 309 93<380.937 438.816> 451 93<79.3607 369.226>
Fore
190 167 m 2,0,1
 190 220 190 220 216.5 266 c 128,-1,2
 243 312 243 312 277 359 c 0,3,4
 309 395 309 395 309 437 c 0,5,6
 309 466 309 466 300.5 498.5 c 128,-1,7
 292 531 292 531 280 546 c 1,8,9
 274 541 274 541 269.5 536 c 128,-1,10
 265 531 265 531 261 526 c 2,11,-1
 252 517 l 2,12,13
 240 505 240 505 220 505 c 128,-1,14
 200 505 200 505 188 517 c 2,15,-1
 178 528 l 1,16,-1
 158 547 l 1,17,18
 151 540 151 540 142 524.5 c 128,-1,19
 133 509 133 509 125 490 c 1,20,21
 140 494 140 494 155 494 c 0,22,23
 202 494 202 494 233.5 469.5 c 128,-1,24
 265 445 265 445 265 405 c 256,25,26
 265 366 265 366 233.5 337.5 c 128,-1,27
 202 309 202 309 155 309 c 0,28,29
 99 309 99 309 65.5 347.5 c 128,-1,30
 32 386 32 386 32 437 c 0,31,32
 32 464 32 464 41 493.5 c 128,-1,33
 50 523 50 523 65 549 c 0,34,35
 83 576 83 576 110 591.5 c 128,-1,36
 137 607 137 607 172 607 c 0,37,38
 187 607 187 607 198.5 599 c 128,-1,39
 210 591 210 591 219 583 c 1,40,41
 226 591 226 591 237.5 599 c 128,-1,42
 249 607 249 607 267 607 c 0,43,44
 323 607 323 607 356.5 566 c 128,-1,45
 390 525 390 525 399 470 c 1,46,47
 404 473 404 473 419 479 c 0,48,49
 433 484 433 484 444 496 c 128,-1,50
 455 508 455 508 463.5 524.5 c 128,-1,51
 472 541 472 541 476.5 559 c 128,-1,52
 481 577 481 577 481 594 c 0,53,54
 481 601 481 601 480 606.5 c 128,-1,55
 479 612 479 612 476 626 c 1,56,57
 514 626 514 626 543.5 608.5 c 128,-1,58
 573 591 573 591 570 567 c 0,59,60
 564 535 564 535 543.5 503.5 c 128,-1,61
 523 472 523 472 493 457 c 1,62,63
 520 436 520 436 532 402.5 c 128,-1,64
 544 369 544 369 544 327 c 2,65,-1
 544 139 l 2,66,67
 544 106 544 106 529.5 78.5 c 128,-1,68
 515 51 515 51 490.5 31.5 c 128,-1,69
 466 12 466 12 433.5 1.5 c 128,-1,70
 401 -9 401 -9 366 -9 c 256,71,72
 332 -9 332 -9 299.5 1.5 c 128,-1,73
 267 12 267 12 243 31.5 c 128,-1,74
 219 51 219 51 204.5 78.5 c 128,-1,75
 190 106 190 106 190 139 c 2,76,-1
 190 167 l 2,0,1
419 433 m 0,77,78
 407 436 407 436 402 439 c 1,79,-1
 402 437 l 2,80,81
 402 410 402 410 385.5 380 c 128,-1,82
 369 350 369 350 344 320 c 256,83,84
 318 289 318 289 300.5 252.5 c 128,-1,85
 283 216 283 216 282 167 c 2,86,-1
 282 139 l 2,87,88
 282 99 282 99 307 73.5 c 128,-1,89
 332 48 332 48 366 48 c 256,90,91
 401 48 401 48 426 72 c 128,-1,92
 451 96 451 96 451 139 c 2,93,-1
 451 327 l 2,94,95
 451 383 451 383 443.5 405 c 128,-1,96
 436 427 436 427 419 433 c 0,77,78
107 405 m 256,97,98
 107 384 107 384 120.5 370.5 c 128,-1,99
 134 357 134 357 155 357 c 256,100,101
 176 357 176 357 189.5 370.5 c 128,-1,102
 203 384 203 384 203 405 c 256,103,104
 203 427 203 427 189.5 440.5 c 128,-1,105
 176 454 176 454 155 454 c 256,106,107
 134 454 134 454 120.5 440.5 c 128,-1,108
 107 427 107 427 107 405 c 256,97,98
EndSplineSet
EndChar
StartChar: uni0E0C
Encoding: 3596 3596 223
Width: 939
VWidth: 1507
Flags: W
HStem: -9 48<188.633 263.367 422.281 497.615> 136 46<208.333 263.367 422.281 477.651> 550 57<254.966 354.6>
VStem: 59 92<404.391 464.218> 116 62<52.9237 122.076> 116 92<181 298.488> 274 62<49.6855 125.574> 348 63<49.6855 125.06> 478 92<181 405 405 458.702> 754 93<66 582.145>
Fore
208 181 m 1,0,1
 213 182 213 182 226 182 c 0,2,3
 273 182 273 182 304.5 154.5 c 128,-1,4
 336 127 336 127 336 87 c 256,5,6
 336 48 336 48 304.5 19.5 c 128,-1,7
 273 -9 273 -9 226 -9 c 256,8,9
 179 -9 179 -9 147.5 19.5 c 128,-1,10
 116 48 116 48 116 87 c 2,11,-1
 116 291 l 1,12,13
 115 294 115 294 106.5 310 c 128,-1,14
 98 326 98 326 89 344 c 0,15,16
 77 365 77 365 63 390 c 0,17,18
 59 399 59 399 59 405 c 0,19,20
 59 451 59 451 81.5 488 c 128,-1,21
 104 525 104 525 140 552 c 128,-1,22
 176 579 176 579 222 593 c 128,-1,23
 268 607 268 607 315 607 c 0,24,25
 360 607 360 607 405.5 593.5 c 128,-1,26
 451 580 451 580 488 554 c 128,-1,27
 525 528 525 528 547.5 490 c 128,-1,28
 570 452 570 452 570 405 c 2,29,-1
 570 146 l 1,30,-1
 754 66 l 1,31,-1
 754 540 l 2,32,33
 754 567 754 567 781 586.5 c 128,-1,34
 808 606 808 606 847 606 c 1,35,-1
 847 57 l 2,36,37
 847 29 847 29 823 10 c 128,-1,38
 799 -9 799 -9 764 -9 c 1,39,-1
 570 74 l 1,40,41
 565 38 565 38 534 14.5 c 128,-1,42
 503 -9 503 -9 460 -9 c 0,43,44
 413 -9 413 -9 380.5 19.5 c 128,-1,45
 348 48 348 48 348 87 c 256,46,47
 348 127 348 127 380.5 154.5 c 128,-1,48
 413 182 413 182 460 182 c 0,49,50
 472 182 472 182 478 181 c 1,51,-1
 478 405 l 2,52,53
 478 434 478 434 465 459.5 c 128,-1,54
 452 485 452 485 429.5 505.5 c 128,-1,55
 407 526 407 526 377.5 538 c 128,-1,56
 348 550 348 550 315 550 c 256,57,58
 282 550 282 550 253.5 539 c 128,-1,59
 225 528 225 528 202 509 c 128,-1,60
 179 490 179 490 165.5 465 c 128,-1,61
 152 440 152 440 151 413 c 1,62,63
 152 408 152 408 161 392.5 c 128,-1,64
 170 377 170 377 179 359 c 0,65,66
 190 338 190 338 203 314 c 1,67,-1
 208 298 l 1,68,-1
 208 181 l 1,0,1
178 87 m 256,69,70
 178 66 178 66 191.5 52.5 c 128,-1,71
 205 39 205 39 226 39 c 256,72,73
 247 39 247 39 260.5 52.5 c 128,-1,74
 274 66 274 66 274 87 c 256,75,76
 274 109 274 109 260.5 122.5 c 128,-1,77
 247 136 247 136 226 136 c 256,78,79
 205 136 205 136 191.5 122.5 c 128,-1,80
 178 109 178 109 178 87 c 256,69,70
411 87 m 256,81,82
 411 66 411 66 425 52.5 c 128,-1,83
 439 39 439 39 460 39 c 256,84,85
 481 39 481 39 494.5 52.5 c 128,-1,86
 508 66 508 66 508 87 c 256,87,88
 508 109 508 109 494.5 122.5 c 128,-1,89
 481 136 481 136 460 136 c 256,90,91
 439 136 439 136 425 122.5 c 128,-1,92
 411 109 411 109 411 87 c 256,81,82
EndSplineSet
EndChar
StartChar: uni0E0D
Encoding: 3597 3597 224
Width: 908
VWidth: 1507
Flags: W
HStem: -267 57<609.987 676.341> -81 43<531.848 598.797> -9 63<581.773 683.638> -9 48<188.633 263.367> 136 46<208.333 263.367> 550 57<222.357 355.288>
VStem: 116 92<181 298.488> 116 62<52.9237 122.076> 274 62<49.6855 125.574> 449 92<83.002 405 405 462.671> 463 59<-159.23 -90.5089> 609 60<-159.063 -90.9734> 712.5 90.5<-127.601 -58.1389> 724 93<82.6143 582.145>
Fore
226 182 m 0,0,1
 273 182 273 182 304.5 154.5 c 128,-1,2
 336 127 336 127 336 87 c 256,3,4
 336 48 336 48 304.5 19.5 c 128,-1,5
 273 -9 273 -9 226 -9 c 256,6,7
 179 -9 179 -9 147.5 19.5 c 128,-1,8
 116 48 116 48 116 87 c 2,9,-1
 116 291 l 1,10,11
 115 294 115 294 106.5 310 c 128,-1,12
 98 326 98 326 89 344 c 0,13,14
 77 365 77 365 63 390 c 0,15,16
 59 399 59 399 59 405 c 0,17,18
 59 448 59 448 77 485 c 128,-1,19
 95 522 95 522 127.5 549 c 128,-1,20
 160 576 160 576 203.5 591.5 c 128,-1,21
 247 607 247 607 300 607 c 0,22,23
 351 607 351 607 395.5 591.5 c 128,-1,24
 440 576 440 576 472.5 549 c 128,-1,25
 505 522 505 522 523 485 c 128,-1,26
 541 448 541 448 541 405 c 2,27,-1
 541 139 l 2,28,29
 541 102 541 102 567.5 78 c 128,-1,30
 594 54 594 54 633 54 c 256,31,32
 672 54 672 54 698 78 c 128,-1,33
 724 102 724 102 724 139 c 2,34,-1
 724 540 l 2,35,36
 724 567 724 567 751 586.5 c 128,-1,37
 778 606 778 606 817 606 c 1,38,-1
 817 139 l 2,39,40
 817 106 817 106 801 78.5 c 128,-1,41
 785 51 785 51 759.5 31.5 c 128,-1,42
 734 12 734 12 701 1.5 c 128,-1,43
 668 -9 668 -9 633 -9 c 256,44,45
 598 -9 598 -9 566 1 c 128,-1,46
 534 11 534 11 507.5 30.5 c 128,-1,47
 481 50 481 50 465 77 c 128,-1,48
 449 104 449 104 449 139 c 2,49,-1
 449 405 l 2,50,51
 449 437 449 437 436.5 463.5 c 128,-1,52
 424 490 424 490 403.5 509.5 c 128,-1,53
 383 529 383 529 356 539.5 c 128,-1,54
 329 550 329 550 300 550 c 0,55,56
 246 550 246 550 202 514 c 128,-1,57
 158 478 158 478 151 413 c 1,58,59
 152 408 152 408 161 392.5 c 128,-1,60
 170 377 170 377 179 359 c 0,61,62
 190 338 190 338 203 314 c 1,63,-1
 208 298 l 1,64,-1
 208 181 l 1,65,66
 213 182 213 182 226 182 c 0,0,1
669 -125 m 0,67,68
 669 -152 669 -152 651 -172.5 c 128,-1,69
 633 -193 633 -193 604 -202 c 1,70,71
 623 -210 623 -210 630 -210 c 0,72,73
 656 -210 656 -210 674 -194 c 128,-1,74
 692 -178 692 -178 701.5 -153 c 128,-1,75
 711 -128 711 -128 712.5 -98 c 128,-1,76
 714 -68 714 -68 707 -39 c 1,77,78
 751 -39 751 -39 777 -55 c 128,-1,79
 803 -71 803 -71 803 -95 c 0,80,81
 803 -127 803 -127 790.5 -157.5 c 128,-1,82
 778 -188 778 -188 755.5 -212.5 c 128,-1,83
 733 -237 733 -237 701 -252 c 128,-1,84
 669 -267 669 -267 630 -267 c 0,85,86
 598 -267 598 -267 568 -256.5 c 128,-1,87
 538 -246 538 -246 514.5 -227 c 128,-1,88
 491 -208 491 -208 477 -181.5 c 128,-1,89
 463 -155 463 -155 463 -125 c 0,90,91
 463 -90 463 -90 492.5 -64 c 128,-1,92
 522 -38 522 -38 565 -38 c 256,93,94
 609 -38 609 -38 639 -64 c 128,-1,95
 669 -90 669 -90 669 -125 c 0,67,68
178 87 m 256,96,97
 178 66 178 66 191.5 52.5 c 128,-1,98
 205 39 205 39 226 39 c 256,99,100
 247 39 247 39 260.5 52.5 c 128,-1,101
 274 66 274 66 274 87 c 256,102,103
 274 109 274 109 260.5 122.5 c 128,-1,104
 247 136 247 136 226 136 c 256,105,106
 205 136 205 136 191.5 122.5 c 128,-1,107
 178 109 178 109 178 87 c 256,96,97
522 -125 m 256,108,109
 522 -143 522 -143 534.5 -156 c 128,-1,110
 547 -169 547 -169 565 -169 c 256,111,112
 583 -169 583 -169 596 -156 c 128,-1,113
 609 -143 609 -143 609 -125 c 256,114,115
 609 -107 609 -107 596 -94 c 128,-1,116
 583 -81 583 -81 565 -81 c 256,117,118
 547 -81 547 -81 534.5 -94 c 128,-1,119
 522 -107 522 -107 522 -125 c 256,108,109
EndSplineSet
Substitution2: "Single Substitution lookup 22 subtable" uni0E0D.alt1
Substitution2: "Single Substitution lookup 22 subtable" uni0E0D.alt1
EndChar
StartChar: uni0E0E
Encoding: 3598 3598 225
AltUni2: 00f71b.ffffffff.0
Width: 688
VWidth: 1507
Flags: W
HStem: -9 48<116.633 191.063> 136 46<116.633 171.651> 550 57<281.212 380.733>
VStem: 44 62<49.6855 125.574> 84 94<407.773 464.218> 148 74<-209.032 -150.413> 172 92<181 292.703> 202 62<52.9237 122.076> 503 94<-125.249 458.702>
Fore
106 87 m 256,0,1
 106 66 106 66 119.5 52.5 c 128,-1,2
 133 39 133 39 154 39 c 256,3,4
 175 39 175 39 188.5 52.5 c 128,-1,5
 202 66 202 66 202 87 c 256,6,7
 202 109 202 109 188.5 122.5 c 128,-1,8
 175 136 175 136 154 136 c 256,9,10
 133 136 133 136 119.5 122.5 c 128,-1,11
 106 109 106 109 106 87 c 256,0,1
262 -142 m 0,12,13
 253 -143 253 -143 237.5 -151.5 c 128,-1,14
 222 -160 222 -160 222 -181 c 0,15,16
 222 -197 222 -197 236 -207 c 128,-1,17
 250 -217 250 -217 262 -219 c 0,18,19
 279 -220 279 -220 298.5 -205.5 c 128,-1,20
 318 -191 318 -191 335 -164 c 1,21,22
 312 -148 312 -148 294.5 -143.5 c 128,-1,23
 277 -139 277 -139 262 -142 c 0,12,13
154 182 m 0,24,25
 166 182 166 182 172 181 c 1,26,-1
 172 288 l 1,27,28
 169 292 169 292 156 309.5 c 128,-1,29
 143 327 143 327 127 347 c 0,30,31
 109 369 109 369 86 396 c 0,32,33
 84 398 84 398 84 405 c 0,34,35
 84 451 84 451 107 488.5 c 128,-1,36
 130 526 130 526 166 552.5 c 128,-1,37
 202 579 202 579 248 593 c 128,-1,38
 294 607 294 607 341 607 c 0,39,40
 386 607 386 607 432 593.5 c 128,-1,41
 478 580 478 580 514 554 c 128,-1,42
 550 528 550 528 573.5 490 c 128,-1,43
 597 452 597 452 597 405 c 2,44,-1
 597 -109 l 2,45,46
 597 -118 597 -118 591.5 -130 c 128,-1,47
 586 -142 586 -142 579 -149 c 0,48,49
 552 -176 552 -176 521.5 -205.5 c 128,-1,50
 491 -235 491 -235 466 -261 c 0,51,52
 460 -267 460 -267 449.5 -268.5 c 128,-1,53
 439 -270 439 -270 431 -268 c 0,54,55
 422 -267 422 -267 413 -262.5 c 128,-1,56
 404 -258 404 -258 401 -250 c 0,57,58
 393 -229 393 -229 383 -214 c 1,59,60
 327 -273 327 -273 250 -268 c 0,61,62
 203 -265 203 -265 175.5 -242 c 128,-1,63
 148 -219 148 -219 148 -181 c 0,64,65
 148 -145 148 -145 174 -121.5 c 128,-1,66
 200 -98 200 -98 247 -90 c 0,67,68
 306 -83 306 -83 365 -112 c 1,69,70
 378 -86 378 -86 392 -42 c 1,71,72
 425 -54 425 -54 442.5 -74.5 c 128,-1,73
 460 -95 460 -95 449 -113 c 0,74,75
 442 -125 442 -125 436.5 -135 c 128,-1,76
 431 -145 431 -145 425 -155 c 1,77,78
 436.5 -166.5 l 0,79,80
 448 -178 448 -178 454 -190 c 1,81,-1
 503 -142 l 1,82,-1
 503 405 l 2,83,84
 503 434 503 434 490.5 459.5 c 128,-1,85
 478 485 478 485 456 505.5 c 128,-1,86
 434 526 434 526 404 538 c 128,-1,87
 374 550 374 550 341 550 c 0,88,89
 309 550 309 550 279.5 539 c 128,-1,90
 250 528 250 528 228 509 c 128,-1,91
 206 490 206 490 192.5 465 c 128,-1,92
 179 440 179 440 178 413 c 1,93,94
 181 408 181 408 192 392.5 c 128,-1,95
 203 377 203 377 217 360 c 0,96,97
 234 341 234 341 253 317 c 0,98,99
 264 303 264 303 264 297 c 2,100,-1
 264 87 l 2,101,102
 264 48 264 48 232 19.5 c 128,-1,103
 200 -9 200 -9 154 -9 c 256,104,105
 107 -9 107 -9 75.5 19.5 c 128,-1,106
 44 48 44 48 44 87 c 256,107,108
 44 127 44 127 75.5 154.5 c 128,-1,109
 107 182 107 182 154 182 c 0,24,25
EndSplineSet
Substitution2: "Single Substitution lookup 22 subtable" uni0E0E.alt1
Substitution2: "Single Substitution lookup 22 subtable" uni0E0E.alt1
EndChar
StartChar: uni0E0F
Encoding: 3599 3599 226
AltUni2: 00f71c.ffffffff.0
Width: 687
VWidth: 1507
Flags: W
HStem: -9 48<114.399 189.445> 136 46<114.399 171.737> 550 57<281.212 380.733>
VStem: 44 60<49.6855 125.574> 51 73<-209.032 -150.413> 84 94<413 464.218> 172 92<181 288> 200 64<52.9237 122.076> 503 94<-169.531 458.702>
Fore
104 87 m 256,0,1
 104 66 104 66 117.5 52.5 c 128,-1,2
 131 39 131 39 152 39 c 256,3,4
 173 39 173 39 186.5 52.5 c 128,-1,5
 200 66 200 66 200 87 c 256,6,7
 200 109 200 109 186.5 122.5 c 128,-1,8
 173 136 173 136 152 136 c 256,9,10
 131 136 131 136 117.5 122.5 c 128,-1,11
 104 109 104 109 104 87 c 256,0,1
154 182 m 0,12,13
 166 182 166 182 172 181 c 1,14,-1
 172 288 l 1,15,-1
 86 396 l 2,16,17
 84 398 84 398 84 405 c 0,18,19
 84 451 84 451 107 488.5 c 128,-1,20
 130 526 130 526 166 552.5 c 128,-1,21
 202 579 202 579 248 593 c 128,-1,22
 294 607 294 607 341 607 c 0,23,24
 386 607 386 607 432 593.5 c 128,-1,25
 478 580 478 580 514 554 c 128,-1,26
 550 528 550 528 573.5 490 c 128,-1,27
 597 452 597 452 597 405 c 2,28,-1
 597 -158 l 2,29,30
 597 -164 597 -164 591 -174.5 c 128,-1,31
 585 -185 585 -185 577 -193 c 2,32,-1
 508 -261 l 2,33,34
 496 -273 496 -273 479.5 -273 c 128,-1,35
 463 -273 463 -273 451 -261 c 1,36,37
 445 -256 445 -256 439 -249.5 c 128,-1,38
 433 -243 433 -243 427 -235 c 256,39,40
 421 -228 421 -228 411 -220 c 1,41,-1
 369 -261 l 2,42,43
 359 -271 359 -271 333 -268 c 0,44,45
 321 -267 321 -267 312.5 -261 c 128,-1,46
 304 -255 304 -255 301 -249 c 0,47,48
 298 -240 298 -240 293 -231 c 128,-1,49
 288 -222 288 -222 285 -214 c 1,50,51
 231 -273 231 -273 152 -268 c 0,52,53
 106 -265 106 -265 78.5 -242 c 128,-1,54
 51 -219 51 -219 51 -181 c 0,55,56
 51 -145 51 -145 76.5 -121.5 c 128,-1,57
 102 -98 102 -98 149 -90 c 0,58,59
 211 -83 211 -83 265 -112 c 1,60,61
 274 -98 274 -98 281 -82 c 128,-1,62
 288 -66 288 -66 295 -44 c 1,63,64
 329 -54 329 -54 344.5 -75 c 128,-1,65
 360 -96 360 -96 351 -113 c 2,66,-1
 327 -157 l 1,67,68
 336 -164 336 -164 344.5 -172.5 c 128,-1,69
 353 -181 353 -181 360 -193 c 1,70,-1
 389 -164 l 2,71,72
 401 -152 401 -152 417 -152 c 128,-1,73
 433 -152 433 -152 445 -164 c 2,74,-1
 482 -202 l 1,75,-1
 503 -184 l 1,76,-1
 503 405 l 2,77,78
 503 434 503 434 490.5 459.5 c 128,-1,79
 478 485 478 485 456 505.5 c 128,-1,80
 434 526 434 526 404 538 c 128,-1,81
 374 550 374 550 341 550 c 0,82,83
 309 550 309 550 279.5 539 c 128,-1,84
 250 528 250 528 228 509 c 128,-1,85
 206 490 206 490 192.5 465 c 128,-1,86
 179 440 179 440 178 413 c 1,87,88
 181 408 181 408 193 392.5 c 128,-1,89
 205 377 205 377 219 360 c 0,90,91
 235 341 235 341 253 317 c 0,92,93
 264 303 264 303 264 297 c 2,94,-1
 264 87 l 2,95,96
 264 48 264 48 232 19.5 c 128,-1,97
 200 -9 200 -9 154 -9 c 256,98,99
 107 -9 107 -9 75.5 19.5 c 128,-1,100
 44 48 44 48 44 87 c 256,101,102
 44 127 44 127 75.5 154.5 c 128,-1,103
 107 182 107 182 154 182 c 0,12,13
164 -219 m 0,104,105
 181 -220 181 -220 201.5 -207 c 128,-1,106
 222 -194 222 -194 238 -164 c 1,107,108
 216 -148 216 -148 198.5 -143.5 c 128,-1,109
 181 -139 181 -139 166 -142 c 0,110,111
 155 -143 155 -143 139.5 -151.5 c 128,-1,112
 124 -160 124 -160 124 -181 c 0,113,114
 124 -197 124 -197 138 -207 c 128,-1,115
 152 -217 152 -217 164 -219 c 0,104,105
EndSplineSet
Substitution2: "Single Substitution lookup 22 subtable" uni0E0F.alt1
Substitution2: "Single Substitution lookup 22 subtable" uni0E0F.alt1
EndChar
StartChar: uni0E10
Encoding: 3600 3600 227
Width: 610
VWidth: 1507
Flags: W
HStem: -298 85<365 405> -298 42<135.758 181.938> -193 45<136.029 190.643 385.74 418.65> -72 43<376.874 428.021> -9 21G<403.82 434> 102 49<226.631 301.567> 247 47<226.631 301.295> 550 57<217.05 357.946>
VStem: 65 60<-245.85 -196.558> 154 62<161.606 236.235> 304 61<-136.03 -83.8917> 419 80<-233.531 -193 146 323> 440 59<-127.068 -92.9316>
Fore
419 -193 m 1,0,-1
 402 -193 l 2,1,2
 363 -193 363 -193 333.5 -169 c 128,-1,3
 304 -145 304 -145 304 -110 c 0,4,5
 304 -77 304 -77 333 -53 c 128,-1,6
 362 -29 362 -29 402 -29 c 128,-1,7
 442 -29 442 -29 470.5 -53 c 128,-1,8
 499 -77 499 -77 499 -110 c 2,9,-1
 499 -203 l 2,10,11
 499 -219 499 -219 484 -234 c 0,12,13
 481 -237 481 -237 472.5 -246 c 128,-1,14
 464 -255 464 -255 455 -265 c 0,15,16
 445 -277 445 -277 431 -291 c 0,17,18
 424 -298 424 -298 405 -298 c 256,19,20
 387 -298 387 -298 380 -291 c 2,21,-1
 351 -261 l 1,22,-1
 323 -291 l 2,23,24
 315 -298 315 -298 295 -298 c 0,25,26
 283 -298 283 -298 273 -285 c 0,27,28
 262 -273 262 -273 261.5 -272 c 128,-1,29
 261 -271 261 -271 253 -261 c 1,30,31
 237 -277 237 -277 209.5 -287.5 c 128,-1,32
 182 -298 182 -298 154 -298 c 0,33,34
 115 -298 115 -298 90 -276.5 c 128,-1,35
 65 -255 65 -255 65 -225 c 0,36,37
 65 -190 65 -190 92 -169 c 128,-1,38
 119 -148 119 -148 158 -148 c 0,39,40
 182 -148 182 -148 201 -151 c 128,-1,41
 220 -154 220 -154 238 -163 c 1,42,43
 241 -154 241 -154 245.5 -139.5 c 128,-1,44
 250 -125 250 -125 256 -101 c 1,45,46
 288 -115 288 -115 297 -130.5 c 128,-1,47
 306 -146 306 -146 306 -163 c 0,48,49
 306 -170 306 -170 301.5 -182 c 128,-1,50
 297 -194 297 -194 289 -205 c 1,51,-1
 321 -238 l 1,52,-1
 338 -220 l 2,53,54
 345 -213 345 -213 365 -213 c 0,55,56
 377 -213 377 -213 382 -215 c 128,-1,57
 387 -217 387 -217 390 -220 c 2,58,-1
 413 -244 l 1,59,-1
 419 -237 l 1,60,-1
 419 -193 l 1,0,-1
155 -256 m 0,61,62
 167 -256 167 -256 183.5 -244 c 128,-1,63
 200 -232 200 -232 213 -210 c 1,64,65
 196 -197 196 -197 182.5 -194 c 128,-1,66
 169 -191 169 -191 158 -191 c 0,67,68
 151 -191 151 -191 138 -198.5 c 128,-1,69
 125 -206 125 -206 125 -225 c 0,70,71
 125 -238 125 -238 136.5 -247 c 128,-1,72
 148 -256 148 -256 155 -256 c 0,61,62
285 607 m 0,73,74
 338 607 338 607 381.5 589 c 128,-1,75
 425 571 425 571 455 543 c 1,76,-1
 490 607 l 1,77,78
 526 591 526 591 539.5 567.5 c 128,-1,79
 553 544 553 544 543 523 c 2,80,-1
 505 449 l 2,81,82
 488 416 488 416 462 419 c 128,-1,83
 436 422 436 422 425 449 c 0,84,85
 407 493 407 493 368 521.5 c 128,-1,86
 329 550 329 550 285 550 c 0,87,88
 240 550 240 550 205 518.5 c 128,-1,89
 170 487 170 487 155 448 c 1,90,-1
 446 377 l 2,91,92
 470 369 470 369 487.5 351 c 128,-1,93
 505 333 505 333 505 312 c 2,94,-1
 505 57 l 2,95,96
 505 29 505 29 478.5 10 c 128,-1,97
 452 -9 452 -9 416 -9 c 1,98,-1
 335 124 l 1,99,100
 304 102 304 102 264 102 c 0,101,102
 219 102 219 102 186.5 131 c 128,-1,103
 154 160 154 160 154 199 c 256,104,105
 154 238 154 238 186.5 266 c 128,-1,106
 219 294 219 294 264 294 c 0,107,108
 297 294 297 294 323.5 280.5 c 128,-1,109
 350 267 350 267 363 244 c 2,110,-1
 413 146 l 1,111,-1
 413 323 l 1,112,113
 332 342 332 342 253.5 362.5 c 128,-1,114
 175 383 175 383 93 402 c 0,115,116
 78 405 78 405 67.5 414.5 c 128,-1,117
 57 424 57 424 59 436 c 0,118,119
 63 472 63 472 82 503.5 c 128,-1,120
 101 535 101 535 131 558.5 c 128,-1,121
 161 582 161 582 200.5 594.5 c 128,-1,122
 240 607 240 607 285 607 c 0,73,74
216 199 m 256,123,124
 216 178 216 178 229.5 164.5 c 128,-1,125
 243 151 243 151 264 151 c 256,126,127
 285 151 285 151 298.5 164.5 c 128,-1,128
 312 178 312 178 312 199 c 256,129,130
 312 220 312 220 298.5 233.5 c 128,-1,131
 285 247 285 247 264 247 c 256,132,133
 243 247 243 247 229.5 233.5 c 128,-1,134
 216 220 216 220 216 199 c 256,123,124
365 -110 m 256,135,136
 365 -127 365 -127 375.5 -137.5 c 128,-1,137
 386 -148 386 -148 402 -148 c 256,138,139
 419 -148 419 -148 429.5 -137.5 c 128,-1,140
 440 -127 440 -127 440 -110 c 256,141,142
 440 -93 440 -93 429.5 -82.5 c 128,-1,143
 419 -72 419 -72 402 -72 c 256,144,145
 386 -72 386 -72 375.5 -82.5 c 128,-1,146
 365 -93 365 -93 365 -110 c 256,135,136
EndSplineSet
Substitution2: "Single Substitution lookup 22 subtable" uni0E10.alt1
Substitution2: "Single Substitution lookup 22 subtable" uni0E10.alt1
EndChar
StartChar: uni0E11
Encoding: 3601 3601 228
Width: 764
VWidth: 1507
Flags: W
HStem: -9 21G<276 329.5 580 600> 309 48<117.633 192.476> 454 40<126.353 192.476> 587 20G<154.5 179.5 258.5 284 549.5 582.5>
VStem: 32 75<367.933 443.644> 203 64<367.685 443.556> 205 92<172 221.729> 309 93<394.864 475.425> 580 92<13.6416 520.781>
Fore
158 547 m 1,0,1
 151 540 151 540 142 524.5 c 128,-1,2
 133 509 133 509 125 490 c 1,3,4
 140 494 140 494 155 494 c 0,5,6
 202 494 202 494 234.5 469.5 c 128,-1,7
 267 445 267 445 267 405 c 256,8,9
 267 366 267 366 234.5 337.5 c 128,-1,10
 202 309 202 309 155 309 c 0,11,12
 101 309 101 309 66.5 347.5 c 128,-1,13
 32 386 32 386 32 437 c 0,14,15
 32 464 32 464 41 493.5 c 128,-1,16
 50 523 50 523 66 549 c 0,17,18
 83 576 83 576 110 591.5 c 128,-1,19
 137 607 137 607 172 607 c 0,20,21
 187 607 187 607 198.5 599 c 128,-1,22
 210 591 210 591 219 583 c 1,23,24
 226 591 226 591 237.5 599 c 128,-1,25
 249 607 249 607 268 607 c 0,26,27
 300 607 300 607 325 592 c 128,-1,28
 350 577 350 577 367 553 c 128,-1,29
 384 529 384 529 393 499 c 128,-1,30
 402 469 402 469 402 437 c 0,31,32
 402 410 402 410 385.5 380 c 128,-1,33
 369 350 369 350 344 320 c 256,34,35
 318 289 318 289 307.5 254.5 c 128,-1,36
 297 220 297 220 297 172 c 1,37,-1
 514 591 l 2,38,39
 519 598 519 598 531 602.5 c 128,-1,40
 543 607 543 607 556 607 c 0,41,42
 609 607 609 607 640.5 579.5 c 128,-1,43
 672 552 672 552 672 505 c 2,44,-1
 672 57 l 2,45,46
 672 29 672 29 646 10 c 128,-1,47
 620 -9 620 -9 580 -9 c 1,48,-1
 580 505 l 2,49,50
 580 514 580 514 579.5 521 c 128,-1,51
 579 528 579 528 576 534 c 1,52,53
 505 396 505 396 435 262 c 128,-1,54
 365 128 365 128 294 -9 c 1,55,56
 258 -9 258 -9 231.5 10 c 128,-1,57
 205 29 205 29 205 57 c 2,58,-1
 205 167 l 2,59,60
 205 220 205 220 223 265.5 c 128,-1,61
 241 311 241 311 279 359 c 0,62,63
 294 377 294 377 301.5 396 c 128,-1,64
 309 415 309 415 309 437 c 0,65,66
 309 466 309 466 300.5 498.5 c 128,-1,67
 292 531 292 531 280 546 c 1,68,-1
 252 517 l 2,69,70
 240 505 240 505 220 505 c 128,-1,71
 200 505 200 505 188 517 c 2,72,-1
 178 528 l 1,73,-1
 158 547 l 1,0,1
107 405 m 256,74,75
 107 384 107 384 120.5 370.5 c 128,-1,76
 134 357 134 357 155 357 c 256,77,78
 176 357 176 357 189.5 370.5 c 128,-1,79
 203 384 203 384 203 405 c 256,80,81
 203 427 203 427 189.5 440.5 c 128,-1,82
 176 454 176 454 155 454 c 256,83,84
 134 454 134 454 120.5 440.5 c 128,-1,85
 107 427 107 427 107 405 c 256,74,75
EndSplineSet
EndChar
StartChar: uni0E12
Encoding: 3602 3602 229
Width: 967
VWidth: 1507
Flags: W
HStem: -9 48<448.328 525.202> 142 46<448.328 507.684> 390 49<306.081 381.413> 587 20G<245 267.5 420.5 444 856.5 876>
VStem: 89 92<109 506.482> 234 61<304.772 379.394> 372 64<51.2851 129.552> 392 63<304.806 379.394> 508 92<187 506.482> 782 94<66 582.145>
Fore
181 109 m 1,0,-1
 307 253 l 1,1,2
 274 262 274 262 254 286.5 c 128,-1,3
 234 311 234 311 234 342 c 0,4,5
 234 381 234 381 266 410 c 128,-1,6
 298 439 298 439 344 439 c 0,7,8
 387 439 387 439 421 410 c 128,-1,9
 455 381 455 381 455 342 c 0,10,11
 455 312 455 312 428 282 c 2,12,-1
 175 -9 l 1,13,14
 140 -9 140 -9 114.5 10 c 128,-1,15
 89 29 89 29 89 57 c 2,16,-1
 89 434 l 2,17,18
 89 475 89 475 105.5 507.5 c 128,-1,19
 122 540 122 540 147 562.5 c 128,-1,20
 172 585 172 585 202 596 c 128,-1,21
 232 607 232 607 258 607 c 0,22,23
 277 607 277 607 286 598 c 0,24,25
 297 589 297 589 307 583 c 2,26,27
 317 576 317 576 326.5 570 c 128,-1,28
 336 564 336 564 344 556 c 1,29,30
 353 564 353 564 362.5 570.5 c 128,-1,31
 372 577 372 577 381 585 c 0,32,33
 402 600 l 1,34,35
 410 607 410 607 431 607 c 0,36,37
 457 607 457 607 487 596 c 128,-1,38
 517 585 517 585 542 562.5 c 128,-1,39
 567 540 567 540 583.5 507.5 c 128,-1,40
 600 475 600 475 600 434 c 2,41,-1
 600 151 l 1,42,-1
 782 66 l 1,43,-1
 782 540 l 2,44,45
 782 567 782 567 809.5 586.5 c 128,-1,46
 837 606 837 606 876 606 c 1,47,-1
 876 57 l 2,48,49
 876 29 876 29 852 10 c 128,-1,50
 828 -9 828 -9 793 -9 c 1,51,-1
 598 78 l 1,52,53
 594 39 594 39 562.5 15 c 128,-1,54
 531 -9 531 -9 487 -9 c 0,55,56
 439 -9 439 -9 405.5 19.5 c 128,-1,57
 372 48 372 48 372 90 c 0,58,59
 372 130 372 130 405.5 159 c 128,-1,60
 439 188 439 188 487 188 c 0,61,62
 500 188 500 188 508 187 c 1,63,-1
 508 434 l 2,64,65
 508 479 508 479 488.5 508.5 c 128,-1,66
 469 538 469 538 448 546 c 1,67,68
 440 540 440 540 428 530 c 128,-1,69
 416 520 416 520 404.5 511 c 128,-1,70
 393 502 393 502 383.5 495 c 128,-1,71
 374 488 374 488 372 487 c 1,72,-1
 374 487 l 1,73,74
 344 463 344 463 315 487 c 0,75,76
 298 499 298 499 283 511 c 0,77,78
 271 522 271 522 259 531.5 c 128,-1,79
 247 541 247 541 241 546 c 1,80,81
 220 538 220 538 200.5 508.5 c 128,-1,82
 181 479 181 479 181 434 c 2,83,-1
 181 109 l 1,0,-1
295 342 m 256,84,85
 295 321 295 321 309 307.5 c 128,-1,86
 323 294 323 294 344 294 c 256,87,88
 365 294 365 294 378.5 307.5 c 128,-1,89
 392 321 392 321 392 342 c 256,90,91
 392 363 392 363 378.5 376.5 c 128,-1,92
 365 390 365 390 344 390 c 256,93,94
 323 390 323 390 309 376.5 c 128,-1,95
 295 363 295 363 295 342 c 256,84,85
436 90 m 256,96,97
 436 69 436 69 451 54 c 128,-1,98
 466 39 466 39 487 39 c 256,99,100
 508 39 508 39 523 54 c 128,-1,101
 538 69 538 69 538 90 c 256,102,103
 538 112 538 112 523 127 c 128,-1,104
 508 142 508 142 487 142 c 256,105,106
 466 142 466 142 451 127 c 128,-1,107
 436 112 436 112 436 90 c 256,96,97
EndSplineSet
EndChar
StartChar: uni0E13
Encoding: 3603 3603 230
Width: 934
VWidth: 1507
Flags: W
HStem: -9 48<188.633 263.476 734.616 811.389> 136 46<208.333 263.476> 550 57<245.594 354.988>
VStem: 116 92<181 298.488> 116 62<52.9237 122.076> 274 64<49.6855 125.574> 451 92<74 405 405 482.682> 727 93<199.747 582.145> 824 64<51.2851 129.442>
Fore
226 182 m 0,0,1
 273 182 273 182 305.5 154.5 c 128,-1,2
 338 127 338 127 338 87 c 256,3,4
 338 48 338 48 305.5 19.5 c 128,-1,5
 273 -9 273 -9 226 -9 c 256,6,7
 179 -9 179 -9 147.5 19.5 c 128,-1,8
 116 48 116 48 116 87 c 2,9,-1
 116 291 l 1,10,11
 115 294 115 294 106.5 310 c 128,-1,12
 98 326 98 326 89 344 c 0,13,14
 77 365 77 365 63 390 c 0,15,16
 59 399 59 399 59 405 c 0,17,18
 59 448 59 448 77 485 c 128,-1,19
 95 522 95 522 128 549 c 128,-1,20
 161 576 161 576 205 591.5 c 128,-1,21
 249 607 249 607 301 607 c 128,-1,22
 353 607 353 607 397.5 591.5 c 128,-1,23
 442 576 442 576 474 549 c 128,-1,24
 506 522 506 522 524.5 485 c 128,-1,25
 543 448 543 448 543 405 c 2,26,-1
 543 74 l 1,27,28
 579 95 579 95 619.5 118.5 c 128,-1,29
 660 142 660 142 696 163 c 0,30,31
 713 175 713 175 720 190.5 c 128,-1,32
 727 206 727 206 727 222 c 2,33,-1
 727 540 l 2,34,35
 727 567 727 567 754 586.5 c 128,-1,36
 781 606 781 606 820 606 c 1,37,-1
 820 222 l 2,38,39
 820 200 820 200 812 182 c 1,40,41
 846 170 846 170 867 144.5 c 128,-1,42
 888 119 888 119 888 90 c 0,43,44
 888 48 888 48 853 19.5 c 128,-1,45
 818 -9 818 -9 773 -9 c 0,46,47
 731 -9 731 -9 701 12 c 128,-1,48
 671 33 671 33 663 66 c 1,49,-1
 534 -9 l 1,50,51
 499 -9 499 -9 475 10 c 128,-1,52
 451 29 451 29 451 57 c 2,53,-1
 451 405 l 2,54,55
 451 469 451 469 411 503 c 0,56,57
 389 525 389 525 360.5 537.5 c 128,-1,58
 332 550 332 550 301 550 c 256,59,60
 271 550 271 550 242 538 c 128,-1,61
 213 526 213 526 190 505 c 0,62,63
 154 470 154 470 151 415 c 1,64,65
 152 410 152 410 161 393.5 c 128,-1,66
 170 377 170 377 179 359 c 0,67,68
 190 338 190 338 203 314 c 1,69,-1
 208 298 l 1,70,-1
 208 181 l 1,71,72
 213 182 213 182 226 182 c 0,0,1
178 87 m 256,73,74
 178 66 178 66 191.5 52.5 c 128,-1,75
 205 39 205 39 226 39 c 256,76,77
 247 39 247 39 260.5 52.5 c 128,-1,78
 274 66 274 66 274 87 c 256,79,80
 274 109 274 109 260.5 122.5 c 128,-1,81
 247 136 247 136 226 136 c 256,82,83
 205 136 205 136 191.5 122.5 c 128,-1,84
 178 109 178 109 178 87 c 256,73,74
722 90 m 256,85,86
 722 69 722 69 737 54 c 128,-1,87
 752 39 752 39 773 39 c 256,88,89
 794 39 794 39 809 54 c 128,-1,90
 824 69 824 69 824 90 c 256,91,92
 824 112 824 112 809 127 c 128,-1,93
 794 142 794 142 773 142 c 256,94,95
 752 142 752 142 737 127 c 128,-1,96
 722 112 722 112 722 90 c 256,85,86
EndSplineSet
EndChar
